<svg width="24" height="24" viewBox="0 0 24 24" fill="none" xmlns="http://www.w3.org/2000/svg">
<g clip-path="url(#clip0_970_16434)">
<path d="M17.6103 6.29654C19.1513 7.81354 20.0003 9.83854 20.0003 11.9995C20.0003 14.2945 19.0103 16.4805 17.2823 17.9985C16.4683 18.7155 16.0003 19.8315 16.0003 21.0625V23.9995H8.00032V20.9295C8.00032 19.7745 7.54732 18.7185 6.75632 18.0325C4.92032 16.4395 3.91832 14.1345 4.00632 11.7065C4.15532 7.52754 7.68132 4.07054 11.8643 4.00154C14.0143 3.95954 16.0693 4.77954 17.6103 6.29654ZM14.0003 21.0635C14.0003 20.7015 14.0363 20.3475 14.0923 20.0005H9.92332C9.96932 20.3055 10.0003 20.6145 10.0003 20.9305V22.0005H14.0003V21.0635ZM18.0003 12.0005C18.0003 10.3795 17.3633 8.85954 16.2073 7.72354C15.0523 6.58554 13.5163 5.97254 11.8973 6.00154C8.75932 6.05354 6.11632 8.64554 6.00332 11.7785C5.93832 13.5985 6.69032 15.3275 8.06532 16.5225C8.54632 16.9395 8.94432 17.4415 9.25332 18.0005H10.9983V13.8165C9.83732 13.4025 8.99832 12.3025 8.99832 11.0005H10.9983C10.9983 11.5525 11.4463 12.0005 11.9983 12.0005C12.5503 12.0005 12.9983 11.5525 12.9983 11.0005H14.9983C14.9983 12.3025 14.1593 13.4025 12.9983 13.8165V18.0005H14.7653C15.0773 17.4315 15.4783 16.9215 15.9603 16.4975C17.2553 15.3585 17.9983 13.7205 17.9983 12.0005H18.0003Z" fill="#055E4B"/>
<path d="M17.9892 4.34006L16.2802 3.29906L18.2662 0.0390625L19.9752 1.08006L17.9892 4.34006ZM23.1502 4.54606L19.8192 6.05006L20.6412 7.87206L23.9722 6.36806L23.1502 4.54606ZM7.72523 3.29906L5.73923 0.0390625L4.03023 1.08006L6.01523 4.34006L7.72523 3.29906ZM0.854227 4.54606L0.0322266 6.36806L3.36223 7.87206L4.18423 6.05006L0.854227 4.54606Z" fill="#D5AF6E"/>
</g>
<defs>
<clipPath id="clip0_970_16434">
<rect width="24" height="24" fill="white"/>
</clipPath>
</defs>
</svg>
