<svg width="24" height="24" viewBox="0 0 24 24" fill="none" xmlns="http://www.w3.org/2000/svg">
<g clip-path="url(#clip0_970_16439)">
<path d="M24 5V7C24 9.757 21.757 12 19 12H17C16.448 12 16 11.552 16 11C16 10.448 16.448 10 17 10H19C20.654 10 22 8.654 22 7V5C22 3.346 20.654 2 19 2H5C3.346 2 2 3.346 2 5V7C2 8.654 3.346 10 5 10C5.552 10 6 10.448 6 11C6 11.552 5.552 12 5 12C2.243 12 0 9.757 0 7V5C0 2.243 2.243 0 5 0H19C21.757 0 24 2.243 24 5ZM18.762 18.552L14.007 16.769V12.107C14.007 10.591 12.931 9.273 11.504 9.041C10.625 8.898 9.736 9.144 9.065 9.715C8.393 10.286 8.008 11.119 8.008 12.001V19.564L7.005 18.765C5.795 17.682 3.93 17.759 2.817 18.951C1.687 20.159 1.751 22.061 2.947 23.181L3.505 23.719C3.691 23.899 3.94 23.999 4.199 23.999C5.099 23.999 5.541 22.904 4.893 22.279L4.325 21.731C3.922 21.353 3.901 20.718 4.279 20.315C4.654 19.913 5.287 19.894 5.689 20.267C5.7 20.278 7.46 21.682 7.46 21.682C7.936 22.06 8.571 22.133 9.12 21.868C9.668 21.604 10.009 21.062 10.009 20.453V11.998C10.009 11.704 10.137 11.426 10.362 11.236C10.59 11.043 10.881 10.964 11.185 11.012C11.647 11.088 12.01 11.568 12.01 12.105V17.459C12.01 17.876 12.269 18.249 12.659 18.396L18.063 20.423C19.174 20.84 19.936 21.873 20.004 23.056C20.035 23.588 20.476 23.998 21.002 23.998C21.022 23.998 21.041 23.998 21.061 23.997C21.612 23.965 22.033 23.492 22.001 22.94C21.886 20.967 20.616 19.244 18.765 18.55L18.762 18.552Z" fill="#055E4B"/>
<path d="M20.969 5.32173C20.897 5.12473 20.709 4.99273 20.499 4.99273H18.999L18.468 3.50273C18.395 3.30673 18.208 3.17773 17.999 3.17773C17.79 3.17773 17.603 3.30773 17.53 3.50273L16.999 4.99273H15.499C15.289 4.99273 15.102 5.12373 15.03 5.32073C14.957 5.51773 15.016 5.73873 15.176 5.87373L16.365 6.84073L15.895 8.34873C15.832 8.55073 15.902 8.77173 16.072 8.89873C16.161 8.96473 16.266 8.99873 16.372 8.99873C16.469 8.99873 16.566 8.97073 16.65 8.91473L18.004 8.00873L19.381 8.90573C19.559 9.02073 19.79 9.01173 19.959 8.88273C20.127 8.75273 20.195 8.53073 20.128 8.32973L19.639 6.83973L20.822 5.87573C20.983 5.74073 21.041 5.51873 20.969 5.32173ZM14.969 5.32173C14.897 5.12473 14.709 4.99273 14.499 4.99273H12.999L12.468 3.50273C12.395 3.30673 12.208 3.17773 11.999 3.17773C11.79 3.17773 11.603 3.30773 11.53 3.50273L10.999 4.99273H9.49899C9.28899 4.99273 9.10199 5.12373 9.02999 5.32073C8.95699 5.51773 9.01599 5.73873 9.17599 5.87373L10.622 7.01573C11.019 6.98473 11.422 6.99973 11.824 7.06573C12.647 7.19973 13.4 7.54573 14.034 8.04373L13.638 6.83873L14.821 5.87473C14.982 5.73973 15.041 5.51873 14.969 5.32173ZM4.07099 8.89973C4.15999 8.96573 4.26499 8.99973 4.37099 8.99973C4.46799 8.99973 4.56499 8.97174 4.64899 8.91573L6.00299 8.00973L7.37999 8.90673C7.55799 9.02173 7.78899 9.01273 7.95799 8.88373C8.12599 8.75373 8.19399 8.53173 8.12699 8.33073L7.63799 6.84073L8.82099 5.87673C8.98199 5.74173 9.04099 5.51973 8.96899 5.32273C8.89699 5.12573 8.70899 4.99373 8.49899 4.99373H6.99899L6.46799 3.50373C6.39499 3.30773 6.20799 3.17873 5.99899 3.17873C5.78999 3.17873 5.60299 3.30873 5.52999 3.50373L4.99899 4.99373H3.49899C3.28899 4.99373 3.10199 5.12473 3.02999 5.32173C2.95699 5.51873 3.01599 5.73973 3.17599 5.87473L4.36499 6.84173L3.89499 8.34973C3.83199 8.55173 3.90099 8.77273 4.07099 8.89973Z" fill="#D5AF6E"/>
</g>
<defs>
<clipPath id="clip0_970_16439">
<rect width="24" height="24" fill="white"/>
</clipPath>
</defs>
</svg>
 