<svg width="24" height="24" viewBox="0 0 24 24" fill="none" xmlns="http://www.w3.org/2000/svg">
<g clip-path="url(#clip0_977_21354)">
<path d="M7 4V0H3.5C1.57 0 0 1.57 0 3.5V20.5C0 22.43 1.57 24 3.5 24H24V4H7ZM2 3.5C2 2.673 2.673 2 3.5 2H5V17H3.5C2.964 17 2.455 17.122 2 17.338V3.5ZM22 22H3.5C2.673 22 2 21.327 2 20.5C2 19.673 2.673 19 3.5 19H7V6H22V22ZM20 19H9V8H11V17H14V13H16V17H18V10H14V8H20V19Z" fill="#055E4B"/>
<path d="M20 19H9V8H11V17H14V13H16V17H18V10H14V8H20V19Z" fill="#D5AF6E"/>
</g>
<defs>
<clipPath id="clip0_977_21354">
<rect width="24" height="24" fill="white"/>
</clipPath>
</defs>
</svg>
