<svg width="24" height="24" viewBox="0 0 24 24" fill="none" xmlns="http://www.w3.org/2000/svg">
<g clip-path="url(#clip0_977_21464)">
<path d="M10 23C10 23.553 9.553 24 9 24H5C2.243 24 0 21.757 0 19V5C0 2.243 2.243 0 5 0H13C15.757 0 18 2.243 18 5V7C18 7.553 17.553 8 17 8C16.447 8 16 7.553 16 7V5C16 3.346 14.654 2 13 2H5C3.346 2 2 3.346 2 5V19C2 20.654 3.346 22 5 22H9C9.553 22 10 22.447 10 23ZM14 6C14 5.447 13.553 5 13 5H5C4.447 5 4 5.447 4 6C4 6.553 4.447 7 5 7H13C13.553 7 14 6.553 14 6ZM10 11C10 10.447 9.553 10 9 10H5C4.447 10 4 10.447 4 11C4 11.553 4.447 12 5 12H9C9.553 12 10 11.553 10 11ZM5 15C4.447 15 4 15.447 4 16C4 16.553 4.447 17 5 17H7C7.553 17 8 16.553 8 16C8 15.447 7.553 15 7 15H5ZM24 17C24 20.859 20.859 24 17 24C13.141 24 10 20.859 10 17C10 13.141 13.141 10 17 10C20.859 10 24 13.141 24 17ZM22 17C22 14.243 19.757 12 17 12C14.243 12 12 14.243 12 17C12 19.757 14.243 22 17 22C19.757 22 22 19.757 22 17ZM18.808 15.759L16.585 17.893C16.441 18.034 16.206 18.037 16.063 17.895L14.932 16.787C14.536 16.399 13.904 16.405 13.518 16.801C13.131 17.196 13.137 17.828 13.532 18.215L14.664 19.324C15.124 19.773 15.726 19.998 16.327 19.998C16.928 19.998 17.528 19.773 17.98 19.327L20.193 17.203C20.591 16.82 20.604 16.187 20.222 15.789C19.839 15.389 19.205 15.378 18.808 15.76V15.759Z" fill="#055E4B"/>
<path d="M24 17C24 20.859 20.859 24 17 24C13.141 24 10 20.859 10 17C10 13.141 13.141 10 17 10C20.859 10 24 13.141 24 17ZM22 17C22 14.243 19.757 12 17 12C14.243 12 12 14.243 12 17C12 19.757 14.243 22 17 22C19.757 22 22 19.757 22 17ZM18.808 15.759L16.585 17.893C16.441 18.034 16.206 18.037 16.063 17.895L14.932 16.787C14.536 16.399 13.904 16.405 13.518 16.801C13.131 17.196 13.137 17.828 13.532 18.215L14.664 19.324C15.124 19.773 15.726 19.998 16.327 19.998C16.928 19.998 17.528 19.773 17.98 19.327L20.193 17.203C20.591 16.82 20.604 16.187 20.222 15.789C19.839 15.389 19.205 15.378 18.808 15.76V15.759Z" fill="#D5AF6E"/>
</g>
<defs>
<clipPath id="clip0_977_21464">
<rect width="24" height="24" fill="white"/>
</clipPath>
</defs>
</svg>
