<svg width="24" height="24" viewBox="0 0 24 24" fill="none" xmlns="http://www.w3.org/2000/svg">
<g clip-path="url(#clip0_977_21467)">
<path d="M19 1H16C15.447 1 15 1.448 15 2C15 2.552 15.447 3 16 3H19C20.654 3 22 4.346 22 6V13H1.99998V6.022C1.99998 5.218 2.31398 4.462 2.88498 3.895C3.45098 3.332 4.20198 3.022 4.99998 3.022H5.01698L7.99498 3.039H8.00098C8.55098 3.039 8.99798 2.595 9.00098 2.044C9.00398 1.492 8.55898 1.042 8.00698 1.039L5.02898 1.022H5.00098C3.66998 1.022 2.41898 1.538 1.47598 2.477C0.524976 3.422 0.000976562 4.681 0.000976562 6.022V14C0.000976562 16.757 2.24398 19 5.00098 19H11.001V21H7.00098C6.44798 21 6.00098 21.448 6.00098 22C6.00098 22.552 6.44798 23 7.00098 23H17.001C17.554 23 18.001 22.552 18.001 22C18.001 21.448 17.554 21 17.001 21H13.001V19H19.001C21.758 19 24.001 16.757 24.001 14V6C24.001 3.243 21.757 1 19 1ZM19 17H4.99998C3.69798 17 2.59798 16.161 2.18398 15H21.815C21.401 16.161 20.302 17 19 17ZM11 8.42V1C11 0.448 11.447 0 12 0C12.553 0 13 0.448 13 1V8.421L15.319 6.267C15.722 5.892 16.357 5.913 16.732 6.32C17.108 6.725 17.085 7.357 16.68 7.733L14.067 10.159C13.506 10.72 12.759 11.002 12.009 11.002C11.249 11.002 10.486 10.713 9.90498 10.133L7.31798 7.733C6.91398 7.357 6.88998 6.725 7.26598 6.32C7.63998 5.914 8.27498 5.892 8.67898 6.267L10.998 8.42H11Z" fill="#055E4B"/>
<path d="M11.0002 8.42V1C11.0002 0.448 11.4472 0 12.0002 0C12.5532 0 13.0002 0.448 13.0002 1V8.421L15.3192 6.267C15.7222 5.892 16.3572 5.913 16.7322 6.32C17.1082 6.725 17.0852 7.357 16.6802 7.733L14.0672 10.159C13.5062 10.72 12.7592 11.002 12.0092 11.002C11.2492 11.002 10.4862 10.713 9.90522 10.133L7.31822 7.733C6.91422 7.357 6.89022 6.725 7.26622 6.32C7.64022 5.914 8.27522 5.892 8.67922 6.267L10.9982 8.42H11.0002Z" fill="#D5AF6E"/>
</g>
<defs>
<clipPath id="clip0_977_21467">
<rect width="24" height="24" fill="white"/>
</clipPath>
</defs>
</svg>
