<svg width="24" height="24" viewBox="0 0 24 24" fill="none" xmlns="http://www.w3.org/2000/svg">
<path d="M23.9382 17.305L21.9662 6.131C21.5442 3.737 19.4732 2 17.0422 2H6.95823C3.50023 2 2.29423 4.655 2.03423 6.131L0.0622333 17.305C-0.143767 18.472 0.175233 19.662 0.937233 20.572C1.69923 21.48 2.81623 22.001 4.00123 22.001H5.00023C5.55223 22.001 6.00023 21.554 6.00023 21.001C6.00023 20.448 5.55223 20.001 5.00023 20.001H4.00123C3.40823 20.001 2.85023 19.74 2.46923 19.286C2.08823 18.832 1.92823 18.237 2.03123 17.653L4.00323 6.479C4.06523 6.125 4.18823 5.795 4.35823 5.5L6.69723 17.926C7.14223 20.287 9.20823 22.001 11.6112 22.001H19.9982C21.1842 22.001 22.3012 21.48 23.0622 20.572C23.8242 19.663 24.1442 18.472 23.9382 17.305ZM21.5312 19.285C21.1502 19.739 20.5922 20 19.9992 20H11.6122C10.1712 20 8.93123 18.972 8.66423 17.556L6.13323 4.115C6.39623 4.04 6.67323 4.001 6.95723 4.001H17.0422C18.5002 4.001 19.7432 5.043 19.9962 6.48L21.9682 17.654C22.0712 18.238 21.9122 18.833 21.5302 19.287L21.5312 19.285ZM10.0002 9C9.44823 9 9.00023 8.552 9.00023 8C9.00023 7.448 9.44823 7 10.0002 7H17.0002C17.5522 7 18.0002 7.448 18.0002 8C18.0002 8.552 17.5522 9 17.0002 9H10.0002ZM10.7312 13C10.1792 13 9.73123 12.552 9.73123 12C9.73123 11.448 10.1792 11 10.7312 11H17.7312C18.2832 11 18.7312 11.448 18.7312 12C18.7312 12.552 18.2832 13 17.7312 13H10.7312ZM19.5002 16C19.5002 16.553 19.0522 17 18.5002 17H11.5002C10.9482 17 10.5002 16.553 10.5002 16C10.5002 15.447 10.9482 15 11.5002 15H18.5002C19.0522 15 19.5002 15.447 19.5002 16Z" fill="#055E4B"/>
<path d="M10 9C9.448 9 9 8.552 9 8C9 7.448 9.448 7 10 7H17C17.552 7 18 7.448 18 8C18 8.552 17.552 9 17 9H10ZM10.731 13C10.179 13 9.731 12.552 9.731 12C9.731 11.448 10.179 11 10.731 11H17.731C18.283 11 18.731 11.448 18.731 12C18.731 12.552 18.283 13 17.731 13H10.731ZM19.5 16C19.5 16.553 19.052 17 18.5 17H11.5C10.948 17 10.5 16.553 10.5 16C10.5 15.447 10.948 15 11.5 15H18.5C19.052 15 19.5 15.447 19.5 16Z" fill="#D5AF6E"/>
</svg>
