<svg width="384" height="258" viewBox="0 0 384 258" fill="none" xmlns="http://www.w3.org/2000/svg">
<path d="M240.572 213.395H248.267C252.125 213.395 255.254 216.532 255.254 220.403C255.254 224.273 252.125 227.412 248.267 227.412H116.585C112.727 227.412 109.598 224.273 109.598 220.403C109.598 216.532 112.727 213.395 116.585 213.395H123.666H240.572Z" fill="white"/>
<path d="M235.091 185.379V213.41H129.762V185.379H235.091Z" fill="white"/>
<path d="M235.1 213.721H129.77C129.6 213.721 129.461 213.582 129.461 213.41V185.379C129.461 185.208 129.6 185.069 129.77 185.069C129.941 185.069 130.08 185.208 130.08 185.379V213.101H234.789V185.379C234.789 185.208 234.928 185.069 235.1 185.069C235.268 185.069 235.408 185.208 235.408 185.379V213.41C235.408 213.582 235.268 213.721 235.1 213.721Z" fill="#2E3130"/>
<path d="M248.272 227.721H116.589C112.566 227.721 109.293 224.439 109.293 220.402C109.293 216.368 112.566 213.086 116.589 213.086H123.67C123.84 213.086 123.978 213.223 123.978 213.395C123.978 213.566 123.84 213.705 123.67 213.705H116.589C112.907 213.705 109.911 216.709 109.911 220.402C109.911 224.096 112.907 227.101 116.589 227.101H248.272C251.953 227.101 254.949 224.096 254.949 220.402C254.949 216.709 251.953 213.705 248.272 213.705H240.577C240.406 213.705 240.266 213.566 240.266 213.395C240.266 213.223 240.406 213.086 240.577 213.086H248.272C252.294 213.086 255.568 216.368 255.568 220.402C255.568 224.437 252.294 227.721 248.272 227.721Z" fill="#2E3130"/>
<path d="M231.172 192.271H133.69C133.52 192.271 133.383 192.134 133.383 191.963C133.383 191.791 133.52 191.654 133.69 191.654H231.172C231.342 191.654 231.48 191.791 231.48 191.963C231.48 192.134 231.342 192.271 231.172 192.271Z" fill="#2E3130"/>
<path d="M308.53 170.461C308.53 178.696 301.86 185.371 293.64 185.361L49.3961 185.103C44.4353 185.103 40.4141 181.07 40.4141 176.094V9.81703C40.4141 4.842 44.4353 0.806763 49.3961 0.806763H299.549C304.509 0.806763 308.53 4.842 308.53 9.81703V105.489V170.461Z" fill="white"/>
<path d="M308.534 15.0762H40.4182C40.2475 15.0762 40.1094 14.938 40.1094 14.767C40.1094 14.596 40.2475 14.4579 40.4182 14.4579H308.534C308.705 14.4579 308.843 14.596 308.843 14.767C308.843 14.938 308.705 15.0762 308.534 15.0762Z" fill="#2E3130"/>
<path d="M48.6299 6.20163C47.4341 6.20163 46.4612 7.17922 46.4612 8.37874C46.4612 9.58009 47.4341 10.5558 48.6299 10.5558C49.8257 10.5558 50.7985 9.58009 50.7985 8.37874C50.7985 7.17922 49.8257 6.20163 48.6299 6.20163ZM48.6299 11.1758C47.0936 11.1758 45.8438 9.92124 45.8438 8.37874C45.8438 6.83808 47.0936 5.58353 48.6299 5.58353C50.1661 5.58353 51.4163 6.83808 51.4163 8.37874C51.4163 9.92124 50.1661 11.1758 48.6299 11.1758Z" fill="#2E3130"/>
<path d="M55.8606 6.20163C54.6648 6.20163 53.692 7.17922 53.692 8.37874C53.692 9.58009 54.6648 10.5558 55.8606 10.5558C57.0563 10.5558 58.0291 9.58009 58.0291 8.37874C58.0291 7.17922 57.0563 6.20163 55.8606 6.20163ZM55.8606 11.1758C54.3244 11.1758 53.0742 9.92124 53.0742 8.37874C53.0742 6.83808 54.3244 5.58353 55.8606 5.58353C57.3967 5.58353 58.6469 6.83808 58.6469 8.37874C58.6469 9.92124 57.3967 11.1758 55.8606 11.1758Z" fill="#2E3130"/>
<path d="M63.0909 6.20163C61.8951 6.20163 60.9223 7.17922 60.9223 8.37874C60.9223 9.58009 61.8951 10.5558 63.0909 10.5558C64.2866 10.5558 65.2596 9.58009 65.2596 8.37874C65.2596 7.17922 64.2866 6.20163 63.0909 6.20163ZM63.0909 11.1758C61.5547 11.1758 60.3047 9.92124 60.3047 8.37874C60.3047 6.83808 61.5547 5.58353 63.0909 5.58353C64.627 5.58353 65.8772 6.83808 65.8772 8.37874C65.8772 9.92124 64.627 11.1758 63.0909 11.1758Z" fill="#2E3130"/>
<path d="M287.303 185.689L49.3999 185.416C44.2773 185.416 40.1094 181.235 40.1094 176.096V9.81874C40.1094 4.68153 44.2773 0.50029 49.4001 0.50029H299.552C304.676 0.50029 308.843 4.68153 308.843 9.81874V94.8688C308.843 95.0387 308.705 95.1777 308.534 95.1777C308.364 95.1777 308.226 95.0387 308.226 94.8688V9.81874C308.226 5.02139 304.334 1.11859 299.552 1.11859H49.4001C44.6176 1.11859 40.727 5.02139 40.727 9.81874V176.096C40.727 180.894 44.6176 184.796 49.4001 184.796L287.303 185.07C287.474 185.07 287.612 185.209 287.612 185.381C287.612 185.55 287.474 185.689 287.303 185.689Z" fill="#2E3130"/>
<path d="M240.898 150.605H112.556C112.385 150.605 112.246 150.468 112.246 150.296C112.246 150.125 112.385 149.987 112.556 149.987H240.898C241.068 149.987 241.206 150.125 241.206 150.296C241.206 150.468 241.068 150.605 240.898 150.605Z" fill="#2E3130"/>
<path d="M351.703 91.8986L352.531 92.8866C361.888 104.071 367.193 118.103 367.58 132.7C368.483 166.698 370.04 229.396 369.845 251.126C369.816 254.412 367.15 257.057 363.873 257.057H329.891C327.591 257.057 326.304 254.394 327.732 252.584L332.717 246.255L339.212 169.053L313.019 253.057C312.175 255.454 309.913 257.057 307.377 257.057H271.137C268.762 257.057 267.501 254.241 269.08 252.46L275.783 244.904L324.206 114.799L351.703 91.8986Z" fill="white"/>
<path d="M339.208 168.742C339.229 168.742 339.249 168.743 339.27 168.747C339.424 168.777 339.529 168.919 339.516 169.076L333.021 246.279C333.016 246.339 332.993 246.396 332.957 246.444L327.971 252.774C327.376 253.529 327.27 254.497 327.689 255.365C328.107 256.229 328.928 256.745 329.888 256.745H363.871C366.963 256.745 369.504 254.222 369.532 251.121C369.724 229.513 368.197 167.656 367.269 132.706C366.884 118.241 361.564 104.17 352.29 93.0837L351.661 92.3318L324.463 114.982L276.069 245.01C276.056 245.047 276.035 245.079 276.01 245.109L269.307 252.664C268.658 253.396 268.504 254.406 268.904 255.299C269.304 256.191 270.159 256.745 271.132 256.745H307.375C309.775 256.745 311.923 255.22 312.723 252.951L338.913 168.958C338.954 168.827 339.077 168.742 339.208 168.742ZM363.871 257.363H329.888C328.705 257.363 327.65 256.702 327.134 255.635C326.616 254.566 326.75 253.322 327.486 252.391L332.413 246.134L338.664 171.833L313.311 253.146C312.42 255.674 310.036 257.363 307.375 257.363H271.132C269.913 257.363 268.843 256.669 268.342 255.553C267.839 254.434 268.034 253.17 268.845 252.253L275.509 244.741L323.914 114.689C323.932 114.638 323.965 114.595 324.006 114.56L351.502 91.6589C351.633 91.5499 351.828 91.5684 351.936 91.6979L352.765 92.6861C362.129 103.878 367.499 118.086 367.887 132.69C368.813 167.644 370.343 229.509 370.15 251.127C370.119 254.566 367.302 257.363 363.871 257.363Z" fill="#2E3130"/>
<path d="M313.565 247.758C313.561 247.758 313.556 247.758 313.552 247.758C301.854 247.262 290.019 246.373 278.376 245.112C278.208 245.094 278.086 244.941 278.103 244.771C278.121 244.601 278.279 244.477 278.443 244.497C290.072 245.755 301.892 246.646 313.578 247.139C313.749 247.147 313.88 247.29 313.874 247.462C313.867 247.627 313.729 247.758 313.565 247.758Z" fill="#2E3130"/>
<path d="M358.03 247.484C350.281 247.484 342.511 247.272 334.816 246.849C334.647 246.84 334.516 246.694 334.524 246.524C334.534 246.352 334.685 246.215 334.849 246.232C346.229 246.857 357.774 247.021 369.164 246.719C369.32 246.713 369.477 246.849 369.479 247.02C369.484 247.191 369.348 247.333 369.179 247.337C365.477 247.435 361.756 247.484 358.03 247.484Z" fill="#2E3130"/>
<path d="M339.368 168.322C339.341 168.322 339.316 168.318 339.289 168.311C339.125 168.267 339.025 168.099 339.069 167.933L346.254 140.523C347.037 137.528 348.016 134.473 350.559 132.877C350.704 132.786 350.895 132.829 350.985 132.976C351.076 133.12 351.032 133.311 350.887 133.401C348.533 134.878 347.634 137.687 346.851 140.68L339.666 168.091C339.63 168.23 339.505 168.322 339.368 168.322Z" fill="#2E3130"/>
<path d="M321.652 38.2925C321.652 38.2925 317.38 52.2324 322.912 53.4262C327.184 54.3474 332.284 52.2019 332.42 51.8823C332.553 51.5627 334.447 42.8162 334.447 42.8162L321.652 38.2925Z" fill="white"/>
<path d="M321.859 38.6964C321.38 40.3781 319.244 48.4525 321.199 51.7924C321.627 52.5239 322.209 52.959 322.979 53.126C326.947 53.9821 331.641 52.084 332.153 51.7194C332.317 51.1409 333.366 46.3545 334.09 43.0194L321.859 38.6964ZM325.17 53.9609C324.383 53.9609 323.597 53.8927 322.85 53.7304C321.913 53.5281 321.178 52.9825 320.666 52.1052C318.351 48.1515 321.235 38.6093 321.359 38.2048C321.383 38.1225 321.439 38.0566 321.516 38.019C321.592 37.9813 321.678 37.9743 321.756 38.0025L334.552 42.5278C334.7 42.5795 334.785 42.7324 334.752 42.8853C334.435 44.3506 332.845 51.6748 332.707 52.0041C332.495 52.5097 328.804 53.9609 325.17 53.9609Z" fill="#2E3130"/>
<path d="M324.637 50.0602L325.995 60.7109L337.024 60.2638L333.994 44.4297L324.637 50.0602Z" fill="white"/>
<path d="M325.994 61.0195C325.841 61.0195 325.708 60.9059 325.689 60.7496L324.335 50.0994C324.311 49.9313 324.432 49.775 324.6 49.7537C324.77 49.7324 324.924 49.8532 324.947 50.0213L326.268 60.3897L336.657 59.9682L333.693 44.4878C333.66 44.3197 333.768 44.1587 333.936 44.1256C334.104 44.0924 334.265 44.2037 334.298 44.3718L337.33 60.205C337.347 60.2926 337.326 60.385 337.269 60.456C337.212 60.527 337.127 60.5696 337.04 60.572L326.008 61.0195C326.004 61.0195 325.999 61.0195 325.994 61.0195Z" fill="#2E3130"/>
<path d="M332.715 32.7976C332.715 32.7976 331.253 29.0585 325.111 29.1231C322.802 29.1469 321.486 28.9534 320.742 28.705C319.23 28.1961 317.553 28.9486 317.043 30.4634C316.687 31.5194 316.916 32.8549 318.559 34.427C318.559 34.427 315.967 36.7469 320.069 38.9377C320.069 38.9377 318.931 42.2539 324.026 42.985C324.026 42.985 324.813 41.3245 326.418 42.2587C327.365 42.8058 327.446 45.011 325.757 46.9653C325.757 46.9653 328.441 52.3385 333.268 52.2788C338.093 52.2215 338.1 46.5472 338.136 44.6837C338.174 42.8201 340.828 37.7885 337.654 34.0662C335.748 31.8276 332.715 32.7976 332.715 32.7976Z" fill="#2E3130"/>
<path d="M326.048 43.2513C326.048 43.2513 324.409 42.2447 324.673 45.4141L326.048 43.2513Z" fill="white"/>
<path d="M324.673 45.7227C324.515 45.7227 324.379 45.6007 324.366 45.4397C324.253 44.0824 324.46 43.2634 324.995 42.9344C325.438 42.6607 325.966 42.8401 326.21 42.9897C326.354 43.0794 326.4 43.268 326.313 43.4153C326.221 43.5602 326.033 43.6062 325.888 43.5165C325.881 43.5119 325.541 43.3209 325.316 43.4613C325.174 43.551 324.857 43.9145 324.981 45.3891C324.995 45.5593 324.869 45.7089 324.699 45.7227C324.689 45.7227 324.683 45.7227 324.673 45.7227Z" fill="#2E3130"/>
<path d="M302.606 76.1589L299.574 74.9621L294.996 79.8365C294.996 79.8365 280.278 69.7657 272.884 63.104C265.49 56.4445 258.42 52.5701 256.66 52.9996C254.901 53.4313 255.564 55.8853 259.24 58.0059C259.24 58.0059 256.035 58.8895 256.66 61.5918C256.66 61.5918 254.378 61.6432 254.894 64.9204C254.894 64.9204 252.288 66.323 253.451 69.231C254.615 72.1391 257.839 72.2219 257.839 72.2219C257.839 72.2219 266.604 82.5844 275.823 91.6166C284.286 99.9113 297.097 101.91 307.626 96.493C310.911 94.8036 313.959 91.6739 316.063 89.3557L302.606 76.1589Z" fill="white"/>
<path d="M256.98 53.2751C256.887 53.2751 256.804 53.2841 256.732 53.302C256.323 53.4005 256.093 53.6199 256.046 53.9535C255.928 54.7775 256.925 56.3158 259.392 57.7398C259.502 57.8025 259.56 57.9234 259.544 58.0465C259.529 58.1697 259.441 58.2727 259.321 58.3063C259.2 58.3399 256.41 59.1459 256.96 61.5216C256.98 61.6134 256.96 61.7074 256.902 61.7813C256.846 61.8552 256.759 61.9 256.665 61.9C256.643 61.9022 256.022 61.9291 255.579 62.4687C255.154 62.9814 255.027 63.792 255.197 64.8734C255.217 65.0033 255.154 65.1309 255.038 65.1936C254.944 65.2451 252.693 66.5079 253.737 69.1165C254.808 71.7966 257.725 71.9108 257.848 71.913C257.937 71.9153 258.02 71.9556 258.076 72.0228C258.163 72.1257 266.936 82.4776 276.038 91.3958C284.442 99.6322 297.082 101.57 307.484 96.2183C310.625 94.6032 313.604 91.587 315.634 89.3681L302.435 76.4248L299.655 75.3276L295.22 80.0498C295.115 80.1595 294.945 80.1797 294.822 80.0923C294.675 79.9916 280.001 69.9337 272.678 63.3352C265.595 56.9561 258.921 53.2751 256.98 53.2751ZM295.122 99.8359C288 99.8359 280.964 97.0875 275.604 91.838C266.967 83.3726 258.626 73.6214 257.689 72.5243C257.023 72.4706 254.26 72.0899 253.165 69.3471C252.108 66.7027 253.947 65.1847 254.557 64.766C254.405 63.5927 254.593 62.6859 255.112 62.0634C255.496 61.5999 255.977 61.4118 256.299 61.3357C256.06 59.5378 257.407 58.4361 258.527 57.9368C256.464 56.6158 255.264 55.0552 255.434 53.8662C255.519 53.2751 255.928 52.8609 256.587 52.6996C258.523 52.2272 265.778 56.2889 273.092 62.8762C279.896 69.0045 293.097 78.1533 294.952 79.4318L299.351 74.7499C299.436 74.6581 299.572 74.629 299.688 74.6738L302.719 75.8717C302.757 75.8874 302.793 75.9098 302.822 75.9389L316.28 89.135C316.396 89.2514 316.403 89.4413 316.291 89.5642C314.228 91.8355 311.101 95.054 307.766 96.7686C303.758 98.8304 299.424 99.8359 295.122 99.8359Z" fill="#2E3130"/>
<path d="M257.942 72.6738C257.844 72.6738 257.748 72.6268 257.688 72.5421C256.749 71.189 255.871 69.7681 255.084 68.3172C255.003 68.1685 255.058 67.9803 255.208 67.8975C255.357 67.8166 255.544 67.8712 255.627 68.0217C256.403 69.452 257.267 70.854 258.195 72.1883C258.293 72.3276 258.257 72.5214 258.118 72.6174C258.064 72.655 258.004 72.6738 257.942 72.6738Z" fill="#2E3130"/>
<path d="M258.24 66.5C258.167 66.5 258.095 66.4755 258.035 66.4247C257.149 65.6523 255.976 65.2417 254.799 65.2925C254.795 65.2944 254.789 65.2944 254.785 65.2944C254.62 65.2944 254.483 65.1645 254.477 64.9987C254.468 64.8273 254.599 64.6841 254.77 64.6747C256.094 64.6182 257.437 65.0816 258.441 65.9575C258.571 66.0705 258.584 66.2664 258.471 66.3945C258.411 66.4642 258.324 66.5 258.24 66.5Z" fill="#2E3130"/>
<path d="M260.746 63.8789C260.67 63.8789 260.592 63.8504 260.532 63.7934C259.48 62.7869 258.105 62.1298 256.664 61.9418C256.495 61.919 256.376 61.7633 256.397 61.5943C256.42 61.4253 256.575 61.3037 256.744 61.3284C258.315 61.5335 259.811 62.2495 260.958 63.3453C261.081 63.463 261.087 63.6586 260.97 63.7821C260.909 63.8466 260.826 63.8789 260.746 63.8789Z" fill="#2E3130"/>
<path d="M262.823 60.6191C262.758 60.6191 262.689 60.5962 262.632 60.5522C261.523 59.6785 260.307 58.9462 259.017 58.3745C258.86 58.3057 258.79 58.1222 258.858 57.9673C258.927 57.8105 259.108 57.7398 259.267 57.8086C260.603 58.3994 261.864 59.1603 263.015 60.0666C263.149 60.1717 263.172 60.3668 263.067 60.5006C263.006 60.5771 262.914 60.6191 262.823 60.6191Z" fill="#2E3130"/>
<path d="M335.877 28.9165C334.48 28.1742 333.186 27.8395 332.501 28.7353C331.817 29.6312 332.345 31.2794 333.538 31.9764C332.709 31.4454 331.853 30.9019 330.936 30.6905C330.016 30.4792 329.016 30.6855 328.662 31.4102C328.351 32.0468 328.617 32.925 329.122 33.612C329.371 33.9517 329.667 34.2537 329.991 34.5355C329.378 34.3418 328.687 34.4298 328.311 34.8324C327.668 35.5194 327.658 36.6039 328.308 37.535C328.858 38.3201 329.855 39.1731 330.81 39.9205C331.87 40.8037 332.694 41.4252 334.206 42.4846C332.491 42.2179 329.539 41.921 329.783 44.0272C330.124 46.9562 343.184 48.6648 345.219 49.9154C349.034 52.2581 351.989 53.9707 351.989 53.9707C353.739 53.8434 360.451 45.2451 361.519 42.3789C359.916 41.0528 346.457 32.228 340.951 28.9593C340.027 28.4107 339.059 27.8521 338.057 27.7162C337.055 27.5829 336.012 28.0106 335.877 28.9165Z" fill="white"/>
<path d="M332.186 42.6062C331.454 42.6062 330.733 42.712 330.358 43.0772C330.134 43.2912 330.049 43.5909 330.094 43.9914C330.295 45.7114 336.334 47.1796 340.329 48.1517C342.745 48.7385 344.653 49.2019 345.387 49.6527C348.781 51.7354 351.521 53.3394 352.054 53.6496C353.623 53.2711 359.822 45.651 361.152 42.4803C358.927 40.7703 346.186 32.4244 340.799 29.226C339.994 28.75 338.994 28.1557 338.021 28.0248C337.204 27.9114 336.296 28.2363 336.188 28.9616C336.173 29.0623 336.11 29.1479 336.022 29.1933C335.932 29.2386 335.826 29.2386 335.738 29.1908C334.212 28.3798 333.234 28.2917 332.751 28.9238C332.53 29.2134 332.46 29.6264 332.55 30.0873C332.668 30.6892 333.043 31.2584 333.541 31.6084C333.596 31.6462 333.654 31.6815 333.709 31.7167C333.85 31.8074 333.893 31.9937 333.807 32.1373C333.717 32.2808 333.533 32.3287 333.387 32.2456C333.325 32.2078 333.262 32.1675 333.201 32.1272C332.485 31.6689 331.685 31.1803 330.871 30.9939C330.154 30.8277 329.244 30.931 328.945 31.5455C328.714 32.0214 328.882 32.7593 329.375 33.4292C329.584 33.7163 329.855 34.0009 330.2 34.3031C330.308 34.3988 330.335 34.56 330.265 34.6884C330.192 34.8143 330.041 34.8748 329.903 34.832C329.372 34.6632 328.814 34.7514 328.54 35.0435C327.995 35.6278 328.007 36.5571 328.565 37.3579C329.131 38.1663 330.23 39.0704 331.007 39.6773C332.055 40.5537 332.875 41.1708 334.388 42.231C334.506 42.3141 334.551 42.4677 334.496 42.6012C334.443 42.7347 334.308 42.8127 334.164 42.7901C333.775 42.7296 332.975 42.6062 332.186 42.6062ZM351.994 54.2812C351.938 54.2812 351.886 54.2671 351.84 54.2397C351.81 54.2223 348.839 52.4959 345.063 50.179C344.411 49.7811 342.453 49.3026 340.185 48.7511C334.262 47.3131 329.712 46.0539 329.483 44.0619C329.413 43.465 329.564 42.984 329.928 42.6314C330.589 41.9943 331.846 41.9313 333.033 42.027C332.088 41.3496 331.419 40.8282 330.617 40.1609C329.75 39.4784 328.666 38.5793 328.06 37.713C327.329 36.6653 327.341 35.4238 328.088 34.6204C328.344 34.3484 328.729 34.1822 329.154 34.1394C329.053 34.0261 328.96 33.9102 328.877 33.7969C328.377 33.1169 327.987 32.0995 328.389 31.276C328.84 30.3492 330.031 30.1629 331.009 30.3895C331.394 30.4777 331.766 30.6212 332.125 30.795C332.045 30.6036 331.985 30.4071 331.944 30.2082C331.819 29.571 331.929 28.9817 332.261 28.5486C333.159 27.375 334.823 28.0399 335.69 28.4705C336.062 27.6168 337.143 27.2818 338.104 27.4103C339.202 27.5588 340.261 28.1884 341.113 28.6946C346.682 31.9988 360.102 40.8031 361.721 42.1403C361.824 42.226 361.859 42.3645 361.814 42.4879C360.73 45.3966 354 54.1359 352.016 54.2802C352.009 54.281 352.001 54.2812 351.994 54.2812Z" fill="#2E3130"/>
<path d="M340.283 46.582C340.228 46.582 340.173 46.5677 340.123 46.5367C340.078 46.5104 335.563 43.7666 334.035 42.7421C333.894 42.6466 333.856 42.4532 333.949 42.3123C334.045 42.1714 334.238 42.1332 334.378 42.2287C335.894 43.246 340.398 45.9803 340.443 46.0089C340.588 46.0973 340.636 46.2859 340.548 46.434C340.488 46.5295 340.386 46.582 340.283 46.582Z" fill="#2E3130"/>
<path d="M337.526 40.5117C337.46 40.5117 337.391 40.4904 337.337 40.4453C335.176 38.7572 332.409 36.7323 330.186 35.1034L329.782 34.8094C329.644 34.7075 329.616 34.5154 329.715 34.3755C329.815 34.238 330.009 34.2072 330.146 34.3091L330.551 34.6055C332.778 36.2344 335.55 38.264 337.716 39.9569C337.85 40.0636 337.874 40.258 337.77 40.3908C337.708 40.469 337.619 40.5117 337.526 40.5117Z" fill="#2E3130"/>
<path d="M340.111 36.7852C340.051 36.7852 339.989 36.7685 339.937 36.7303L333.515 32.2667C333.374 32.1688 333.341 31.9779 333.439 31.8371C333.534 31.6962 333.727 31.6604 333.868 31.7583L340.287 36.2218C340.427 36.3197 340.463 36.513 340.366 36.6539C340.306 36.7398 340.208 36.7852 340.111 36.7852Z" fill="#2E3130"/>
<path d="M342.064 33.3652C341.999 33.3652 341.937 33.3461 341.882 33.3077C339.999 31.9403 338.043 30.6257 336.06 29.4047C335.916 29.3135 335.871 29.124 335.959 28.9777C336.05 28.8337 336.24 28.7858 336.386 28.8769C338.38 30.1075 340.349 31.4293 342.246 32.8063C342.382 32.9071 342.413 33.1014 342.313 33.2381C342.253 33.3221 342.157 33.3652 342.064 33.3652Z" fill="#2E3130"/>
<path d="M362.302 109.561C362.179 109.561 362.066 109.488 362.015 109.367L358.35 100.299C358.287 100.14 358.363 99.9602 358.522 99.8956C358.68 99.8325 358.862 99.9082 358.925 100.067L362.587 109.135C362.653 109.294 362.577 109.474 362.418 109.538C362.381 109.553 362.34 109.561 362.302 109.561Z" fill="#2E3130"/>
<path d="M355.063 37.3605C355.063 37.3605 353.561 43.9824 345.98 50.6988C348.421 53.0286 357.924 60.5319 357.924 60.5319C357.924 60.5319 336.65 59.7118 330.577 59.4846C320.124 59.0933 311.656 61.7358 306.604 66.7803L294.59 78.1306L278.719 66.6346L264.988 80.9103L278.044 93.8826C287.693 103.002 302.753 103.009 312.411 93.8975L317.952 88.8716L319.398 119.393L366.324 112.599L359.799 81.0035C359.799 81.0035 382.413 82.3057 383.647 69.9201C385.476 51.573 355.063 37.3605 355.063 37.3605Z" fill="#10856D"/>
<path d="M370.758 61.3496C370.756 61.3496 370.75 61.3496 370.745 61.3493L357.916 60.8436C357.746 60.8369 357.612 60.6932 357.617 60.5225C357.625 60.3515 357.784 60.2199 357.939 60.2256L370.771 60.7313C370.941 60.7378 371.074 60.8817 371.067 61.0524C371.061 61.2191 370.925 61.3496 370.758 61.3496Z" fill="#2E3130"/>
<path d="M317.951 89.1816C317.79 89.1816 317.653 89.0536 317.644 88.8882L317.415 84.4056C317.406 84.235 317.536 84.0894 317.707 84.0808C317.877 84.0664 318.021 84.2028 318.03 84.3736L318.261 88.8562C318.27 89.027 318.138 89.1724 317.969 89.1814C317.963 89.1816 317.958 89.1816 317.951 89.1816Z" fill="#2E3130"/>
<path d="M85.0682 257.141H21.5559C21.5559 257.141 -0.265635 249.003 14.637 226.375C15.4715 225.108 17.4372 225.794 17.289 227.305C16.5835 234.5 16.8699 246.453 25.5758 250.781V248.392C25.5758 242.896 27.2245 237.527 30.3076 232.983L51.2657 202.093C51.2657 202.093 34.3802 196.061 62.9792 177.096C62.9792 177.096 62.1772 167.343 73.9325 171.58C73.9325 171.58 93.7131 159.113 97.4843 160.288C101.257 161.464 106.792 168.38 89.3118 190.3L85.9941 197.554C85.4175 198.816 85.1186 200.188 85.1186 201.577V246.512C85.1186 248.448 86.3214 250.143 88.1049 250.883C89.5612 251.489 90.7405 252.631 89.4138 254.778C88.4888 256.272 86.8219 257.141 85.0682 257.141Z" fill="white"/>
<path d="M21.6268 256.782H85.0721C86.7286 256.782 88.2772 255.942 89.1148 254.59C89.591 253.821 89.7433 253.154 89.5683 252.612C89.3869 252.049 88.8507 251.578 87.9727 251.215C86.0239 250.405 84.7656 248.56 84.7656 246.512V201.577C84.7656 200.126 85.0714 198.723 85.6743 197.405L88.9916 190.151C89.0046 190.125 89.0192 190.099 89.037 190.077C100.743 175.399 101.842 167.884 100.704 164.166C99.9391 161.671 98.1264 160.863 97.3828 160.631C94.4168 159.699 79.5896 168.439 74.1264 171.883C74.0337 171.941 73.919 171.954 73.8155 171.917C69.9698 170.531 67.1182 170.518 65.3401 171.879C63.0888 173.604 63.3359 177.033 63.3388 177.067C63.3488 177.197 63.2883 177.322 63.1799 177.395C48.8225 186.916 46.3033 192.986 46.7184 196.402C47.1812 200.211 51.3471 201.743 51.3894 201.757C51.4936 201.794 51.5744 201.877 51.6086 201.983C51.6429 202.088 51.6266 202.203 51.5647 202.294L30.6066 233.185C27.5511 237.688 25.9363 242.947 25.9363 248.393V250.782C25.9363 250.905 25.8725 251.02 25.7677 251.085C25.6621 251.15 25.5317 251.156 25.4209 251.101C16.4447 246.639 16.2531 234.256 16.9378 227.271C16.999 226.643 16.5907 226.269 16.2223 226.139C15.8502 226.007 15.2895 226.04 14.939 226.572C10.2182 233.74 8.73272 240.161 10.5237 245.657C12.9756 253.178 20.8713 256.482 21.6268 256.782ZM85.0721 257.498H21.5598C21.5173 257.498 21.4752 257.49 21.4354 257.475C21.3466 257.443 12.514 254.066 9.84561 245.878C7.98351 240.166 9.49651 233.537 14.343 226.179C14.811 225.469 15.6613 225.181 16.4607 225.464C17.253 225.746 17.7306 226.499 17.648 227.341C16.995 234.002 17.1388 245.699 25.2226 250.189V248.393C25.2226 242.804 26.8803 237.405 30.0163 232.782L50.7275 202.257C49.5704 201.734 46.438 200.013 46.01 196.488C45.374 191.255 50.9611 184.668 62.6163 176.911C62.5909 176.072 62.6635 173.035 64.9027 171.315C66.8582 169.814 69.8827 169.77 73.8931 171.185C76.5239 169.533 93.8514 158.784 97.5951 159.947C98.4471 160.214 100.522 161.135 101.386 163.957C102.575 167.837 101.496 175.591 89.6218 190.489L86.3236 197.704C85.7631 198.927 85.4791 200.23 85.4791 201.577V246.512C85.4791 248.27 86.565 249.857 88.2449 250.554C89.327 251.002 89.9992 251.621 90.2487 252.393C90.4901 253.144 90.3119 254.011 89.7206 254.967C88.7551 256.528 86.9732 257.498 85.0721 257.498Z" fill="#2E3130"/>
<path d="M84.6582 256.961C84.6298 256.961 84.6017 256.958 84.5731 256.951C84.3818 256.904 84.2644 256.711 84.311 256.518C84.6331 255.199 83.5487 253.853 82.3594 253.363C81.0456 252.823 79.5238 252.961 78.0742 253.193L77.5278 253.284C76.1962 253.505 74.8188 253.732 73.4514 253.5C73.3092 253.475 73.1956 253.368 73.1632 253.229C73.1308 253.087 73.1857 252.941 73.303 252.857C77.756 249.654 80.9926 244.74 82.1829 239.374C82.6658 237.196 82.7311 235.327 82.3822 233.658C81.9677 231.677 80.9073 229.976 79.4728 228.99C76.6859 227.072 72.9416 227.851 70.2922 228.842C65.6189 230.59 61.4988 233.577 58.3775 237.48C58.2549 237.634 58.0308 237.66 57.8761 237.535C57.7221 237.412 57.6973 237.186 57.8207 237.034C61.0222 233.029 65.2482 229.965 70.0426 228.172C72.8505 227.122 76.8357 226.309 79.8771 228.401C81.4609 229.49 82.6286 231.353 83.0805 233.512C83.4507 235.281 83.3848 237.25 82.8798 239.53C81.7192 244.761 78.6726 249.577 74.4622 252.88C75.4408 252.906 76.4374 252.74 77.411 252.578L77.9619 252.487C79.5136 252.239 81.1543 252.094 82.6304 252.703C84.1254 253.318 85.4217 254.978 85.0045 256.688C84.9645 256.852 84.8187 256.961 84.6582 256.961Z" fill="#2E3130"/>
<path d="M75.8569 227.518C75.8099 227.518 75.7621 227.508 75.7161 227.488C75.535 227.41 75.4513 227.2 75.529 227.019L79.6932 217.309C79.7713 217.127 79.9811 217.044 80.162 217.122C80.3431 217.2 80.4267 217.411 80.3491 217.591L76.1848 227.302C76.1266 227.436 75.9949 227.518 75.8569 227.518Z" fill="#2E3130"/>
<path d="M100.179 168.471C100.164 168.471 100.148 168.469 100.132 168.467C98.5327 168.252 97.0229 167.414 95.991 166.171C94.9575 164.928 94.41 163.289 94.4878 161.673C94.4975 161.475 94.6659 161.319 94.862 161.332C95.058 161.342 95.2102 161.509 95.2005 161.707C95.1325 163.147 95.6201 164.607 96.5386 165.714C97.4587 166.82 98.8032 167.567 100.227 167.758C100.422 167.786 100.558 167.964 100.532 168.161C100.507 168.341 100.355 168.471 100.179 168.471Z" fill="#2E3130"/>
<path d="M71.606 210.588C71.1177 210.588 70.6345 210.547 70.1608 210.466C67.0397 209.926 64.4958 207.536 63.9748 204.654C63.5322 202.208 64.5387 199.735 65.4648 197.854C67.5498 193.619 70.3136 189.796 73.6793 186.492C73.8209 186.354 74.0464 186.356 74.1839 186.497C74.3219 186.638 74.3198 186.865 74.179 187.003C70.8707 190.25 68.154 194.007 66.1047 198.171C65.2272 199.952 64.2717 202.288 64.6774 204.527C65.1384 207.078 67.4954 209.278 70.2822 209.762C72.8316 210.202 75.6984 209.327 77.9533 207.417C79.8898 205.778 81.4178 203.43 82.4949 200.439C83.4609 197.757 83.9576 194.893 84.4377 192.121C84.4714 191.928 84.6566 191.798 84.8503 191.831C85.0444 191.865 85.1748 192.05 85.1409 192.244C84.6554 195.045 84.1534 197.94 83.1661 200.681C82.0462 203.792 80.4473 206.242 78.414 207.964C76.4152 209.655 73.956 210.588 71.606 210.588Z" fill="#2E3130"/>
<path d="M51.7746 201.789C51.701 201.789 51.6265 201.766 51.5627 201.719C51.4041 201.601 51.3707 201.379 51.4882 201.219L59.8199 189.93C59.9367 189.773 60.1601 189.739 60.319 189.855C60.4776 189.974 60.511 190.198 60.3935 190.355L52.0616 201.645C51.992 201.739 51.8839 201.789 51.7746 201.789Z" fill="#2E3130"/>
<path d="M63.287 188.029C63.2763 188.029 63.2655 188.029 63.2546 188.028C61.6653 187.883 60.2241 186.845 59.5823 185.379C58.9403 183.916 59.1518 182.149 60.1209 180.876C60.9506 179.789 62.2755 179.143 63.6296 179.129L62.9619 177.928C62.8662 177.756 62.9282 177.538 63.1003 177.443C63.2728 177.347 63.4895 177.407 63.5857 177.581L64.5726 179.356C64.6387 179.474 64.6314 179.62 64.5541 179.732C64.4767 179.844 64.3444 179.901 64.2078 179.883C62.9007 179.685 61.4891 180.26 60.6882 181.311C59.8868 182.361 59.7047 183.882 60.2359 185.092C60.7663 186.303 62.005 187.197 63.3188 187.315C63.515 187.333 63.6599 187.507 63.6423 187.703C63.6254 187.89 63.4698 188.029 63.287 188.029Z" fill="#2E3130"/>
<path d="M79.5953 185.225C79.5835 185.225 79.5717 185.225 79.5597 185.223C79.3635 185.204 79.2203 185.028 79.2399 184.832C79.7019 180.188 77.8223 175.381 74.3351 172.291C74.1877 172.16 74.1738 171.934 74.3045 171.787C74.4352 171.639 74.6614 171.626 74.8083 171.756C78.4641 174.997 80.4345 180.033 79.95 184.903C79.9316 185.088 79.7764 185.225 79.5953 185.225Z" fill="#2E3130"/>
<path d="M76.0879 206.992C75.8942 206.992 75.7352 206.836 75.731 206.642C75.6071 200.772 78.0683 194.854 82.3151 190.814C82.4579 190.677 82.6841 190.684 82.8193 190.827C82.9553 190.969 82.9493 191.195 82.8064 191.331C78.7031 195.237 76.3249 200.956 76.4448 206.627C76.449 206.825 76.2925 206.987 76.0955 206.992C76.0928 206.992 76.0903 206.992 76.0879 206.992Z" fill="#2E3130"/>
<path d="M166.454 12.5512L104.278 120.501C100.023 127.889 105.346 137.123 113.862 137.123H238.209C246.726 137.123 252.049 127.889 247.792 120.501L185.619 12.5512C181.36 5.15857 170.71 5.15857 166.454 12.5512Z" fill="#10856D"/>
<path d="M171.343 21.6339L114.577 120.192C112.493 123.811 115.1 128.332 119.27 128.332H232.799C236.97 128.332 239.577 123.811 237.493 120.192L180.728 21.6339C178.643 18.0135 173.426 18.0135 171.343 21.6339Z" fill="white"/>
<path d="M275.565 51.9766C275.535 51.9766 275.502 51.9723 275.472 51.9618C275.309 51.9092 275.22 51.7366 275.271 51.5725L277.403 44.8942C277.429 44.8163 277.483 44.7511 277.557 44.7132C277.63 44.6774 277.714 44.669 277.792 44.6942C280.656 45.6182 283.704 45.3656 286.379 43.9892C289.058 42.6085 291.039 40.2638 291.957 37.3866C293.853 31.4492 290.581 25.0698 284.663 23.1651C280.122 21.7002 275.132 23.2766 272.251 27.0862C272.148 27.2209 271.955 27.2482 271.819 27.1451C271.682 27.042 271.655 26.8483 271.758 26.7115C274.798 22.6936 280.061 21.0309 284.852 22.5758C291.092 24.5858 294.544 31.3145 292.544 37.574C291.575 40.609 289.487 43.082 286.663 44.5385C283.933 45.9444 280.832 46.2391 277.899 45.3741L275.861 51.7619C275.819 51.8924 275.697 51.9766 275.565 51.9766Z" fill="#2E3130"/>
<path d="M273.73 57.7578C273.7 57.7578 273.668 57.7538 273.637 57.7419C273.474 57.6903 273.385 57.5157 273.436 57.353L274.326 54.5709C274.377 54.4082 274.55 54.3169 274.714 54.3705C274.877 54.424 274.966 54.5967 274.912 54.7594L274.025 57.5415C273.983 57.6745 273.862 57.7578 273.73 57.7578Z" fill="#2E3130"/>
<path d="M235.852 59.3105C235.822 59.3105 235.789 59.305 235.758 59.2958C235.596 59.2442 235.506 59.0691 235.557 58.9069L237.362 53.258C237.386 53.1788 237.443 53.1143 237.515 53.0774C237.587 53.0387 237.673 53.0313 237.75 53.0571C240.159 53.8331 242.727 53.623 244.979 52.4637C247.233 51.3007 248.9 49.3287 249.672 46.9051C251.268 41.9087 248.513 36.5381 243.533 34.9346C239.71 33.7035 235.511 35.0305 233.086 38.2355C232.983 38.3701 232.79 38.3977 232.654 38.2945C232.518 38.1913 232.49 37.9978 232.595 37.8614C235.178 34.4462 239.651 33.0345 243.722 34.3467C249.027 36.0534 251.959 41.7723 250.261 47.0931C249.439 49.6733 247.662 51.7762 245.261 53.0129C242.955 54.2017 240.339 54.4542 237.857 53.7372L236.146 59.0949C236.105 59.2276 235.982 59.3105 235.852 59.3105Z" fill="#2E3130"/>
<path d="M234.301 64.2031C234.271 64.2031 234.238 64.1996 234.207 64.1892C234.045 64.137 233.955 63.9628 234.007 63.8009L234.758 61.4467C234.81 61.2831 234.982 61.1925 235.147 61.2465C235.309 61.2987 235.399 61.4711 235.347 61.6348L234.596 63.989C234.554 64.1195 234.431 64.2031 234.301 64.2031Z" fill="#2E3130"/>
<path d="M279.352 154.75C279.32 154.75 279.286 154.744 279.252 154.735C279.09 154.68 279.003 154.504 279.059 154.343L281.251 147.829C281.278 147.751 281.333 147.686 281.406 147.65C281.48 147.614 281.565 147.609 281.641 147.634C284.439 148.579 287.436 148.377 290.08 147.064C292.727 145.75 294.702 143.483 295.645 140.68C297.593 134.892 294.483 128.598 288.71 126.646C284.277 125.147 279.362 126.618 276.478 130.307C276.374 130.442 276.178 130.466 276.044 130.36C275.909 130.255 275.887 130.06 275.991 129.927C279.037 126.031 284.226 124.477 288.908 126.059C295.004 128.12 298.287 134.767 296.231 140.878C295.233 143.837 293.147 146.231 290.356 147.617C287.654 148.959 284.607 149.204 281.739 148.315L279.643 154.539C279.6 154.669 279.481 154.75 279.352 154.75Z" fill="#2E3130"/>
<path d="M277.461 160.389C277.429 160.389 277.395 160.383 277.361 160.372C277.201 160.318 277.114 160.143 277.169 159.98L278.082 157.267C278.136 157.104 278.313 157.017 278.473 157.073C278.635 157.126 278.722 157.302 278.668 157.465L277.754 160.178C277.71 160.307 277.589 160.389 277.461 160.389Z" fill="#2E3130"/>
<path d="M79.0551 71.4552C81.9201 93.0938 66.7536 112.966 45.1798 115.839C23.6059 118.712 3.79449 103.5 0.929478 81.8616C-1.93539 60.2231 13.2311 40.3512 34.8049 37.4779C56.3787 34.6045 76.1902 49.8167 79.0551 71.4552Z" fill="white"/>
<path d="M55.6235 93.0625C56.5988 92.3603 57.5256 91.5767 58.3938 90.7144C58.5716 90.8562 58.7562 90.9896 58.9545 91.1104C61.6135 92.7367 65.0834 91.8927 66.7046 89.2258C68.3258 86.5588 67.4843 83.0788 64.8253 81.4525C64.627 81.3318 64.4233 81.2279 64.2172 81.1338C64.916 78.9022 65.2642 76.6103 65.2757 74.3324C65.5004 74.3057 65.7259 74.2692 65.9514 74.2144C68.9781 73.4785 70.8366 70.4212 70.1027 67.385C69.3688 64.3501 66.3203 62.4851 63.2936 63.221C63.0682 63.2758 62.8516 63.3474 62.6395 63.4274C61.589 61.4079 60.2326 59.5303 58.5925 57.8675C58.7327 57.6892 58.8666 57.5038 58.9874 57.3058C60.6086 54.6375 59.7673 51.1574 57.1083 49.5312C54.4491 47.9049 50.9793 48.7489 49.358 51.4172C49.2372 51.6153 49.1344 51.8203 49.0406 52.0267C46.8158 51.326 44.5305 50.9763 42.2589 50.965C42.2325 50.7389 42.1968 50.5128 42.1421 50.2867C41.4082 47.2519 38.3597 45.3869 35.333 46.1228C32.3064 46.8601 30.4478 49.9174 31.1817 52.9522C31.2364 53.1783 31.3076 53.396 31.3871 53.6095C30.2658 54.1951 29.1887 54.8776 28.168 55.65L30.022 62.839L33.8998 63.2687L35.8087 65.805C39.1373 63.287 43.7939 62.9134 47.57 65.2236C52.5082 68.243 54.0708 74.706 51.06 79.6592C50.3516 80.8248 49.4531 81.8037 48.4287 82.5775L49.7188 88.7104L52.933 89.1415L55.6235 93.0625Z" fill="white"/>
<path d="M49.9841 88.4339L52.982 88.8369C53.0686 88.8482 53.1461 88.8959 53.1955 88.9675L55.7059 92.6259C56.5789 91.9785 57.4117 91.2637 58.1843 90.4969C58.2959 90.3874 58.4711 90.3775 58.5933 90.4744C58.7829 90.6247 58.9564 90.7469 59.1232 90.848C60.3381 91.5923 61.7693 91.8156 63.1518 91.48C64.5364 91.1443 65.7071 90.2862 66.4487 89.0672C67.9787 86.5492 67.1818 83.2531 64.6722 81.7182C64.5041 81.6156 64.3214 81.5201 64.0973 81.4176C63.9553 81.353 63.8839 81.1929 63.9306 81.0441C64.6118 78.8673 64.9631 76.6091 64.9749 74.3326C64.9759 74.1753 65.0928 74.0447 65.2479 74.0264C65.4852 73.9983 65.694 73.9632 65.8866 73.9155C68.7429 73.2217 70.5032 70.3245 69.8105 67.4596C69.4747 66.072 68.6208 64.898 67.405 64.1551C66.1897 63.4122 64.7577 63.1875 63.3744 63.5231C63.1829 63.5709 62.9806 63.6341 62.7559 63.7183C62.6097 63.7731 62.4456 63.7113 62.3736 63.5723C61.324 61.5542 59.9808 59.7088 58.3809 58.0868C58.2714 57.9758 58.2615 57.8003 58.3577 57.6781C58.5105 57.4829 58.6297 57.3144 58.7319 57.1459C60.2616 54.6292 59.4648 51.3318 56.9551 49.7968C55.7403 49.0539 54.3099 48.8292 52.9259 49.1662C51.5416 49.5019 50.371 50.3599 49.6297 51.5789C49.5277 51.746 49.4297 51.9356 49.3296 52.1561C49.2651 52.298 49.1043 52.3696 48.956 52.3232C46.7872 51.6393 44.5363 51.2868 42.2654 51.2756C42.1095 51.2742 41.9787 51.1576 41.9602 51.0031C41.9313 50.7574 41.8963 50.5523 41.8499 50.3613C41.5142 48.9738 40.6602 47.7998 39.4444 47.0568C38.2293 46.3125 36.7973 46.0892 35.4138 46.4249C32.5572 47.12 30.7969 50.0159 31.4898 52.8822C31.5362 53.0746 31.598 53.2712 31.6842 53.5015C31.7388 53.649 31.6761 53.8119 31.5379 53.8849C30.4899 54.4326 29.4779 55.0688 28.5266 55.7752L30.2758 62.5569L33.9415 62.9628C34.0263 62.9712 34.1031 63.0161 34.1544 63.0835L35.8795 65.3769C39.405 62.8617 44.0258 62.6903 47.739 64.9612C52.8144 68.0649 54.426 74.7314 51.3317 79.8223C50.6535 80.9373 49.7952 81.9078 48.779 82.7054L49.9841 88.4339ZM55.6314 93.373C55.6136 93.373 55.596 93.3716 55.5782 93.3688C55.4966 93.3534 55.4239 93.307 55.3769 93.2382L52.7643 89.431L49.6857 89.0181C49.556 88.9998 49.4515 88.9029 49.4245 88.7751L48.1345 82.6436C48.1097 82.5257 48.1549 82.4049 48.2506 82.3333C49.2729 81.5595 50.1321 80.6059 50.8041 79.5007C53.7215 74.7005 52.2021 68.4145 47.417 65.4892C43.8339 63.297 39.3533 63.5189 36.0025 66.0538C35.937 66.1029 35.8542 66.1254 35.7737 66.1128C35.6925 66.1015 35.6192 66.0594 35.5697 65.9934L33.7413 63.5624L29.9963 63.1481C29.8687 63.1341 29.7631 63.0428 29.7312 62.9178L27.8771 55.7288C27.8457 55.6081 27.8903 55.4803 27.9898 55.4044C28.9444 54.6826 29.961 54.0296 31.0149 53.4622C30.9643 53.3091 30.923 53.1659 30.8896 53.0268C30.1166 49.8305 32.0807 46.599 35.2679 45.8238C36.8123 45.4488 38.4096 45.6988 39.7663 46.5288C41.1228 47.3574 42.0757 48.6677 42.45 50.2153C42.484 50.3557 42.5127 50.5004 42.5371 50.6605C44.6895 50.6956 46.822 51.0298 48.8845 51.6534C48.956 51.5101 49.0277 51.3795 49.102 51.2573C49.9294 49.8965 51.2359 48.9401 52.7805 48.5651C54.3232 48.1888 55.9209 48.4402 57.2771 49.2687C60.0766 50.9821 60.966 54.6587 59.2594 57.4675C59.1843 57.591 59.102 57.7132 59.0072 57.8438C60.5065 59.3985 61.779 61.1469 62.7957 63.0484C62.9463 62.9979 63.0891 62.9572 63.2285 62.922C64.7722 62.5485 66.37 62.7971 67.7269 63.627C69.0833 64.4556 70.0363 65.7659 70.4106 67.3149C71.1835 70.5113 69.2194 73.7427 66.0322 74.5179C65.8923 74.5517 65.7461 74.5797 65.5896 74.605C65.5536 76.7635 65.2211 78.9024 64.5989 80.971C64.7422 81.0441 64.8711 81.1143 64.9942 81.1901C67.7941 82.902 68.6832 86.5801 66.9766 89.3888C66.149 90.7497 64.8425 91.7061 63.2975 92.081C61.7541 92.4574 60.1571 92.206 58.8013 91.376C58.6798 91.303 58.5561 91.2187 58.427 91.1247C57.6101 91.9167 56.7312 92.6526 55.8117 93.3155C55.7587 93.3534 55.6956 93.373 55.6314 93.373Z" fill="#2E3130"/>
<path d="M43.8917 86.1923C40.563 88.7104 35.9065 89.0839 32.1303 86.7751C27.1921 83.7543 25.6297 77.2914 28.6403 72.3382C29.3487 71.1726 30.2474 70.1951 31.2716 69.4199L29.5004 67.0662L25.4264 66.4946L23.6309 59.2649C22.8182 59.88 22.0414 60.5541 21.3066 61.283C21.1289 61.1425 20.9441 61.0077 20.746 60.8869C18.0868 59.2607 14.617 60.1047 12.9958 62.7716C11.3746 65.4385 12.216 68.9185 14.8751 70.5448C15.0733 70.667 15.277 70.7695 15.4831 70.8636C14.7844 73.0951 14.4361 75.3871 14.4246 77.665C14.1999 77.6917 13.9745 77.7282 13.7489 77.7829C10.7224 78.5188 8.8637 81.5762 9.59761 84.6124C10.3315 87.6487 13.3801 89.5123 16.4067 88.7764C16.6321 88.7216 16.8487 88.65 17.0607 88.5699C18.1116 90.5894 19.4677 92.4685 21.108 94.1312C20.9678 94.3082 20.8338 94.4936 20.7129 94.693C19.0917 97.3599 19.933 100.84 22.5922 102.466C25.2513 104.092 28.7211 103.248 30.3423 100.582C30.4633 100.382 30.5659 100.178 30.6596 99.972C32.8846 100.673 35.1697 101.021 37.4413 101.034C37.4678 101.258 37.5036 101.485 37.5582 101.711C38.2922 104.747 41.3407 106.611 44.3673 105.875C47.394 105.139 49.2527 102.081 48.5186 99.0451C48.4641 98.819 48.3927 98.6014 48.3132 98.3893C49.2726 97.8865 50.1996 97.315 51.0866 96.6774L48.2971 92.6117L45.4411 92.5906L43.8917 86.1923Z" fill="white"/>
<path d="M30.667 99.6603C30.6977 99.6603 30.7289 99.666 30.7597 99.6744C32.9292 100.358 35.1802 100.711 37.4502 100.722C37.6061 100.723 37.737 100.84 37.7554 100.996C37.7837 101.236 37.8199 101.447 37.8657 101.636C38.2014 103.024 39.0554 104.198 40.2712 104.942C41.4868 105.685 42.9188 105.91 44.3018 105.573C47.1582 104.878 48.9187 101.982 48.2259 99.1168C48.1794 98.9244 48.1158 98.7222 48.0314 98.4961C47.9768 98.3501 48.0395 98.1857 48.1776 98.1127C49.0353 97.6647 49.8715 97.1563 50.6669 96.5988L48.1414 92.9193L45.4459 92.8983C45.3044 92.8969 45.1818 92.8 45.1483 92.6624L43.7073 86.712C40.1994 89.1402 35.6446 89.2806 31.9769 87.0378C26.9013 83.9342 25.2896 77.2676 28.3838 72.1768C29.043 71.0926 29.8714 70.146 30.8491 69.361L29.3383 67.3527L25.391 66.8008C25.2661 66.7826 25.1644 66.6913 25.134 66.5691L23.4526 59.7986C22.7825 60.3281 22.1378 60.8997 21.5313 61.5007C21.4202 61.6117 21.2447 61.6215 21.1223 61.5246C20.9329 61.3743 20.7598 61.2522 20.5925 61.1496C19.3775 60.4053 17.9458 60.182 16.5634 60.5177C15.1791 60.8547 14.0085 61.7114 13.2671 62.9318C11.7369 65.4484 12.5338 68.7459 15.0435 70.2795C15.2108 70.382 15.3936 70.4775 15.6186 70.5814C15.7603 70.646 15.8318 70.8061 15.785 70.955C15.1038 73.1303 14.7523 75.3886 14.7407 77.6651C14.7397 77.8223 14.6231 77.9529 14.468 77.9712C14.2244 78.0007 14.0214 78.0358 13.8293 78.0822C10.9727 78.7773 9.21241 81.6731 9.90511 84.5381C10.2407 85.927 11.0949 87.0996 12.3106 87.8439C13.5265 88.5869 14.9584 88.8116 16.3412 88.4745C16.5335 88.4282 16.7299 88.365 16.9597 88.2793C17.1056 88.2245 17.2699 88.2877 17.3421 88.4254C18.3925 90.4448 19.7357 92.2902 21.335 93.9122C21.4448 94.0232 21.4545 94.1987 21.3579 94.3209C21.2053 94.5147 21.0864 94.6832 20.9842 94.8518C19.4537 97.3698 20.2505 100.666 22.7605 102.201C23.9753 102.944 25.4065 103.167 26.789 102.833C28.1735 102.496 29.3443 101.639 30.0859 100.419C30.1884 100.25 30.2837 100.068 30.386 99.8415C30.4373 99.7292 30.5489 99.6603 30.667 99.6603ZM43.0348 106.344C41.9558 106.344 40.8942 106.047 39.9493 105.47C38.5929 104.64 37.6399 103.331 37.2656 101.782C37.2318 101.643 37.2032 101.496 37.1788 101.339C35.0274 101.302 32.8949 100.969 30.8311 100.344C30.7597 100.488 30.6888 100.617 30.6136 100.74C29.7861 102.103 28.4797 103.059 26.9346 103.434C25.391 103.809 23.7946 103.557 22.4385 102.729C19.6385 101.017 18.7493 97.3389 20.4564 94.5302C20.5316 94.4066 20.6136 94.2844 20.7083 94.1538C19.2101 92.6006 17.9374 90.8521 16.9199 88.9492C16.7685 89.0011 16.6255 89.0419 16.4871 89.0756C14.943 89.4505 13.3452 89.202 11.9887 88.372C10.6323 87.542 9.67926 86.2317 9.30494 84.6841C8.53205 81.4878 10.4962 78.2563 13.6833 77.4811C13.8217 77.4474 13.9679 77.4193 14.1261 77.394C14.1618 75.2355 14.4948 73.0952 15.117 71.0266C14.9736 70.955 14.8444 70.8833 14.7216 70.8075C11.9214 69.0956 11.0324 65.4175 12.7393 62.6088C13.5666 61.2479 14.873 60.2916 16.418 59.9166C17.9597 59.5416 19.5578 59.7916 20.9143 60.6216C21.0361 60.696 21.16 60.7789 21.2885 60.873C21.9711 60.2115 22.6976 59.588 23.4518 59.0164C23.5349 58.9546 23.6436 58.9363 23.741 58.9729C23.839 59.0066 23.9129 59.088 23.9379 59.1891L25.6831 66.2166L29.5507 66.7587C29.6317 66.7699 29.705 66.8135 29.7545 66.8781L31.5256 69.2332C31.6282 69.3694 31.601 69.5632 31.465 69.6658C30.443 70.4382 29.5838 71.3917 28.9115 72.4984C25.9941 77.2971 27.5134 83.5831 32.2986 86.5098C35.882 88.7006 40.3632 88.4787 43.7131 85.9438C43.7959 85.882 43.9049 85.8652 44.0029 85.9003C44.1009 85.9354 44.1748 86.0169 44.1991 86.118L45.6917 92.2818L48.307 92.3014C48.4078 92.3028 48.5019 92.352 48.559 92.4362L51.3484 96.5005C51.4434 96.6395 51.4106 96.8277 51.2742 96.926C50.4546 97.5173 49.5899 98.058 48.7005 98.5354C48.751 98.6871 48.7923 98.8318 48.826 98.9708C49.5989 102.167 47.6348 105.399 44.4477 106.174C43.979 106.288 43.5049 106.344 43.0348 106.344Z" fill="#2E3130"/>
<path d="M36.6125 37.5881C36.4539 37.5881 36.3192 37.4659 36.3052 37.3044C36.2905 37.1345 36.4162 36.9842 36.586 36.9701C37.7326 36.8704 38.8953 36.8185 40.0418 36.8185L40.3653 36.8199C40.5358 36.8213 40.6731 36.9617 40.6715 37.133C40.67 37.3016 40.5322 37.4392 40.3627 37.4392C40.3617 37.4392 40.3609 37.4392 40.36 37.4392L40.0418 37.4378C38.9129 37.4378 37.7685 37.4884 36.6397 37.5867C36.6307 37.5867 36.6216 37.5881 36.6125 37.5881ZM47.8174 38.2186C47.7972 38.2186 47.7764 38.2172 47.756 38.213C46.5433 37.9659 45.3049 37.7763 44.076 37.6485C43.9062 37.6302 43.7831 37.4785 43.8009 37.3086C43.8182 37.1387 43.9681 37.0109 44.1399 37.0333C45.3888 37.1625 46.6467 37.3563 47.8783 37.6063C48.0457 37.64 48.1537 37.8029 48.1199 37.9715C48.09 38.1175 47.9612 38.2186 47.8174 38.2186ZM29.2395 38.9363C29.1051 38.9363 28.9811 38.8478 28.9427 38.7116C28.8963 38.5473 28.9917 38.3759 29.156 38.3296C30.3602 37.9883 31.5994 37.7004 32.8386 37.4743C33.0063 37.442 33.1674 37.5544 33.1978 37.7229C33.2285 37.89 33.1176 38.0515 32.9495 38.0824C31.7297 38.3057 30.5095 38.5894 29.3236 38.925C29.2956 38.9335 29.2676 38.9363 29.2395 38.9363ZM54.9872 40.4095C54.9476 40.4095 54.9078 40.401 54.8693 40.3856C53.7271 39.9123 52.5482 39.4896 51.3646 39.1273C51.2014 39.0781 51.1097 38.9054 51.1595 38.7425C51.2089 38.5782 51.3812 38.4855 51.5448 38.536C52.747 38.904 53.945 39.3337 55.1051 39.814C55.2628 39.8786 55.3375 40.0598 55.2725 40.2171C55.2233 40.3364 55.1083 40.4095 54.9872 40.4095ZM22.2562 41.6608C22.143 41.6608 22.0345 41.599 21.9803 41.4908C21.9033 41.3378 21.9646 41.1524 22.1168 41.0751C23.2396 40.5078 24.4016 39.9895 25.5709 39.5331C25.7295 39.4699 25.9089 39.55 25.9705 39.7101C26.0323 39.8688 25.9535 40.0471 25.7945 40.1103C24.6438 40.5583 23.5003 41.0695 22.395 41.627C22.3502 41.6495 22.3029 41.6608 22.2562 41.6608ZM61.6122 43.9218C61.554 43.9218 61.4953 43.9049 61.4427 43.8712C60.4095 43.1901 59.3314 42.5511 58.2391 41.9711C58.0883 41.8925 58.0307 41.7043 58.1107 41.554C58.1905 41.4024 58.3765 41.3448 58.5281 41.4248C59.6378 42.0133 60.7325 42.6621 61.7823 43.3544C61.9247 43.4471 61.9642 43.6395 61.8704 43.7828C61.8113 43.8726 61.7126 43.9218 61.6122 43.9218ZM15.9187 45.6674C15.8264 45.6674 15.7352 45.6267 15.6742 45.548C15.5699 45.4132 15.5946 45.218 15.7294 45.1141C16.7234 44.3431 17.7653 43.6128 18.826 42.9415C18.9707 42.8517 19.1611 42.8938 19.2521 43.0384C19.3432 43.1831 19.3002 43.3741 19.1559 43.4654C18.1115 44.1254 17.086 44.8445 16.1075 45.6028C16.0512 45.6464 15.9849 45.6674 15.9187 45.6674ZM67.4575 48.6222C67.3799 48.6222 67.3021 48.5927 67.2421 48.5352C66.3558 47.6715 65.4172 46.8401 64.4528 46.0649C64.3199 45.9581 64.2985 45.7629 64.4054 45.6309C64.5123 45.4975 64.7067 45.4764 64.8395 45.5832C65.819 46.371 66.7723 47.215 67.6728 48.0914C67.7949 48.2108 67.798 48.406 67.6788 48.5281C67.6185 48.5913 67.5379 48.6222 67.4575 48.6222ZM10.4535 50.806C10.3809 50.806 10.3081 50.7808 10.2494 50.7288C10.1215 50.615 10.1092 50.4198 10.222 50.292C11.0521 49.3483 11.9373 48.4326 12.8529 47.5718C12.9778 47.4552 13.1729 47.4608 13.2896 47.5858C13.4063 47.7108 13.4 47.906 13.2758 48.0226C12.3743 48.8708 11.5027 49.771 10.6852 50.7007C10.6243 50.7709 10.5389 50.806 10.4535 50.806ZM72.3125 54.3408C72.2151 54.3408 72.1192 54.2945 72.0589 54.2088C71.3523 53.1949 70.5873 52.202 69.7852 51.2568C69.6749 51.1262 69.6906 50.931 69.8206 50.8201C69.9497 50.7105 70.1446 50.7246 70.2557 50.8566C71.0704 51.8158 71.8475 52.8241 72.5656 53.8535C72.663 53.994 72.6289 54.1864 72.489 54.2847C72.4353 54.3226 72.3735 54.3408 72.3125 54.3408ZM6.05127 56.8828C5.99785 56.8828 5.94388 56.8687 5.89453 56.8392C5.74775 56.7521 5.69882 56.564 5.7856 56.4165C6.42418 55.3323 7.12165 54.2664 7.85907 53.2482C7.95889 53.1106 8.1525 53.0783 8.29031 53.1794C8.42854 53.2805 8.45924 53.4743 8.359 53.612C7.63321 54.6147 6.94612 55.6637 6.31749 56.7311C6.25987 56.828 6.15697 56.8828 6.05127 56.8828ZM75.9972 60.8782C75.8788 60.8782 75.7659 60.8094 75.7146 60.6942C75.2122 59.5623 74.6496 58.4416 74.0418 57.363C73.958 57.2142 74.0104 57.026 74.1592 56.9417C74.3078 56.8589 74.4956 56.9108 74.5799 57.0597C75.1969 58.1537 75.7687 59.2927 76.2792 60.4428C76.3483 60.5987 76.2783 60.7813 76.1224 60.8515C76.0816 60.8698 76.0392 60.8782 75.9972 60.8782ZM2.87068 63.6827C2.83605 63.6827 2.80114 63.6771 2.76679 63.6645C2.60613 63.6069 2.52243 63.4299 2.57977 63.2698C3.00232 62.0845 3.48697 60.9063 4.02027 59.7659C4.09261 59.6114 4.27697 59.5454 4.4309 59.6171C4.58525 59.6901 4.65185 59.8741 4.57937 60.0285C4.05448 61.1506 3.5774 62.3106 3.16158 63.4777C3.11644 63.6041 2.99741 63.6827 2.87068 63.6827ZM78.3731 67.9984C78.2325 67.9984 78.1056 67.9015 78.0724 67.7582C77.7931 66.549 77.4533 65.3427 77.0622 64.17C77.0082 64.0071 77.0952 63.833 77.2573 63.7782C77.4192 63.7234 77.5938 63.8119 77.6478 63.9734C78.0449 65.1643 78.3902 66.3904 78.6744 67.6192C78.7127 67.7849 78.6092 67.952 78.4431 67.9899C78.4195 67.9955 78.3963 67.9984 78.3731 67.9984ZM1.03413 70.963C1.01857 70.963 1.00287 70.9616 0.98703 70.9588C0.818376 70.9335 0.702576 70.7748 0.728512 70.6063C0.918475 69.362 1.1711 68.1121 1.47869 66.8931C1.52075 66.7274 1.68954 66.6291 1.85385 66.6698C2.01928 66.7119 2.11938 66.8791 2.0776 67.0448C1.77478 68.2455 1.52621 69.4757 1.33891 70.7004C1.3155 70.8534 1.18414 70.963 1.03413 70.963ZM79.3744 75.5103C79.2094 75.5103 79.0724 75.3783 79.0661 75.2126C79.0189 73.9768 78.9123 72.7269 78.7494 71.4952L78.7404 71.425C78.7184 71.2551 78.8376 71.1006 79.0067 71.0781C79.1753 71.0557 79.3306 71.175 79.3527 71.345L79.3616 71.4138C79.5272 72.6637 79.6356 73.9332 79.6831 75.1887C79.6898 75.3587 79.5568 75.5033 79.3864 75.5089C79.3825 75.5103 79.3786 75.5103 79.3744 75.5103ZM0.61201 78.4595C0.446861 78.4595 0.309892 78.3289 0.303723 78.1618C0.283395 77.645 0.273299 77.1212 0.273439 76.6072C0.273439 75.8643 0.294611 75.1129 0.335968 74.3742C0.345642 74.2029 0.492846 74.0737 0.66178 74.0835C0.831975 74.0919 0.962216 74.238 0.952823 74.4093C0.911886 75.1368 0.890995 75.8755 0.890995 76.6072C0.890855 77.1141 0.90095 77.6281 0.920578 78.1379C0.927307 78.3093 0.794541 78.4525 0.624205 78.4595C0.62014 78.4595 0.616076 78.4595 0.61201 78.4595ZM78.9464 83.0055C78.9307 83.0055 78.915 83.0041 78.8991 83.0027C78.7305 82.976 78.615 82.8187 78.6409 82.6488C78.829 81.4256 78.9603 80.1785 79.0309 78.9412C79.0405 78.7699 79.1879 78.6449 79.3566 78.6491C79.5269 78.6589 79.6572 78.805 79.6473 78.9763C79.5757 80.2332 79.4425 81.5014 79.2513 82.7429C79.2277 82.8959 79.0962 83.0055 78.9464 83.0055ZM1.6036 85.9013C1.46313 85.9013 1.33597 85.8058 1.30289 85.6626C1.02166 84.4408 0.794541 83.1866 0.627991 81.9353C0.605279 81.7668 0.724166 81.6109 0.89324 81.5885C1.06175 81.5674 1.21779 81.6854 1.24022 81.8539C1.40425 83.0855 1.62786 84.32 1.90488 85.5235C1.94315 85.6892 1.83941 85.8564 1.67328 85.8943C1.64987 85.8999 1.62646 85.9013 1.6036 85.9013ZM77.1031 90.2843C77.0685 90.2843 77.0336 90.2787 76.9991 90.2661C76.8383 90.2085 76.7549 90.0316 76.8123 89.8715C77.2298 88.703 77.5956 87.5037 77.899 86.3044C77.9409 86.1386 78.1083 86.0389 78.2746 86.0797C78.4397 86.1218 78.5398 86.2903 78.4979 86.456C78.1895 87.675 77.8179 88.894 77.3939 90.0793C77.3487 90.2057 77.2298 90.2843 77.1031 90.2843ZM3.97401 93.0243C3.85554 93.0243 3.74269 92.9555 3.69152 92.8403C3.18303 91.6915 2.72348 90.502 2.32617 89.3083C2.27219 89.1454 2.35981 88.9713 2.5216 88.9165C2.68338 88.8631 2.85834 88.9502 2.91204 89.1117C3.30332 90.2886 3.75558 91.4584 4.25608 92.5889C4.32533 92.7462 4.25496 92.9288 4.09892 92.9976C4.05826 93.0158 4.01579 93.0243 3.97401 93.0243ZM73.9155 97.0815C73.8621 97.0815 73.8078 97.0675 73.7586 97.038C73.6117 96.9509 73.5632 96.7613 73.6501 96.6152C74.28 95.5465 74.866 94.4385 75.391 93.3178C75.4634 93.1633 75.6483 93.0973 75.8018 93.1703C75.9562 93.2419 76.0226 93.4259 75.9501 93.5818C75.4167 94.7193 74.8217 95.8457 74.1815 96.9298C74.1238 97.0267 74.0211 97.0815 73.9155 97.0815ZM7.65284 99.5644C7.55513 99.5644 7.45923 99.5181 7.39909 99.4324C6.68017 98.3988 6.00374 97.3203 5.38815 96.2262C5.30431 96.0774 5.35688 95.8878 5.50549 95.8049C5.65382 95.7193 5.84238 95.7726 5.92607 95.9215C6.53213 96.9986 7.19834 98.0604 7.9059 99.0785C8.00319 99.219 7.96884 99.4114 7.82893 99.5097C7.77523 99.5462 7.71369 99.5644 7.65284 99.5644ZM69.5082 103.155C69.4355 103.155 69.3625 103.129 69.3037 103.077C69.1758 102.964 69.1638 102.769 69.2766 102.64C70.0948 101.713 70.8782 100.734 71.6057 99.7316C71.7058 99.5925 71.8985 99.563 72.0369 99.6627C72.175 99.7639 72.2056 99.9563 72.105 100.095C71.3665 101.113 70.5706 102.108 69.7398 103.05C69.6786 103.119 69.5936 103.155 69.5082 103.155ZM12.5024 105.287C12.4246 105.287 12.3472 105.259 12.2872 105.2C11.3861 104.321 10.5177 103.39 9.70599 102.432C9.59552 102.302 9.61164 102.106 9.74146 101.997C9.87212 101.886 10.0667 101.901 10.177 102.032C10.976 102.974 11.8309 103.891 12.7178 104.756C12.8399 104.876 12.8427 105.071 12.7238 105.193C12.6632 105.256 12.5831 105.287 12.5024 105.287ZM64.0391 108.287C63.9464 108.287 63.8552 108.246 63.7945 108.168C63.6902 108.033 63.7148 107.838 63.85 107.734C64.8274 106.977 65.7806 106.164 66.6839 105.317C66.8082 105.2 67.0042 105.206 67.1203 105.331C67.2369 105.456 67.2306 105.651 67.1061 105.768C66.1887 106.628 65.2204 107.454 64.2275 108.222C64.1714 108.266 64.1047 108.287 64.0391 108.287ZM18.3428 109.993C18.2846 109.993 18.2256 109.976 18.1734 109.943C17.1232 109.249 16.0955 108.498 15.118 107.71C14.9851 107.603 14.9643 107.409 15.0711 107.276C15.1785 107.142 15.3724 107.121 15.5053 107.228C16.4673 108.005 17.4795 108.743 18.513 109.426C18.6556 109.52 18.6948 109.711 18.601 109.854C18.5416 109.944 18.4433 109.993 18.3428 109.993ZM57.6984 112.289C57.5853 112.289 57.4765 112.228 57.4221 112.12C57.3455 111.966 57.4068 111.781 57.5593 111.704C58.6628 111.148 59.7534 110.53 60.7998 109.87C60.9445 109.778 61.1351 109.822 61.2257 109.967C61.3167 110.111 61.2734 110.301 61.1291 110.392C60.0657 111.063 58.9583 111.691 57.8368 112.256C57.7925 112.278 57.7451 112.289 57.6984 112.289ZM24.9653 113.511C24.9258 113.511 24.8857 113.504 24.847 113.489C23.686 113.006 22.5352 112.464 21.4262 111.874C21.2754 111.794 21.2182 111.607 21.2979 111.455C21.378 111.305 21.5649 111.247 21.7157 111.327C22.8074 111.907 23.9405 112.443 25.0835 112.916C25.2409 112.982 25.3156 113.163 25.2506 113.32C25.2014 113.44 25.0861 113.511 24.9653 113.511ZM50.7111 115.007C50.5762 115.007 50.4526 114.917 50.414 114.781C50.3679 114.616 50.4635 114.445 50.6276 114.399C51.8196 114.063 53.0074 113.666 54.1578 113.218C54.3171 113.157 54.4955 113.235 54.5578 113.395C54.6192 113.553 54.5405 113.733 54.3815 113.795C53.2126 114.25 52.0061 114.653 50.7952 114.994C50.7672 115.003 50.7387 115.007 50.7111 115.007ZM32.1338 115.708C32.1134 115.708 32.0928 115.706 32.072 115.702C30.8429 115.451 29.6099 115.138 28.4066 114.768C28.2435 114.719 28.1515 114.546 28.2015 114.382C28.2513 114.219 28.4246 114.126 28.5869 114.177C29.7718 114.539 30.9856 114.85 32.1951 115.095C32.3624 115.131 32.47 115.293 32.436 115.461C32.4064 115.608 32.2777 115.708 32.1338 115.708ZM43.3366 116.349C43.1779 116.349 43.0431 116.227 43.0292 116.067C43.0145 115.896 43.1405 115.747 43.3103 115.732C43.9156 115.68 44.5308 115.612 45.1391 115.532C45.7631 115.448 46.3895 115.35 47.0013 115.239C47.1718 115.208 47.33 115.32 47.3605 115.487C47.3906 115.656 47.2794 115.817 47.1116 115.847C46.4904 115.96 45.8541 116.06 45.2206 116.144C44.6029 116.227 43.978 116.296 43.3634 116.348C43.3543 116.349 43.3453 116.349 43.3366 116.349ZM39.5874 116.494C39.5864 116.494 39.5854 116.494 39.5846 116.494C38.3261 116.483 37.0562 116.41 35.8097 116.279C35.64 116.261 35.5169 116.109 35.535 115.939C35.5528 115.769 35.706 115.647 35.8742 115.664C37.1011 115.793 38.3515 115.865 39.5901 115.876C39.7607 115.878 39.8977 116.017 39.8961 116.188C39.8946 116.358 39.7565 116.494 39.5874 116.494Z" fill="#2E3130"/>
<path d="M154.063 112.653V107.965H142V103.451L152.263 88.3472H159.465V103.451H162.706V107.965H159.465V112.653H154.063ZM147.582 103.451H154.063V94.0764H153.883L147.582 103.451Z" fill="#10856D"/>
<path d="M182.308 109.806C180.388 111.935 177.759 113 174.422 113C171.085 113 168.444 111.935 166.5 109.806C164.579 107.676 163.619 104.574 163.619 100.5C163.619 96.4259 164.579 93.3241 166.5 91.1944C168.444 89.0648 171.085 88 174.422 88C177.759 88 180.388 89.0648 182.308 91.1944C184.253 93.3241 185.225 96.4259 185.225 100.5C185.225 104.574 184.253 107.676 182.308 109.806ZM170.569 106.333C171.601 107.653 172.885 108.312 174.422 108.312C175.958 108.312 177.243 107.653 178.275 106.333C179.307 104.991 179.823 103.046 179.823 100.5C179.823 97.9537 179.307 96.0208 178.275 94.7014C177.243 93.3588 175.958 92.6875 174.422 92.6875C172.885 92.6875 171.601 93.3588 170.569 94.7014C169.537 96.0208 169.02 97.9537 169.02 100.5C169.02 103.046 169.537 104.991 170.569 106.333Z" fill="#10856D"/>
<path d="M198.358 112.653V107.965H186.294V103.451L196.557 88.3472H203.759V103.451H207V107.965H203.759V112.653H198.358ZM191.876 103.451H198.358V94.0764H198.177L191.876 103.451Z" fill="#10856D"/>
</svg>
