<svg width="384" height="258" viewBox="0 0 384 258" fill="none" xmlns="http://www.w3.org/2000/svg">
<path d="M240.574 213.395H248.269C252.127 213.395 255.255 216.532 255.255 220.403C255.255 224.273 252.127 227.412 248.269 227.412H116.587C112.729 227.412 109.6 224.273 109.6 220.403C109.6 216.532 112.729 213.395 116.587 213.395H123.668H240.574Z" fill="white"/>
<path d="M235.093 185.379V213.41H129.764V185.379H235.093Z" fill="white"/>
<path d="M235.1 213.721H129.77C129.6 213.721 129.461 213.582 129.461 213.41V185.379C129.461 185.208 129.6 185.069 129.77 185.069C129.941 185.069 130.08 185.208 130.08 185.379V213.101H234.789V185.379C234.789 185.208 234.928 185.069 235.1 185.069C235.268 185.069 235.408 185.208 235.408 185.379V213.41C235.408 213.582 235.268 213.721 235.1 213.721Z" fill="#2E3130"/>
<path d="M248.272 227.721H116.589C112.566 227.721 109.293 224.439 109.293 220.402C109.293 216.368 112.566 213.086 116.589 213.086H123.67C123.84 213.086 123.978 213.223 123.978 213.395C123.978 213.566 123.84 213.705 123.67 213.705H116.589C112.907 213.705 109.911 216.709 109.911 220.402C109.911 224.096 112.907 227.101 116.589 227.101H248.272C251.953 227.101 254.949 224.096 254.949 220.402C254.949 216.709 251.953 213.705 248.272 213.705H240.577C240.406 213.705 240.266 213.566 240.266 213.395C240.266 213.223 240.406 213.086 240.577 213.086H248.272C252.294 213.086 255.568 216.368 255.568 220.402C255.568 224.437 252.294 227.721 248.272 227.721Z" fill="#2E3130"/>
<path d="M231.174 192.271H133.692C133.522 192.271 133.385 192.134 133.385 191.963C133.385 191.791 133.522 191.654 133.692 191.654H231.174C231.343 191.654 231.482 191.791 231.482 191.963C231.482 192.134 231.343 192.271 231.174 192.271Z" fill="#2E3130"/>
<path d="M308.532 170.461C308.532 178.696 301.862 185.371 293.642 185.361L49.398 185.103C44.4373 185.103 40.416 181.07 40.416 176.094V9.81703C40.416 4.842 44.4373 0.806763 49.398 0.806763H299.551C304.511 0.806763 308.532 4.842 308.532 9.81703V105.489V170.461Z" fill="white"/>
<path d="M308.534 15.0762H40.4182C40.2475 15.0762 40.1094 14.938 40.1094 14.767C40.1094 14.596 40.2475 14.4579 40.4182 14.4579H308.534C308.705 14.4579 308.843 14.596 308.843 14.767C308.843 14.938 308.705 15.0762 308.534 15.0762Z" fill="#2E3130"/>
<path d="M48.6299 6.20163C47.4341 6.20163 46.4612 7.17922 46.4612 8.37874C46.4612 9.58009 47.4341 10.5558 48.6299 10.5558C49.8257 10.5558 50.7985 9.58009 50.7985 8.37874C50.7985 7.17922 49.8257 6.20163 48.6299 6.20163ZM48.6299 11.1758C47.0936 11.1758 45.8438 9.92124 45.8438 8.37874C45.8438 6.83808 47.0936 5.58353 48.6299 5.58353C50.1661 5.58353 51.4163 6.83808 51.4163 8.37874C51.4163 9.92124 50.1661 11.1758 48.6299 11.1758Z" fill="#2E3130"/>
<path d="M55.8606 6.20163C54.6648 6.20163 53.692 7.17922 53.692 8.37874C53.692 9.58009 54.6648 10.5558 55.8606 10.5558C57.0563 10.5558 58.0291 9.58009 58.0291 8.37874C58.0291 7.17922 57.0563 6.20163 55.8606 6.20163ZM55.8606 11.1758C54.3244 11.1758 53.0742 9.92124 53.0742 8.37874C53.0742 6.83808 54.3244 5.58353 55.8606 5.58353C57.3967 5.58353 58.6469 6.83808 58.6469 8.37874C58.6469 9.92124 57.3967 11.1758 55.8606 11.1758Z" fill="#2E3130"/>
<path d="M63.0928 6.20163C61.897 6.20163 60.9242 7.17922 60.9242 8.37874C60.9242 9.58009 61.897 10.5558 63.0928 10.5558C64.2886 10.5558 65.2616 9.58009 65.2616 8.37874C65.2616 7.17922 64.2886 6.20163 63.0928 6.20163ZM63.0928 11.1758C61.5566 11.1758 60.3066 9.92124 60.3066 8.37874C60.3066 6.83808 61.5566 5.58353 63.0928 5.58353C64.629 5.58353 65.8791 6.83808 65.8791 8.37874C65.8791 9.92124 64.629 11.1758 63.0928 11.1758Z" fill="#2E3130"/>
<path d="M287.303 185.689L49.3999 185.416C44.2773 185.416 40.1094 181.235 40.1094 176.096V9.81874C40.1094 4.68153 44.2773 0.50029 49.4001 0.50029H299.552C304.676 0.50029 308.843 4.68153 308.843 9.81874V94.8688C308.843 95.0387 308.705 95.1777 308.534 95.1777C308.364 95.1777 308.226 95.0387 308.226 94.8688V9.81874C308.226 5.02139 304.334 1.11859 299.552 1.11859H49.4001C44.6176 1.11859 40.727 5.02139 40.727 9.81874V176.096C40.727 180.894 44.6176 184.796 49.4001 184.796L287.303 185.07C287.474 185.07 287.612 185.209 287.612 185.381C287.612 185.55 287.474 185.689 287.303 185.689Z" fill="#2E3130"/>
<path d="M240.896 150.605H112.554C112.383 150.605 112.244 150.468 112.244 150.296C112.244 150.125 112.383 149.987 112.554 149.987H240.896C241.066 149.987 241.204 150.125 241.204 150.296C241.204 150.468 241.066 150.605 240.896 150.605Z" fill="#2E3130"/>
<path d="M351.703 91.8986L352.531 92.8866C361.888 104.071 367.193 118.103 367.58 132.7C368.483 166.698 370.04 229.396 369.845 251.126C369.816 254.412 367.15 257.057 363.873 257.057H329.891C327.591 257.057 326.304 254.394 327.732 252.584L332.717 246.255L339.212 169.053L313.019 253.057C312.175 255.454 309.913 257.057 307.377 257.057H271.137C268.762 257.057 267.501 254.241 269.08 252.46L275.783 244.904L324.206 114.799L351.703 91.8986Z" fill="white"/>
<path d="M339.21 168.742C339.231 168.742 339.251 168.743 339.272 168.747C339.426 168.777 339.531 168.919 339.518 169.076L333.023 246.279C333.018 246.339 332.995 246.396 332.959 246.444L327.973 252.774C327.378 253.529 327.272 254.497 327.691 255.365C328.109 256.229 328.93 256.745 329.89 256.745H363.873C366.965 256.745 369.506 254.222 369.534 251.121C369.726 229.513 368.199 167.656 367.27 132.706C366.886 118.241 361.566 104.17 352.292 93.0837L351.663 92.3318L324.465 114.982L276.071 245.01C276.058 245.047 276.037 245.079 276.012 245.109L269.309 252.664C268.66 253.396 268.506 254.406 268.906 255.299C269.306 256.191 270.161 256.745 271.134 256.745H307.377C309.777 256.745 311.924 255.22 312.725 252.951L338.915 168.958C338.956 168.827 339.079 168.742 339.21 168.742ZM363.873 257.363H329.89C328.707 257.363 327.652 256.702 327.136 255.635C326.618 254.566 326.752 253.322 327.488 252.391L332.415 246.134L338.666 171.833L313.313 253.146C312.422 255.674 310.038 257.363 307.377 257.363H271.134C269.915 257.363 268.845 256.669 268.344 255.553C267.841 254.434 268.036 253.17 268.847 252.253L275.511 244.741L323.916 114.689C323.934 114.638 323.967 114.595 324.008 114.56L351.504 91.6589C351.635 91.5499 351.83 91.5684 351.938 91.6979L352.767 92.6861C362.131 103.878 367.501 118.086 367.889 132.69C368.815 167.644 370.345 229.509 370.152 251.127C370.121 254.566 367.304 257.363 363.873 257.363Z" fill="#2E3130"/>
<path d="M313.565 247.758C313.561 247.758 313.556 247.758 313.552 247.758C301.854 247.262 290.019 246.373 278.376 245.112C278.208 245.094 278.086 244.941 278.103 244.771C278.121 244.601 278.279 244.477 278.443 244.497C290.072 245.755 301.892 246.646 313.578 247.139C313.749 247.147 313.88 247.29 313.874 247.462C313.867 247.627 313.729 247.758 313.565 247.758Z" fill="#2E3130"/>
<path d="M358.032 247.484C350.283 247.484 342.513 247.272 334.818 246.849C334.649 246.84 334.518 246.694 334.526 246.524C334.536 246.352 334.687 246.215 334.851 246.232C346.231 246.857 357.775 247.021 369.166 246.719C369.322 246.713 369.478 246.849 369.481 247.02C369.486 247.191 369.35 247.333 369.181 247.337C365.478 247.435 361.758 247.484 358.032 247.484Z" fill="#2E3130"/>
<path d="M339.368 168.322C339.341 168.322 339.316 168.318 339.289 168.311C339.125 168.267 339.025 168.099 339.069 167.933L346.254 140.523C347.037 137.528 348.016 134.473 350.559 132.877C350.704 132.786 350.895 132.829 350.985 132.976C351.076 133.12 351.032 133.311 350.887 133.401C348.533 134.878 347.634 137.687 346.851 140.68L339.666 168.091C339.63 168.23 339.505 168.322 339.368 168.322Z" fill="#2E3130"/>
<path d="M321.652 38.2925C321.652 38.2925 317.38 52.2324 322.912 53.4262C327.184 54.3474 332.284 52.2019 332.42 51.8823C332.553 51.5627 334.447 42.8162 334.447 42.8162L321.652 38.2925Z" fill="white"/>
<path d="M321.861 38.6964C321.382 40.3781 319.246 48.4525 321.201 51.7924C321.629 52.5239 322.211 52.959 322.981 53.126C326.949 53.9821 331.643 52.084 332.155 51.7194C332.319 51.1409 333.368 46.3545 334.092 43.0194L321.861 38.6964ZM325.172 53.9609C324.385 53.9609 323.599 53.8927 322.852 53.7304C321.915 53.5281 321.18 52.9825 320.668 52.1052C318.353 48.1515 321.237 38.6093 321.361 38.2048C321.384 38.1225 321.441 38.0566 321.518 38.019C321.593 37.9813 321.68 37.9743 321.758 38.0025L334.554 42.5278C334.702 42.5795 334.787 42.7324 334.754 42.8853C334.437 44.3506 332.847 51.6748 332.709 52.0041C332.497 52.5097 328.806 53.9609 325.172 53.9609Z" fill="#2E3130"/>
<path d="M324.639 50.0602L325.997 60.7109L337.026 60.2638L333.996 44.4297L324.639 50.0602Z" fill="white"/>
<path d="M325.994 61.0195C325.841 61.0195 325.708 60.9059 325.689 60.7496L324.335 50.0994C324.311 49.9313 324.432 49.775 324.6 49.7537C324.77 49.7324 324.924 49.8532 324.947 50.0213L326.268 60.3897L336.657 59.9682L333.693 44.4878C333.66 44.3197 333.768 44.1587 333.936 44.1256C334.104 44.0924 334.265 44.2037 334.298 44.3718L337.33 60.205C337.347 60.2926 337.326 60.385 337.269 60.456C337.212 60.527 337.127 60.5696 337.04 60.572L326.008 61.0195C326.004 61.0195 325.999 61.0195 325.994 61.0195Z" fill="#2E3130"/>
<path d="M332.715 32.7976C332.715 32.7976 331.253 29.0585 325.111 29.1231C322.802 29.1469 321.486 28.9534 320.742 28.705C319.23 28.1961 317.553 28.9486 317.043 30.4634C316.687 31.5194 316.916 32.8549 318.559 34.427C318.559 34.427 315.967 36.7469 320.069 38.9377C320.069 38.9377 318.931 42.2539 324.026 42.985C324.026 42.985 324.813 41.3245 326.418 42.2587C327.365 42.8058 327.446 45.011 325.757 46.9653C325.757 46.9653 328.441 52.3385 333.268 52.2788C338.093 52.2215 338.1 46.5472 338.136 44.6837C338.174 42.8201 340.828 37.7885 337.654 34.0662C335.748 31.8276 332.715 32.7976 332.715 32.7976Z" fill="#2E3130"/>
<path d="M326.048 43.2513C326.048 43.2513 324.409 42.2447 324.673 45.4141L326.048 43.2513Z" fill="white"/>
<path d="M324.671 45.7227C324.513 45.7227 324.377 45.6007 324.364 45.4397C324.251 44.0824 324.458 43.2634 324.993 42.9344C325.436 42.6607 325.964 42.8401 326.208 42.9897C326.352 43.0794 326.398 43.268 326.311 43.4153C326.219 43.5602 326.031 43.6062 325.886 43.5165C325.879 43.5119 325.539 43.3209 325.314 43.4613C325.172 43.551 324.855 43.9145 324.979 45.3891C324.993 45.5593 324.867 45.7089 324.697 45.7227C324.687 45.7227 324.681 45.7227 324.671 45.7227Z" fill="#2E3130"/>
<path d="M302.606 76.1589L299.574 74.9621L294.996 79.8365C294.996 79.8365 280.278 69.7657 272.884 63.104C265.49 56.4445 258.42 52.5701 256.66 52.9996C254.901 53.4313 255.564 55.8853 259.24 58.0059C259.24 58.0059 256.035 58.8895 256.66 61.5918C256.66 61.5918 254.378 61.6432 254.894 64.9204C254.894 64.9204 252.288 66.323 253.451 69.231C254.615 72.1391 257.839 72.2219 257.839 72.2219C257.839 72.2219 266.604 82.5844 275.823 91.6166C284.286 99.9113 297.097 101.91 307.626 96.493C310.911 94.8036 313.959 91.6739 316.063 89.3557L302.606 76.1589Z" fill="white"/>
<path d="M256.978 53.2751C256.885 53.2751 256.802 53.2841 256.73 53.302C256.321 53.4005 256.091 53.6199 256.044 53.9535C255.926 54.7775 256.923 56.3158 259.39 57.7398C259.5 57.8025 259.558 57.9234 259.542 58.0465C259.527 58.1697 259.439 58.2727 259.319 58.3063C259.198 58.3399 256.409 59.1459 256.958 61.5216C256.978 61.6134 256.958 61.7074 256.9 61.7813C256.844 61.8552 256.757 61.9 256.663 61.9C256.641 61.9022 256.02 61.9291 255.577 62.4687C255.152 62.9814 255.025 63.792 255.195 64.8734C255.215 65.0033 255.152 65.1309 255.036 65.1936C254.942 65.2451 252.691 66.5079 253.735 69.1165C254.806 71.7966 257.723 71.9108 257.846 71.913C257.935 71.9153 258.018 71.9556 258.074 72.0228C258.161 72.1257 266.934 82.4776 276.036 91.3958C284.44 99.6322 297.08 101.57 307.483 96.2183C310.623 94.6032 313.602 91.587 315.632 89.3681L302.433 76.4248L299.653 75.3276L295.218 80.0498C295.113 80.1595 294.943 80.1797 294.82 80.0923C294.673 79.9916 279.999 69.9337 272.676 63.3352C265.593 56.9561 258.919 53.2751 256.978 53.2751ZM295.12 99.8359C287.998 99.8359 280.962 97.0875 275.602 91.838C266.965 83.3726 258.624 73.6214 257.687 72.5243C257.021 72.4706 254.258 72.0899 253.163 69.3471C252.106 66.7027 253.945 65.1847 254.556 64.766C254.404 63.5927 254.591 62.6859 255.11 62.0634C255.494 61.5999 255.975 61.4118 256.297 61.3357C256.058 59.5378 257.405 58.4361 258.525 57.9368C256.462 56.6158 255.262 55.0552 255.432 53.8662C255.517 53.2751 255.926 52.8609 256.585 52.6996C258.521 52.2272 265.776 56.2889 273.09 62.8762C279.894 69.0045 293.095 78.1533 294.95 79.4318L299.349 74.7499C299.434 74.6581 299.57 74.629 299.686 74.6738L302.717 75.8717C302.755 75.8874 302.791 75.9098 302.82 75.9389L316.278 89.135C316.394 89.2514 316.401 89.4413 316.289 89.5642C314.226 91.8355 311.099 95.054 307.764 96.7686C303.756 98.8304 299.422 99.8359 295.12 99.8359Z" fill="#2E3130"/>
<path d="M257.94 72.6738C257.842 72.6738 257.746 72.6268 257.686 72.5421C256.747 71.189 255.869 69.7681 255.082 68.3172C255.001 68.1685 255.056 67.9803 255.206 67.8975C255.355 67.8166 255.542 67.8712 255.625 68.0217C256.401 69.452 257.265 70.854 258.193 72.1883C258.291 72.3276 258.255 72.5214 258.116 72.6174C258.062 72.655 258.002 72.6738 257.94 72.6738Z" fill="#2E3130"/>
<path d="M258.24 66.5C258.167 66.5 258.095 66.4755 258.035 66.4247C257.149 65.6523 255.976 65.2417 254.799 65.2925C254.795 65.2944 254.789 65.2944 254.785 65.2944C254.62 65.2944 254.483 65.1645 254.477 64.9987C254.468 64.8273 254.599 64.6841 254.77 64.6747C256.094 64.6182 257.437 65.0816 258.441 65.9575C258.571 66.0705 258.584 66.2664 258.471 66.3945C258.411 66.4642 258.324 66.5 258.24 66.5Z" fill="#2E3130"/>
<path d="M260.748 63.8789C260.672 63.8789 260.594 63.8504 260.534 63.7934C259.481 62.7869 258.107 62.1298 256.666 61.9418C256.497 61.919 256.378 61.7633 256.399 61.5943C256.422 61.4253 256.577 61.3037 256.746 61.3284C258.317 61.5335 259.813 62.2495 260.96 63.3453C261.083 63.463 261.089 63.6586 260.972 63.7821C260.911 63.8466 260.827 63.8789 260.748 63.8789Z" fill="#2E3130"/>
<path d="M262.823 60.6191C262.758 60.6191 262.689 60.5962 262.632 60.5522C261.523 59.6785 260.307 58.9462 259.017 58.3745C258.86 58.3057 258.79 58.1222 258.858 57.9673C258.927 57.8105 259.108 57.7398 259.267 57.8086C260.603 58.3994 261.864 59.1603 263.015 60.0666C263.149 60.1717 263.172 60.3668 263.067 60.5006C263.006 60.5771 262.914 60.6191 262.823 60.6191Z" fill="#2E3130"/>
<path d="M335.877 28.9165C334.48 28.1742 333.186 27.8395 332.501 28.7353C331.817 29.6312 332.345 31.2794 333.538 31.9764C332.709 31.4454 331.853 30.9019 330.936 30.6905C330.016 30.4792 329.016 30.6855 328.662 31.4102C328.351 32.0468 328.617 32.925 329.122 33.612C329.371 33.9517 329.667 34.2537 329.991 34.5355C329.378 34.3418 328.687 34.4298 328.311 34.8324C327.668 35.5194 327.658 36.6039 328.308 37.535C328.858 38.3201 329.855 39.1731 330.81 39.9205C331.87 40.8037 332.694 41.4252 334.206 42.4846C332.491 42.2179 329.539 41.921 329.783 44.0272C330.124 46.9562 343.184 48.6648 345.219 49.9154C349.034 52.2581 351.989 53.9707 351.989 53.9707C353.739 53.8434 360.451 45.2451 361.519 42.3789C359.916 41.0528 346.457 32.228 340.951 28.9593C340.027 28.4107 339.059 27.8521 338.057 27.7162C337.055 27.5829 336.012 28.0106 335.877 28.9165Z" fill="white"/>
<path d="M332.184 42.6062C331.452 42.6062 330.731 42.712 330.356 43.0772C330.132 43.2912 330.047 43.5909 330.092 43.9914C330.293 45.7114 336.332 47.1796 340.327 48.1517C342.743 48.7385 344.651 49.2019 345.385 49.6527C348.779 51.7354 351.519 53.3394 352.052 53.6496C353.621 53.2711 359.821 45.651 361.15 42.4803C358.926 40.7703 346.184 32.4244 340.797 29.226C339.992 28.75 338.992 28.1557 338.019 28.0248C337.202 27.9114 336.294 28.2363 336.186 28.9616C336.171 29.0623 336.108 29.1479 336.02 29.1933C335.93 29.2386 335.824 29.2386 335.736 29.1908C334.21 28.3798 333.232 28.2917 332.749 28.9238C332.528 29.2134 332.458 29.6264 332.548 30.0873C332.666 30.6892 333.041 31.2584 333.539 31.6084C333.594 31.6462 333.652 31.6815 333.707 31.7167C333.848 31.8074 333.891 31.9937 333.805 32.1373C333.715 32.2808 333.531 32.3287 333.385 32.2456C333.323 32.2078 333.26 32.1675 333.199 32.1272C332.483 31.6689 331.683 31.1803 330.869 30.9939C330.152 30.8277 329.242 30.931 328.943 31.5455C328.712 32.0214 328.88 32.7593 329.373 33.4292C329.582 33.7163 329.853 34.0009 330.198 34.3031C330.306 34.3988 330.333 34.56 330.263 34.6884C330.19 34.8143 330.039 34.8748 329.901 34.832C329.371 34.6632 328.812 34.7514 328.538 35.0435C327.993 35.6278 328.005 36.5571 328.564 37.3579C329.129 38.1663 330.228 39.0704 331.005 39.6773C332.053 40.5537 332.873 41.1708 334.386 42.231C334.504 42.3141 334.549 42.4677 334.494 42.6012C334.441 42.7347 334.306 42.8127 334.162 42.7901C333.773 42.7296 332.973 42.6062 332.184 42.6062ZM351.992 54.2812C351.936 54.2812 351.884 54.2671 351.838 54.2397C351.808 54.2223 348.837 52.4959 345.061 50.179C344.409 49.7811 342.451 49.3026 340.183 48.7511C334.26 47.3131 329.71 46.0539 329.481 44.0619C329.411 43.465 329.562 42.984 329.926 42.6314C330.587 41.9943 331.844 41.9313 333.031 42.027C332.086 41.3496 331.417 40.8282 330.615 40.1609C329.748 39.4784 328.664 38.5793 328.058 37.713C327.327 36.6653 327.339 35.4238 328.086 34.6204C328.342 34.3484 328.727 34.1822 329.152 34.1394C329.051 34.0261 328.958 33.9102 328.875 33.7969C328.375 33.1169 327.985 32.0995 328.388 31.276C328.838 30.3492 330.029 30.1629 331.007 30.3895C331.392 30.4777 331.764 30.6212 332.123 30.795C332.043 30.6036 331.983 30.4071 331.942 30.2082C331.817 29.571 331.927 28.9817 332.259 28.5486C333.157 27.375 334.821 28.0399 335.688 28.4705C336.06 27.6168 337.141 27.2818 338.102 27.4103C339.2 27.5588 340.259 28.1884 341.111 28.6946C346.68 31.9988 360.1 40.8031 361.719 42.1403C361.822 42.226 361.857 42.3645 361.812 42.4879C360.728 45.3966 353.998 54.1359 352.014 54.2802C352.007 54.281 351.999 54.2812 351.992 54.2812Z" fill="#2E3130"/>
<path d="M340.281 46.582C340.226 46.582 340.172 46.5677 340.121 46.5367C340.076 46.5104 335.561 43.7666 334.033 42.7421C333.892 42.6466 333.854 42.4532 333.947 42.3123C334.043 42.1714 334.236 42.1332 334.376 42.2287C335.893 43.246 340.396 45.9803 340.441 46.0089C340.586 46.0973 340.634 46.2859 340.546 46.434C340.486 46.5295 340.384 46.582 340.281 46.582Z" fill="#2E3130"/>
<path d="M337.528 40.5117C337.462 40.5117 337.393 40.4904 337.339 40.4453C335.178 38.7572 332.411 36.7323 330.188 35.1034L329.784 34.8094C329.646 34.7075 329.618 34.5154 329.717 34.3755C329.817 34.238 330.011 34.2072 330.148 34.3091L330.553 34.6055C332.78 36.2344 335.552 38.264 337.718 39.9569C337.852 40.0636 337.876 40.258 337.772 40.3908C337.71 40.469 337.62 40.5117 337.528 40.5117Z" fill="#2E3130"/>
<path d="M340.113 36.7852C340.053 36.7852 339.991 36.7685 339.939 36.7303L333.517 32.2667C333.376 32.1688 333.343 31.9779 333.441 31.8371C333.536 31.6962 333.729 31.6604 333.87 31.7583L340.289 36.2218C340.429 36.3197 340.465 36.513 340.367 36.6539C340.308 36.7398 340.21 36.7852 340.113 36.7852Z" fill="#2E3130"/>
<path d="M342.062 33.3652C341.997 33.3652 341.935 33.3461 341.88 33.3077C339.997 31.9403 338.041 30.6257 336.058 29.4047C335.914 29.3135 335.869 29.124 335.957 28.9777C336.048 28.8337 336.238 28.7858 336.384 28.8769C338.378 30.1075 340.347 31.4293 342.244 32.8063C342.38 32.9071 342.411 33.1014 342.311 33.2381C342.251 33.3221 342.155 33.3652 342.062 33.3652Z" fill="#2E3130"/>
<path d="M362.302 109.561C362.179 109.561 362.066 109.488 362.015 109.367L358.35 100.299C358.287 100.14 358.363 99.9602 358.522 99.8956C358.68 99.8325 358.862 99.9082 358.925 100.067L362.587 109.135C362.653 109.294 362.577 109.474 362.418 109.538C362.381 109.553 362.34 109.561 362.302 109.561Z" fill="#2E3130"/>
<path d="M355.063 37.3605C355.063 37.3605 353.561 43.9824 345.98 50.6988C348.421 53.0286 357.924 60.5319 357.924 60.5319C357.924 60.5319 336.65 59.7118 330.577 59.4846C320.124 59.0933 311.656 61.7358 306.604 66.7803L294.59 78.1306L278.719 66.6346L264.988 80.9103L278.044 93.8826C287.693 103.002 302.753 103.009 312.411 93.8975L317.952 88.8716L319.398 119.393L366.324 112.599L359.799 81.0035C359.799 81.0035 382.413 82.3057 383.647 69.9201C385.476 51.573 355.063 37.3605 355.063 37.3605Z" fill="#10856D"/>
<path d="M370.758 61.3496C370.756 61.3496 370.75 61.3496 370.745 61.3493L357.916 60.8436C357.746 60.8369 357.612 60.6932 357.617 60.5225C357.625 60.3515 357.784 60.2199 357.939 60.2256L370.771 60.7313C370.941 60.7378 371.074 60.8817 371.067 61.0524C371.061 61.2191 370.925 61.3496 370.758 61.3496Z" fill="#2E3130"/>
<path d="M317.951 89.1816C317.79 89.1816 317.653 89.0536 317.644 88.8882L317.415 84.4056C317.406 84.235 317.536 84.0894 317.707 84.0808C317.877 84.0664 318.021 84.2028 318.03 84.3736L318.261 88.8562C318.27 89.027 318.138 89.1724 317.969 89.1814C317.963 89.1816 317.958 89.1816 317.951 89.1816Z" fill="#2E3130"/>
<path d="M85.0682 257.141H21.5559C21.5559 257.141 -0.265635 249.003 14.637 226.375C15.4715 225.108 17.4372 225.794 17.289 227.305C16.5835 234.5 16.8699 246.453 25.5758 250.781V248.392C25.5758 242.896 27.2245 237.527 30.3076 232.983L51.2657 202.093C51.2657 202.093 34.3802 196.061 62.9792 177.096C62.9792 177.096 62.1772 167.343 73.9325 171.58C73.9325 171.58 93.7131 159.113 97.4843 160.288C101.257 161.464 106.792 168.38 89.3118 190.3L85.9941 197.554C85.4175 198.816 85.1186 200.188 85.1186 201.577V246.512C85.1186 248.448 86.3214 250.143 88.1049 250.883C89.5612 251.489 90.7405 252.631 89.4138 254.778C88.4888 256.272 86.8219 257.141 85.0682 257.141Z" fill="white"/>
<path d="M21.6268 256.782H85.0721C86.7286 256.782 88.2772 255.942 89.1148 254.59C89.591 253.821 89.7433 253.154 89.5683 252.612C89.3869 252.049 88.8507 251.578 87.9727 251.215C86.0239 250.405 84.7656 248.56 84.7656 246.512V201.577C84.7656 200.126 85.0714 198.723 85.6743 197.405L88.9916 190.151C89.0046 190.125 89.0192 190.099 89.037 190.077C100.743 175.399 101.842 167.884 100.704 164.166C99.9391 161.671 98.1264 160.863 97.3828 160.631C94.4168 159.699 79.5896 168.439 74.1264 171.883C74.0337 171.941 73.919 171.954 73.8155 171.917C69.9698 170.531 67.1182 170.518 65.3401 171.879C63.0888 173.604 63.3359 177.033 63.3388 177.067C63.3488 177.197 63.2883 177.322 63.1799 177.395C48.8225 186.916 46.3033 192.986 46.7184 196.402C47.1812 200.211 51.3471 201.743 51.3894 201.757C51.4936 201.794 51.5744 201.877 51.6086 201.983C51.6429 202.088 51.6266 202.203 51.5647 202.294L30.6066 233.185C27.5511 237.688 25.9363 242.947 25.9363 248.393V250.782C25.9363 250.905 25.8725 251.02 25.7677 251.085C25.6621 251.15 25.5317 251.156 25.4209 251.101C16.4447 246.639 16.2531 234.256 16.9378 227.271C16.999 226.643 16.5907 226.269 16.2223 226.139C15.8502 226.007 15.2895 226.04 14.939 226.572C10.2182 233.74 8.73272 240.161 10.5237 245.657C12.9756 253.178 20.8713 256.482 21.6268 256.782ZM85.0721 257.498H21.5598C21.5173 257.498 21.4752 257.49 21.4354 257.475C21.3466 257.443 12.514 254.066 9.84561 245.878C7.98351 240.166 9.49651 233.537 14.343 226.179C14.811 225.469 15.6613 225.181 16.4607 225.464C17.253 225.746 17.7306 226.499 17.648 227.341C16.995 234.002 17.1388 245.699 25.2226 250.189V248.393C25.2226 242.804 26.8803 237.405 30.0163 232.782L50.7275 202.257C49.5704 201.734 46.438 200.013 46.01 196.488C45.374 191.255 50.9611 184.668 62.6163 176.911C62.5909 176.072 62.6635 173.035 64.9027 171.315C66.8582 169.814 69.8827 169.77 73.8931 171.185C76.5239 169.533 93.8514 158.784 97.5951 159.947C98.4471 160.214 100.522 161.135 101.386 163.957C102.575 167.837 101.496 175.591 89.6218 190.489L86.3236 197.704C85.7631 198.927 85.4791 200.23 85.4791 201.577V246.512C85.4791 248.27 86.565 249.857 88.2449 250.554C89.327 251.002 89.9992 251.621 90.2487 252.393C90.4901 253.144 90.3119 254.011 89.7206 254.967C88.7551 256.528 86.9732 257.498 85.0721 257.498Z" fill="#2E3130"/>
<path d="M84.6601 256.961C84.6318 256.961 84.6036 256.958 84.5751 256.951C84.3838 256.904 84.2663 256.711 84.313 256.518C84.635 255.199 83.5507 253.853 82.3613 253.363C81.0475 252.823 79.5258 252.961 78.0761 253.193L77.5297 253.284C76.1981 253.505 74.8207 253.732 73.4533 253.5C73.3111 253.475 73.1976 253.368 73.1652 253.229C73.1328 253.087 73.1877 252.941 73.305 252.857C77.758 249.654 80.9946 244.74 82.1849 239.374C82.6678 237.196 82.7331 235.327 82.3841 233.658C81.9696 231.677 80.9092 229.976 79.4748 228.99C76.6878 227.072 72.9435 227.851 70.2942 228.842C65.6208 230.59 61.5007 233.577 58.3794 237.48C58.2568 237.634 58.0328 237.66 57.8781 237.535C57.724 237.412 57.6992 237.186 57.8227 237.034C61.0241 233.029 65.2502 229.965 70.0445 228.172C72.8525 227.122 76.8377 226.309 79.8791 228.401C81.4629 229.49 82.6305 231.353 83.0825 233.512C83.4527 235.281 83.3867 237.25 82.8818 239.53C81.7211 244.761 78.6745 249.577 74.4642 252.88C75.4428 252.906 76.4393 252.74 77.4129 252.578L77.9639 252.487C79.5156 252.239 81.1562 252.094 82.6323 252.703C84.1274 253.318 85.4236 254.978 85.0065 256.688C84.9665 256.852 84.8207 256.961 84.6601 256.961Z" fill="#2E3130"/>
<path d="M75.8589 227.518C75.8119 227.518 75.7641 227.508 75.7181 227.488C75.537 227.41 75.4532 227.2 75.531 227.019L79.6952 217.309C79.7733 217.127 79.983 217.044 80.164 217.122C80.3451 217.2 80.4287 217.411 80.3511 217.591L76.1867 227.302C76.1286 227.436 75.9969 227.518 75.8589 227.518Z" fill="#2E3130"/>
<path d="M100.177 168.471C100.162 168.471 100.146 168.469 100.13 168.467C98.5308 168.252 97.021 167.414 95.9891 166.171C94.9556 164.928 94.408 163.289 94.4858 161.673C94.4955 161.475 94.664 161.319 94.86 161.332C95.056 161.342 95.2083 161.509 95.1986 161.707C95.1305 163.147 95.6181 164.607 96.5366 165.714C97.4567 166.82 98.8013 167.567 100.225 167.758C100.42 167.786 100.556 167.964 100.53 168.161C100.505 168.341 100.353 168.471 100.177 168.471Z" fill="#2E3130"/>
<path d="M71.606 210.588C71.1177 210.588 70.6345 210.547 70.1608 210.466C67.0397 209.926 64.4958 207.536 63.9748 204.654C63.5322 202.208 64.5387 199.735 65.4648 197.854C67.5498 193.619 70.3136 189.796 73.6793 186.492C73.8209 186.354 74.0464 186.356 74.1839 186.497C74.3219 186.638 74.3198 186.865 74.179 187.003C70.8707 190.25 68.154 194.007 66.1047 198.171C65.2272 199.952 64.2717 202.288 64.6774 204.527C65.1384 207.078 67.4954 209.278 70.2822 209.762C72.8316 210.202 75.6984 209.327 77.9533 207.417C79.8898 205.778 81.4178 203.43 82.4949 200.439C83.4609 197.757 83.9576 194.893 84.4377 192.121C84.4714 191.928 84.6566 191.798 84.8503 191.831C85.0444 191.865 85.1748 192.05 85.1409 192.244C84.6554 195.045 84.1534 197.94 83.1661 200.681C82.0462 203.792 80.4473 206.242 78.414 207.964C76.4152 209.655 73.956 210.588 71.606 210.588Z" fill="#2E3130"/>
<path d="M51.7746 201.789C51.701 201.789 51.6265 201.766 51.5627 201.719C51.4041 201.601 51.3707 201.379 51.4882 201.219L59.8199 189.93C59.9367 189.773 60.1601 189.739 60.319 189.855C60.4776 189.974 60.511 190.198 60.3935 190.355L52.0616 201.645C51.992 201.739 51.8839 201.789 51.7746 201.789Z" fill="#2E3130"/>
<path d="M63.2851 188.029C63.2744 188.029 63.2635 188.029 63.2527 188.028C61.6634 187.883 60.2221 186.845 59.5803 185.379C58.9383 183.916 59.1499 182.149 60.1189 180.876C60.9487 179.789 62.2736 179.143 63.6277 179.129L62.96 177.928C62.8642 177.756 62.9263 177.538 63.0983 177.443C63.2708 177.347 63.4876 177.407 63.5838 177.581L64.5706 179.356C64.6367 179.474 64.6295 179.62 64.5522 179.732C64.4748 179.844 64.3424 179.901 64.2058 179.883C62.8987 179.685 61.4871 180.26 60.6862 181.311C59.8848 182.361 59.7028 183.882 60.2339 185.092C60.7643 186.303 62.0031 187.197 63.3168 187.315C63.513 187.333 63.658 187.507 63.6403 187.703C63.6235 187.89 63.4678 188.029 63.2851 188.029Z" fill="#2E3130"/>
<path d="M79.5953 185.225C79.5835 185.225 79.5717 185.225 79.5597 185.223C79.3635 185.204 79.2203 185.028 79.2399 184.832C79.7019 180.188 77.8223 175.381 74.3351 172.291C74.1877 172.16 74.1738 171.934 74.3045 171.787C74.4352 171.639 74.6614 171.626 74.8083 171.756C78.4641 174.997 80.4345 180.033 79.95 184.903C79.9316 185.088 79.7764 185.225 79.5953 185.225Z" fill="#2E3130"/>
<path d="M76.0879 206.992C75.8942 206.992 75.7352 206.836 75.731 206.642C75.6071 200.772 78.0683 194.854 82.3151 190.814C82.4579 190.677 82.6841 190.684 82.8193 190.827C82.9553 190.969 82.9493 191.195 82.8064 191.331C78.7031 195.237 76.3249 200.956 76.4448 206.627C76.449 206.825 76.2925 206.987 76.0955 206.992C76.0928 206.992 76.0903 206.992 76.0879 206.992Z" fill="#2E3130"/>
<path d="M166.452 12.5512L104.276 120.501C100.021 127.889 105.344 137.123 113.86 137.123H238.207C246.724 137.123 252.047 127.889 247.79 120.501L185.617 12.5512C181.359 5.15857 170.708 5.15857 166.452 12.5512Z" fill="#10856D"/>
<path d="M171.345 21.6339L114.579 120.192C112.494 123.811 115.102 128.332 119.272 128.332H232.801C236.972 128.332 239.579 123.811 237.495 120.192L180.73 21.6339C178.645 18.0135 173.428 18.0135 171.345 21.6339Z" fill="white"/>
<path d="M151.52 114C149.205 114 147.152 113.326 145.36 111.978C143.568 110.63 142.448 108.776 142 106.417H146.667C146.94 107.5 147.513 108.379 148.384 109.053C149.28 109.703 150.325 110.028 151.52 110.028C153.163 110.028 154.407 109.594 155.253 108.728C156.124 107.837 156.56 106.645 156.56 105.153C156.56 103.732 156.124 102.565 155.253 101.65C154.382 100.735 153.138 100.278 151.52 100.278C149.678 100.278 148.185 101.06 147.04 102.625H142.56L144.053 88.3611H159.733V92.3333H147.973L147.413 98.1111H147.6C148.795 97.1481 150.412 96.6667 152.453 96.6667C154.992 96.6667 157.083 97.4852 158.725 99.1222C160.393 100.735 161.227 102.806 161.227 105.333C161.227 107.885 160.355 109.968 158.613 111.581C156.896 113.194 154.532 114 151.52 114Z" fill="#10856D"/>
<path d="M174.096 114C170.786 114 168.123 112.881 166.107 110.642C164.091 108.403 163.083 105.189 163.083 101C163.083 96.8111 164.091 93.5972 166.107 91.3583C168.123 89.1194 170.786 88 174.096 88C177.382 88 180.032 89.1194 182.048 91.3583C184.089 93.5972 185.11 96.8111 185.11 101C185.11 105.189 184.089 108.403 182.048 110.642C180.032 112.881 177.382 114 174.096 114ZM169.542 107.608C170.761 109.101 172.279 109.847 174.096 109.847C175.913 109.847 177.419 109.101 178.614 107.608C179.833 106.116 180.443 103.913 180.443 101C180.443 98.087 179.833 95.8843 178.614 94.3917C177.419 92.8991 175.913 92.1528 174.096 92.1528C172.279 92.1528 170.761 92.8991 169.542 94.3917C168.347 95.8843 167.75 98.087 167.75 101C167.75 103.913 168.347 106.116 169.542 107.608Z" fill="#10856D"/>
<path d="M197.987 114C194.676 114 192.013 112.881 189.997 110.642C187.981 108.403 186.973 105.189 186.973 101C186.973 96.8111 187.981 93.5972 189.997 91.3583C192.013 89.1194 194.676 88 197.987 88C201.272 88 203.923 89.1194 205.939 91.3583C207.98 93.5972 209 96.8111 209 101C209 105.189 207.98 108.403 205.939 110.642C203.923 112.881 201.272 114 197.987 114ZM193.432 107.608C194.652 109.101 196.17 109.847 197.987 109.847C199.804 109.847 201.309 109.101 202.504 107.608C203.724 106.116 204.333 103.913 204.333 101C204.333 98.087 203.724 95.8843 202.504 94.3917C201.309 92.8991 199.804 92.1528 197.987 92.1528C196.17 92.1528 194.652 92.8991 193.432 94.3917C192.237 95.8843 191.64 98.087 191.64 101C191.64 103.913 192.237 106.116 193.432 107.608Z" fill="#10856D"/>
<path d="M275.567 51.9766C275.537 51.9766 275.504 51.9723 275.474 51.9618C275.31 51.9092 275.222 51.7366 275.273 51.5725L277.405 44.8942C277.43 44.8163 277.485 44.7511 277.559 44.7132C277.632 44.6774 277.716 44.669 277.794 44.6942C280.658 45.6182 283.706 45.3656 286.381 43.9892C289.06 42.6085 291.041 40.2638 291.959 37.3866C293.855 31.4492 290.583 25.0698 284.664 23.1651C280.124 21.7002 275.134 23.2766 272.253 27.0862C272.15 27.2209 271.957 27.2482 271.821 27.1451C271.684 27.042 271.657 26.8483 271.76 26.7115C274.8 22.6936 280.063 21.0309 284.854 22.5758C291.094 24.5858 294.546 31.3145 292.546 37.574C291.577 40.609 289.489 43.082 286.665 44.5385C283.935 45.9444 280.834 46.2391 277.901 45.3741L275.863 51.7619C275.821 51.8924 275.699 51.9766 275.567 51.9766Z" fill="#2E3130"/>
<path d="M273.73 57.7578C273.7 57.7578 273.668 57.7538 273.637 57.7419C273.474 57.6903 273.385 57.5157 273.436 57.353L274.326 54.5709C274.377 54.4082 274.55 54.3169 274.714 54.3705C274.877 54.424 274.966 54.5967 274.912 54.7594L274.025 57.5415C273.983 57.6745 273.862 57.7578 273.73 57.7578Z" fill="#2E3130"/>
<path d="M235.854 59.3105C235.824 59.3105 235.791 59.305 235.76 59.2958C235.598 59.2442 235.508 59.0691 235.559 58.9069L237.364 53.258C237.388 53.1788 237.445 53.1143 237.517 53.0774C237.589 53.0387 237.675 53.0313 237.752 53.0571C240.161 53.8331 242.729 53.623 244.981 52.4637C247.235 51.3007 248.902 49.3287 249.674 46.9051C251.27 41.9087 248.515 36.5381 243.535 34.9346C239.712 33.7035 235.513 35.0305 233.088 38.2355C232.985 38.3701 232.792 38.3977 232.656 38.2945C232.52 38.1913 232.492 37.9978 232.597 37.8614C235.18 34.4462 239.653 33.0345 243.724 34.3467C249.029 36.0534 251.961 41.7723 250.263 47.0931C249.441 49.6733 247.663 51.7762 245.262 53.0129C242.957 54.2017 240.341 54.4542 237.859 53.7372L236.148 59.0949C236.107 59.2276 235.984 59.3105 235.854 59.3105Z" fill="#2E3130"/>
<path d="M234.301 64.2031C234.271 64.2031 234.238 64.1996 234.207 64.1892C234.045 64.137 233.955 63.9628 234.007 63.8009L234.758 61.4467C234.81 61.2831 234.982 61.1925 235.147 61.2465C235.309 61.2987 235.399 61.4711 235.347 61.6348L234.596 63.989C234.554 64.1195 234.431 64.2031 234.301 64.2031Z" fill="#2E3130"/>
<path d="M279.354 154.75C279.322 154.75 279.288 154.744 279.254 154.735C279.092 154.68 279.005 154.504 279.06 154.343L281.252 147.829C281.28 147.751 281.335 147.686 281.408 147.65C281.482 147.614 281.567 147.609 281.643 147.634C284.441 148.579 287.438 148.377 290.082 147.064C292.729 145.75 294.704 143.483 295.647 140.68C297.595 134.892 294.485 128.598 288.712 126.646C284.279 125.147 279.364 126.618 276.48 130.307C276.376 130.442 276.18 130.466 276.046 130.36C275.911 130.255 275.889 130.06 275.993 129.927C279.039 126.031 284.228 124.477 288.91 126.059C295.006 128.12 298.289 134.767 296.233 140.878C295.235 143.837 293.149 146.231 290.358 147.617C287.656 148.959 284.608 149.204 281.741 148.315L279.645 154.539C279.602 154.669 279.483 154.75 279.354 154.75Z" fill="#2E3130"/>
<path d="M277.459 160.389C277.427 160.389 277.393 160.383 277.359 160.372C277.199 160.318 277.112 160.143 277.167 159.98L278.08 157.267C278.134 157.104 278.311 157.017 278.471 157.073C278.633 157.126 278.72 157.302 278.666 157.465L277.752 160.178C277.708 160.307 277.587 160.389 277.459 160.389Z" fill="#2E3130"/>
<path d="M79.0571 71.4552C81.9221 93.0938 66.7556 112.966 45.1818 115.839C23.6079 118.712 3.79644 103.5 0.931431 81.8616C-1.93344 60.2231 13.2331 40.3512 34.8068 37.4779C56.3806 34.6045 76.1922 49.8167 79.0571 71.4552Z" fill="white"/>
<path d="M55.6254 93.0625C56.6008 92.3603 57.5276 91.5767 58.3958 90.7144C58.5736 90.8562 58.7582 90.9896 58.9564 91.1104C61.6155 92.7367 65.0853 91.8927 66.7065 89.2258C68.3277 86.5588 67.4863 83.0788 64.8272 81.4525C64.629 81.3318 64.4253 81.2279 64.2192 81.1338C64.9179 78.9022 65.2662 76.6103 65.2777 74.3324C65.5024 74.3057 65.7278 74.2692 65.9534 74.2144C68.98 73.4785 70.8386 70.4212 70.1047 67.385C69.3708 64.3501 66.3222 62.4851 63.2956 63.221C63.0702 63.2758 62.8536 63.3474 62.6414 63.4274C61.591 61.4079 60.2346 59.5303 58.5945 57.8675C58.7346 57.6892 58.8685 57.5038 58.9894 57.3058C60.6106 54.6375 59.7693 51.1574 57.1102 49.5312C54.451 47.9049 50.9812 48.7489 49.36 51.4172C49.2392 51.6153 49.1364 51.8203 49.0426 52.0267C46.8177 51.326 44.5324 50.9763 42.2608 50.965C42.2345 50.7389 42.1987 50.5128 42.1441 50.2867C41.4101 47.2519 38.3616 45.3869 35.335 46.1228C32.3083 46.8601 30.4498 49.9174 31.1837 52.9522C31.2383 53.1783 31.3096 53.396 31.3891 53.6095C30.2678 54.1951 29.1907 54.8776 28.1699 55.65L30.024 62.839L33.9018 63.2687L35.8106 65.805C39.1393 63.287 43.7958 62.9134 47.572 65.2236C52.5102 68.243 54.0728 74.706 51.062 79.6592C50.3536 80.8248 49.455 81.8037 48.4307 82.5775L49.7207 88.7104L52.935 89.1415L55.6254 93.0625Z" fill="white"/>
<path d="M49.9841 88.4339L52.982 88.8369C53.0686 88.8482 53.1461 88.8959 53.1955 88.9675L55.7059 92.6259C56.5789 91.9785 57.4117 91.2637 58.1843 90.4969C58.2959 90.3874 58.4711 90.3775 58.5933 90.4744C58.7829 90.6247 58.9564 90.7469 59.1232 90.848C60.3381 91.5923 61.7693 91.8156 63.1518 91.48C64.5364 91.1443 65.7071 90.2862 66.4487 89.0672C67.9787 86.5492 67.1818 83.2531 64.6722 81.7182C64.5041 81.6156 64.3214 81.5201 64.0973 81.4176C63.9553 81.353 63.8839 81.1929 63.9306 81.0441C64.6118 78.8673 64.9631 76.6091 64.9749 74.3326C64.9759 74.1753 65.0928 74.0447 65.2479 74.0264C65.4852 73.9983 65.694 73.9632 65.8866 73.9155C68.7429 73.2217 70.5032 70.3245 69.8105 67.4596C69.4747 66.072 68.6208 64.898 67.405 64.1551C66.1897 63.4122 64.7577 63.1875 63.3744 63.5231C63.1829 63.5709 62.9806 63.6341 62.7559 63.7183C62.6097 63.7731 62.4456 63.7113 62.3736 63.5723C61.324 61.5542 59.9808 59.7088 58.3809 58.0868C58.2714 57.9758 58.2615 57.8003 58.3577 57.6781C58.5105 57.4829 58.6297 57.3144 58.7319 57.1459C60.2616 54.6292 59.4648 51.3318 56.9551 49.7968C55.7403 49.0539 54.3099 48.8292 52.9259 49.1662C51.5416 49.5019 50.371 50.3599 49.6297 51.5789C49.5277 51.746 49.4297 51.9356 49.3296 52.1561C49.2651 52.298 49.1043 52.3696 48.956 52.3232C46.7872 51.6393 44.5363 51.2868 42.2654 51.2756C42.1095 51.2742 41.9787 51.1576 41.9602 51.0031C41.9313 50.7574 41.8963 50.5523 41.8499 50.3613C41.5142 48.9738 40.6602 47.7998 39.4444 47.0568C38.2293 46.3125 36.7973 46.0892 35.4138 46.4249C32.5572 47.12 30.7969 50.0159 31.4898 52.8822C31.5362 53.0746 31.598 53.2712 31.6842 53.5015C31.7388 53.649 31.6761 53.8119 31.5379 53.8849C30.4899 54.4326 29.4779 55.0688 28.5266 55.7752L30.2758 62.5569L33.9415 62.9628C34.0263 62.9712 34.1031 63.0161 34.1544 63.0835L35.8795 65.3769C39.405 62.8617 44.0258 62.6903 47.739 64.9612C52.8144 68.0649 54.426 74.7314 51.3317 79.8223C50.6535 80.9373 49.7952 81.9078 48.779 82.7054L49.9841 88.4339ZM55.6314 93.373C55.6136 93.373 55.596 93.3716 55.5782 93.3688C55.4966 93.3534 55.4239 93.307 55.3769 93.2382L52.7643 89.431L49.6857 89.0181C49.556 88.9998 49.4515 88.9029 49.4245 88.7751L48.1345 82.6436C48.1097 82.5257 48.1549 82.4049 48.2506 82.3333C49.2729 81.5595 50.1321 80.6059 50.8041 79.5007C53.7215 74.7005 52.2021 68.4145 47.417 65.4892C43.8339 63.297 39.3533 63.5189 36.0025 66.0538C35.937 66.1029 35.8542 66.1254 35.7737 66.1128C35.6925 66.1015 35.6192 66.0594 35.5697 65.9934L33.7413 63.5624L29.9963 63.1481C29.8687 63.1341 29.7631 63.0428 29.7312 62.9178L27.8771 55.7288C27.8457 55.6081 27.8903 55.4803 27.9898 55.4044C28.9444 54.6826 29.961 54.0296 31.0149 53.4622C30.9643 53.3091 30.923 53.1659 30.8896 53.0268C30.1166 49.8305 32.0807 46.599 35.2679 45.8238C36.8123 45.4488 38.4096 45.6988 39.7663 46.5288C41.1228 47.3574 42.0757 48.6677 42.45 50.2153C42.484 50.3557 42.5127 50.5004 42.5371 50.6605C44.6895 50.6956 46.822 51.0298 48.8845 51.6534C48.956 51.5101 49.0277 51.3795 49.102 51.2573C49.9294 49.8965 51.2359 48.9401 52.7805 48.5651C54.3232 48.1888 55.9209 48.4402 57.2771 49.2687C60.0766 50.9821 60.966 54.6587 59.2594 57.4675C59.1843 57.591 59.102 57.7132 59.0072 57.8438C60.5065 59.3985 61.779 61.1469 62.7957 63.0484C62.9463 62.9979 63.0891 62.9572 63.2285 62.922C64.7722 62.5485 66.37 62.7971 67.7269 63.627C69.0833 64.4556 70.0363 65.7659 70.4106 67.3149C71.1835 70.5113 69.2194 73.7427 66.0322 74.5179C65.8923 74.5517 65.7461 74.5797 65.5896 74.605C65.5536 76.7635 65.2211 78.9024 64.5989 80.971C64.7422 81.0441 64.8711 81.1143 64.9942 81.1901C67.7941 82.902 68.6832 86.5801 66.9766 89.3888C66.149 90.7497 64.8425 91.7061 63.2975 92.081C61.7541 92.4574 60.1571 92.206 58.8013 91.376C58.6798 91.303 58.5561 91.2187 58.427 91.1247C57.6101 91.9167 56.7312 92.6526 55.8117 93.3155C55.7587 93.3534 55.6956 93.373 55.6314 93.373Z" fill="#2E3130"/>
<path d="M43.8936 86.1923C40.565 88.7104 35.9084 89.0839 32.1323 86.7751C27.1941 83.7543 25.6316 77.2914 28.6423 72.3382C29.3507 71.1726 30.2493 70.1951 31.2736 69.4199L29.5024 67.0662L25.4283 66.4946L23.6329 59.2649C22.8202 59.88 22.0434 60.5541 21.3086 61.283C21.1308 61.1425 20.946 61.0077 20.748 60.8869C18.0887 59.2607 14.6189 60.1047 12.9977 62.7716C11.3765 65.4385 12.218 68.9185 14.877 70.5448C15.0753 70.667 15.279 70.7695 15.4851 70.8636C14.7863 73.0951 14.4381 75.3871 14.4266 77.665C14.2019 77.6917 13.9764 77.7282 13.7509 77.7829C10.7243 78.5188 8.86565 81.5762 9.59957 84.6124C10.3335 87.6487 13.382 89.5123 16.4087 88.7764C16.6341 88.7216 16.8507 88.65 17.0627 88.5699C18.1136 90.5894 19.4697 92.4685 21.1099 94.1312C20.9697 94.3082 20.8357 94.4936 20.7149 94.693C19.0937 97.3599 19.935 100.84 22.5942 102.466C25.2532 104.092 28.723 103.248 30.3442 100.582C30.4652 100.382 30.5679 100.178 30.6615 99.972C32.8865 100.673 35.1717 101.021 37.4433 101.034C37.4698 101.258 37.5055 101.485 37.5602 101.711C38.2941 104.747 41.3426 106.611 44.3693 105.875C47.3959 105.139 49.2546 102.081 48.5206 99.0451C48.466 98.819 48.3947 98.6014 48.3152 98.3893C49.2745 97.8865 50.2015 97.315 51.0885 96.6774L48.2991 92.6117L45.443 92.5906L43.8936 86.1923Z" fill="white"/>
<path d="M30.6651 99.6603C30.6958 99.6603 30.7269 99.666 30.7578 99.6744C32.9273 100.358 35.1782 100.711 37.4482 100.722C37.6041 100.723 37.7351 100.84 37.7534 100.996C37.7818 101.236 37.8179 101.447 37.8638 101.636C38.1994 103.024 39.0535 104.198 40.2692 104.942C41.4849 105.685 42.9168 105.91 44.2998 105.573C47.1563 104.878 48.9167 101.982 48.224 99.1168C48.1775 98.9244 48.1138 98.7222 48.0294 98.4961C47.9749 98.3501 48.0375 98.1857 48.1756 98.1127C49.0333 97.6647 49.8696 97.1563 50.6649 96.5988L48.1395 92.9193L45.4439 92.8983C45.3025 92.8969 45.1798 92.8 45.1463 92.6624L43.7054 86.712C40.1975 89.1402 35.6427 89.2806 31.9749 87.0378C26.8993 83.9342 25.2877 77.2676 28.3819 72.1768C29.0411 71.0926 29.8695 70.146 30.8472 69.361L29.3363 67.3527L25.389 66.8008C25.2641 66.7826 25.1625 66.6913 25.132 66.5691L23.4507 59.7986C22.7806 60.3281 22.1358 60.8997 21.5293 61.5007C21.4183 61.6117 21.2428 61.6215 21.1204 61.5246C20.931 61.3743 20.7578 61.2522 20.5906 61.1496C19.3755 60.4053 17.9439 60.182 16.5614 60.5177C15.1771 60.8547 14.0065 61.7114 13.2652 62.9318C11.7349 65.4484 12.5318 68.7459 15.0416 70.2795C15.2088 70.382 15.3916 70.4775 15.6166 70.5814C15.7584 70.646 15.8299 70.8061 15.783 70.955C15.1018 73.1303 14.7504 75.3886 14.7387 77.6651C14.7378 77.8223 14.6211 77.9529 14.4661 77.9712C14.2224 78.0007 14.0194 78.0358 13.8273 78.0822C10.9707 78.7773 9.21046 81.6731 9.90316 84.5381C10.2388 85.927 11.093 87.0996 12.3086 87.8439C13.5245 88.5869 14.9565 88.8116 16.3392 88.4745C16.5315 88.4282 16.728 88.365 16.9577 88.2793C17.1037 88.2245 17.268 88.2877 17.3402 88.4254C18.3905 90.4448 19.7337 92.2902 21.3331 93.9122C21.4428 94.0232 21.4525 94.1987 21.3559 94.3209C21.2034 94.5147 21.0845 94.6832 20.9823 94.8518C19.4518 97.3698 20.2485 100.666 22.7585 102.201C23.9733 102.944 25.4046 103.167 26.787 102.833C28.1716 102.496 29.3423 101.639 30.084 100.419C30.1865 100.25 30.2818 100.068 30.384 99.8415C30.4353 99.7292 30.5469 99.6603 30.6651 99.6603ZM43.0329 106.344C41.9538 106.344 40.8923 106.047 39.9473 105.47C38.591 104.64 37.6379 103.331 37.2636 101.782C37.2298 101.643 37.2012 101.496 37.1768 101.339C35.0254 101.302 32.8929 100.969 30.8291 100.344C30.7578 100.488 30.6868 100.617 30.6117 100.74C29.7841 102.103 28.4778 103.059 26.9327 103.434C25.389 103.809 23.7926 103.557 22.4365 102.729C19.6366 101.017 18.7473 97.3389 20.4545 94.5302C20.5296 94.4066 20.6116 94.2844 20.7064 94.1538C19.2081 92.6006 17.9354 90.8521 16.9179 88.9492C16.7665 89.0011 16.6235 89.0419 16.4851 89.0756C14.941 89.4505 13.3432 89.202 11.9867 88.372C10.6303 87.542 9.67731 86.2317 9.30299 84.6841C8.5301 81.4878 10.4942 78.2563 13.6814 77.4811C13.8198 77.4474 13.966 77.4193 14.1241 77.394C14.1599 75.2355 14.4928 73.0952 15.115 71.0266C14.9716 70.955 14.8425 70.8833 14.7197 70.8075C11.9194 69.0956 11.0305 65.4175 12.7373 62.6088C13.5646 61.2479 14.8711 60.2916 16.416 59.9166C17.9577 59.5416 19.5558 59.7916 20.9123 60.6216C21.0342 60.696 21.1581 60.7789 21.2865 60.873C21.9691 60.2115 22.6956 59.588 23.4498 59.0164C23.533 58.9546 23.6416 58.9363 23.7391 58.9729C23.8371 59.0066 23.9109 59.088 23.9359 59.1891L25.6812 66.2166L29.5487 66.7587C29.6298 66.7699 29.7031 66.8135 29.7526 66.8781L31.5236 69.2332C31.6263 69.3694 31.5991 69.5632 31.4631 69.6658C30.4411 70.4382 29.5818 71.3917 28.9096 72.4984C25.9921 77.2971 27.5114 83.5831 32.2967 86.5098C35.88 88.7006 40.3612 88.4787 43.7111 85.9438C43.794 85.882 43.9029 85.8652 44.0009 85.9003C44.0989 85.9354 44.1728 86.0169 44.1972 86.118L45.6897 92.2818L48.305 92.3014C48.4058 92.3028 48.4999 92.352 48.5571 92.4362L51.3464 96.5005C51.4415 96.6395 51.4086 96.8277 51.2722 96.926C50.4527 97.5173 49.5879 98.058 48.6985 98.5354C48.749 98.6871 48.7904 98.8318 48.824 98.9708C49.5969 102.167 47.6328 105.399 44.4458 106.174C43.9771 106.288 43.503 106.344 43.0329 106.344Z" fill="#2E3130"/>
<path d="M36.6125 37.5881C36.4539 37.5881 36.3192 37.4659 36.3052 37.3044C36.2905 37.1345 36.4162 36.9842 36.586 36.9701C37.7326 36.8704 38.8953 36.8185 40.0418 36.8185L40.3653 36.8199C40.5358 36.8213 40.6731 36.9617 40.6715 37.133C40.67 37.3016 40.5322 37.4392 40.3627 37.4392C40.3617 37.4392 40.3609 37.4392 40.36 37.4392L40.0418 37.4378C38.9129 37.4378 37.7685 37.4884 36.6397 37.5867C36.6307 37.5867 36.6216 37.5881 36.6125 37.5881ZM47.8174 38.2186C47.7972 38.2186 47.7764 38.2172 47.756 38.213C46.5433 37.9659 45.3049 37.7763 44.076 37.6485C43.9062 37.6302 43.7831 37.4785 43.8009 37.3086C43.8182 37.1387 43.9681 37.0109 44.1399 37.0333C45.3888 37.1625 46.6467 37.3563 47.8783 37.6063C48.0457 37.64 48.1537 37.8029 48.1199 37.9715C48.09 38.1175 47.9612 38.2186 47.8174 38.2186ZM29.2395 38.9363C29.1051 38.9363 28.9811 38.8478 28.9427 38.7116C28.8963 38.5473 28.9917 38.3759 29.156 38.3296C30.3602 37.9883 31.5994 37.7004 32.8386 37.4743C33.0063 37.442 33.1674 37.5544 33.1978 37.7229C33.2285 37.89 33.1176 38.0515 32.9495 38.0824C31.7297 38.3057 30.5095 38.5894 29.3236 38.925C29.2956 38.9335 29.2676 38.9363 29.2395 38.9363ZM54.9872 40.4095C54.9476 40.4095 54.9078 40.401 54.8693 40.3856C53.7271 39.9123 52.5482 39.4896 51.3646 39.1273C51.2014 39.0781 51.1097 38.9054 51.1595 38.7425C51.2089 38.5782 51.3812 38.4855 51.5448 38.536C52.747 38.904 53.945 39.3337 55.1051 39.814C55.2628 39.8786 55.3375 40.0598 55.2725 40.2171C55.2233 40.3364 55.1083 40.4095 54.9872 40.4095ZM22.2562 41.6608C22.143 41.6608 22.0345 41.599 21.9803 41.4908C21.9033 41.3378 21.9646 41.1524 22.1168 41.0751C23.2396 40.5078 24.4016 39.9895 25.5709 39.5331C25.7295 39.4699 25.9089 39.55 25.9705 39.7101C26.0323 39.8688 25.9535 40.0471 25.7945 40.1103C24.6438 40.5583 23.5003 41.0695 22.395 41.627C22.3502 41.6495 22.3029 41.6608 22.2562 41.6608ZM61.6122 43.9218C61.554 43.9218 61.4953 43.9049 61.4427 43.8712C60.4095 43.1901 59.3314 42.5511 58.2391 41.9711C58.0883 41.8925 58.0307 41.7043 58.1107 41.554C58.1905 41.4024 58.3765 41.3448 58.5281 41.4248C59.6378 42.0133 60.7325 42.6621 61.7823 43.3544C61.9247 43.4471 61.9642 43.6395 61.8704 43.7828C61.8113 43.8726 61.7126 43.9218 61.6122 43.9218ZM15.9187 45.6674C15.8264 45.6674 15.7352 45.6267 15.6742 45.548C15.5699 45.4132 15.5946 45.218 15.7294 45.1141C16.7234 44.3431 17.7653 43.6128 18.826 42.9415C18.9707 42.8517 19.1611 42.8938 19.2521 43.0384C19.3432 43.1831 19.3002 43.3741 19.1559 43.4654C18.1115 44.1254 17.086 44.8445 16.1075 45.6028C16.0512 45.6464 15.9849 45.6674 15.9187 45.6674ZM67.4575 48.6222C67.3799 48.6222 67.3021 48.5927 67.2421 48.5352C66.3558 47.6715 65.4172 46.8401 64.4528 46.0649C64.3199 45.9581 64.2985 45.7629 64.4054 45.6309C64.5123 45.4975 64.7067 45.4764 64.8395 45.5832C65.819 46.371 66.7723 47.215 67.6728 48.0914C67.7949 48.2108 67.798 48.406 67.6788 48.5281C67.6185 48.5913 67.5379 48.6222 67.4575 48.6222ZM10.4535 50.806C10.3809 50.806 10.3081 50.7808 10.2494 50.7288C10.1215 50.615 10.1092 50.4198 10.222 50.292C11.0521 49.3483 11.9373 48.4326 12.8529 47.5718C12.9778 47.4552 13.1729 47.4608 13.2896 47.5858C13.4063 47.7108 13.4 47.906 13.2758 48.0226C12.3743 48.8708 11.5027 49.771 10.6852 50.7007C10.6243 50.7709 10.5389 50.806 10.4535 50.806ZM72.3125 54.3408C72.2151 54.3408 72.1192 54.2945 72.0589 54.2088C71.3523 53.1949 70.5873 52.202 69.7852 51.2568C69.6749 51.1262 69.6906 50.931 69.8206 50.8201C69.9497 50.7105 70.1446 50.7246 70.2557 50.8566C71.0704 51.8158 71.8475 52.8241 72.5656 53.8535C72.663 53.994 72.6289 54.1864 72.489 54.2847C72.4353 54.3226 72.3735 54.3408 72.3125 54.3408ZM6.05127 56.8828C5.99785 56.8828 5.94388 56.8687 5.89453 56.8392C5.74775 56.7521 5.69882 56.564 5.7856 56.4165C6.42418 55.3323 7.12165 54.2664 7.85907 53.2482C7.95889 53.1106 8.1525 53.0783 8.29031 53.1794C8.42854 53.2805 8.45924 53.4743 8.359 53.612C7.63321 54.6147 6.94612 55.6637 6.31749 56.7311C6.25987 56.828 6.15697 56.8828 6.05127 56.8828ZM75.9972 60.8782C75.8788 60.8782 75.7659 60.8094 75.7146 60.6942C75.2122 59.5623 74.6496 58.4416 74.0418 57.363C73.958 57.2142 74.0104 57.026 74.1592 56.9417C74.3078 56.8589 74.4956 56.9108 74.5799 57.0597C75.1969 58.1537 75.7687 59.2927 76.2792 60.4428C76.3483 60.5987 76.2783 60.7813 76.1224 60.8515C76.0816 60.8698 76.0392 60.8782 75.9972 60.8782ZM2.87068 63.6827C2.83605 63.6827 2.80114 63.6771 2.76679 63.6645C2.60613 63.6069 2.52243 63.4299 2.57977 63.2698C3.00232 62.0845 3.48697 60.9063 4.02027 59.7659C4.09261 59.6114 4.27697 59.5454 4.4309 59.6171C4.58525 59.6901 4.65185 59.8741 4.57937 60.0285C4.05448 61.1506 3.5774 62.3106 3.16158 63.4777C3.11644 63.6041 2.99741 63.6827 2.87068 63.6827ZM78.3731 67.9984C78.2325 67.9984 78.1056 67.9015 78.0724 67.7582C77.7931 66.549 77.4533 65.3427 77.0622 64.17C77.0082 64.0071 77.0952 63.833 77.2573 63.7782C77.4192 63.7234 77.5938 63.8119 77.6478 63.9734C78.0449 65.1643 78.3902 66.3904 78.6744 67.6192C78.7127 67.7849 78.6092 67.952 78.4431 67.9899C78.4195 67.9955 78.3963 67.9984 78.3731 67.9984ZM1.03413 70.963C1.01857 70.963 1.00287 70.9616 0.98703 70.9588C0.818376 70.9335 0.702576 70.7748 0.728512 70.6063C0.918475 69.362 1.1711 68.1121 1.47869 66.8931C1.52075 66.7274 1.68954 66.6291 1.85385 66.6698C2.01928 66.7119 2.11938 66.8791 2.0776 67.0448C1.77478 68.2455 1.52621 69.4757 1.33891 70.7004C1.3155 70.8534 1.18414 70.963 1.03413 70.963ZM79.3744 75.5103C79.2094 75.5103 79.0724 75.3783 79.0661 75.2126C79.0189 73.9768 78.9123 72.7269 78.7494 71.4952L78.7404 71.425C78.7184 71.2551 78.8376 71.1006 79.0067 71.0781C79.1753 71.0557 79.3306 71.175 79.3527 71.345L79.3616 71.4138C79.5272 72.6637 79.6356 73.9332 79.6831 75.1887C79.6898 75.3587 79.5568 75.5033 79.3864 75.5089C79.3825 75.5103 79.3786 75.5103 79.3744 75.5103ZM0.61201 78.4595C0.446861 78.4595 0.309892 78.3289 0.303723 78.1618C0.283395 77.645 0.273299 77.1212 0.273439 76.6072C0.273439 75.8643 0.294611 75.1129 0.335968 74.3742C0.345642 74.2029 0.492846 74.0737 0.66178 74.0835C0.831975 74.0919 0.962216 74.238 0.952823 74.4093C0.911886 75.1368 0.890995 75.8755 0.890995 76.6072C0.890855 77.1141 0.90095 77.6281 0.920578 78.1379C0.927307 78.3093 0.794541 78.4525 0.624205 78.4595C0.62014 78.4595 0.616076 78.4595 0.61201 78.4595ZM78.9464 83.0055C78.9307 83.0055 78.915 83.0041 78.8991 83.0027C78.7305 82.976 78.615 82.8187 78.6409 82.6488C78.829 81.4256 78.9603 80.1785 79.0309 78.9412C79.0405 78.7699 79.1879 78.6449 79.3566 78.6491C79.5269 78.6589 79.6572 78.805 79.6473 78.9763C79.5757 80.2332 79.4425 81.5014 79.2513 82.7429C79.2277 82.8959 79.0962 83.0055 78.9464 83.0055ZM1.6036 85.9013C1.46313 85.9013 1.33597 85.8058 1.30289 85.6626C1.02166 84.4408 0.794541 83.1866 0.627991 81.9353C0.605279 81.7668 0.724166 81.6109 0.89324 81.5885C1.06175 81.5674 1.21779 81.6854 1.24022 81.8539C1.40425 83.0855 1.62786 84.32 1.90488 85.5235C1.94315 85.6892 1.83941 85.8564 1.67328 85.8943C1.64987 85.8999 1.62646 85.9013 1.6036 85.9013ZM77.1031 90.2843C77.0685 90.2843 77.0336 90.2787 76.9991 90.2661C76.8383 90.2085 76.7549 90.0316 76.8123 89.8715C77.2298 88.703 77.5956 87.5037 77.899 86.3044C77.9409 86.1386 78.1083 86.0389 78.2746 86.0797C78.4397 86.1218 78.5398 86.2903 78.4979 86.456C78.1895 87.675 77.8179 88.894 77.3939 90.0793C77.3487 90.2057 77.2298 90.2843 77.1031 90.2843ZM3.97401 93.0243C3.85554 93.0243 3.74269 92.9555 3.69152 92.8403C3.18303 91.6915 2.72348 90.502 2.32617 89.3083C2.27219 89.1454 2.35981 88.9713 2.5216 88.9165C2.68338 88.8631 2.85834 88.9502 2.91204 89.1117C3.30332 90.2886 3.75558 91.4584 4.25608 92.5889C4.32533 92.7462 4.25496 92.9288 4.09892 92.9976C4.05826 93.0158 4.01579 93.0243 3.97401 93.0243ZM73.9155 97.0815C73.8621 97.0815 73.8078 97.0675 73.7586 97.038C73.6117 96.9509 73.5632 96.7613 73.6501 96.6152C74.28 95.5465 74.866 94.4385 75.391 93.3178C75.4634 93.1633 75.6483 93.0973 75.8018 93.1703C75.9562 93.2419 76.0226 93.4259 75.9501 93.5818C75.4167 94.7193 74.8217 95.8457 74.1815 96.9298C74.1238 97.0267 74.0211 97.0815 73.9155 97.0815ZM7.65284 99.5644C7.55513 99.5644 7.45923 99.5181 7.39909 99.4324C6.68017 98.3988 6.00374 97.3203 5.38815 96.2262C5.30431 96.0774 5.35688 95.8878 5.50549 95.8049C5.65382 95.7193 5.84238 95.7726 5.92607 95.9215C6.53213 96.9986 7.19834 98.0604 7.9059 99.0785C8.00319 99.219 7.96884 99.4114 7.82893 99.5097C7.77523 99.5462 7.71369 99.5644 7.65284 99.5644ZM69.5082 103.155C69.4355 103.155 69.3625 103.129 69.3037 103.077C69.1758 102.964 69.1638 102.769 69.2766 102.64C70.0948 101.713 70.8782 100.734 71.6057 99.7316C71.7058 99.5925 71.8985 99.563 72.0369 99.6627C72.175 99.7639 72.2056 99.9563 72.105 100.095C71.3665 101.113 70.5706 102.108 69.7398 103.05C69.6786 103.119 69.5936 103.155 69.5082 103.155ZM12.5024 105.287C12.4246 105.287 12.3472 105.259 12.2872 105.2C11.3861 104.321 10.5177 103.39 9.70599 102.432C9.59552 102.302 9.61164 102.106 9.74146 101.997C9.87212 101.886 10.0667 101.901 10.177 102.032C10.976 102.974 11.8309 103.891 12.7178 104.756C12.8399 104.876 12.8427 105.071 12.7238 105.193C12.6632 105.256 12.5831 105.287 12.5024 105.287ZM64.0391 108.287C63.9464 108.287 63.8552 108.246 63.7945 108.168C63.6902 108.033 63.7148 107.838 63.85 107.734C64.8274 106.977 65.7806 106.164 66.6839 105.317C66.8082 105.2 67.0042 105.206 67.1203 105.331C67.2369 105.456 67.2306 105.651 67.1061 105.768C66.1887 106.628 65.2204 107.454 64.2275 108.222C64.1714 108.266 64.1047 108.287 64.0391 108.287ZM18.3428 109.993C18.2846 109.993 18.2256 109.976 18.1734 109.943C17.1232 109.249 16.0955 108.498 15.118 107.71C14.9851 107.603 14.9643 107.409 15.0711 107.276C15.1785 107.142 15.3724 107.121 15.5053 107.228C16.4673 108.005 17.4795 108.743 18.513 109.426C18.6556 109.52 18.6948 109.711 18.601 109.854C18.5416 109.944 18.4433 109.993 18.3428 109.993ZM57.6984 112.289C57.5853 112.289 57.4765 112.228 57.4221 112.12C57.3455 111.966 57.4068 111.781 57.5593 111.704C58.6628 111.148 59.7534 110.53 60.7998 109.87C60.9445 109.778 61.1351 109.822 61.2257 109.967C61.3167 110.111 61.2734 110.301 61.1291 110.392C60.0657 111.063 58.9583 111.691 57.8368 112.256C57.7925 112.278 57.7451 112.289 57.6984 112.289ZM24.9653 113.511C24.9258 113.511 24.8857 113.504 24.847 113.489C23.686 113.006 22.5352 112.464 21.4262 111.874C21.2754 111.794 21.2182 111.607 21.2979 111.455C21.378 111.305 21.5649 111.247 21.7157 111.327C22.8074 111.907 23.9405 112.443 25.0835 112.916C25.2409 112.982 25.3156 113.163 25.2506 113.32C25.2014 113.44 25.0861 113.511 24.9653 113.511ZM50.7111 115.007C50.5762 115.007 50.4526 114.917 50.414 114.781C50.3679 114.616 50.4635 114.445 50.6276 114.399C51.8196 114.063 53.0074 113.666 54.1578 113.218C54.3171 113.157 54.4955 113.235 54.5578 113.395C54.6192 113.553 54.5405 113.733 54.3815 113.795C53.2126 114.25 52.0061 114.653 50.7952 114.994C50.7672 115.003 50.7387 115.007 50.7111 115.007ZM32.1338 115.708C32.1134 115.708 32.0928 115.706 32.072 115.702C30.8429 115.451 29.6099 115.138 28.4066 114.768C28.2435 114.719 28.1515 114.546 28.2015 114.382C28.2513 114.219 28.4246 114.126 28.5869 114.177C29.7718 114.539 30.9856 114.85 32.1951 115.095C32.3624 115.131 32.47 115.293 32.436 115.461C32.4064 115.608 32.2777 115.708 32.1338 115.708ZM43.3366 116.349C43.1779 116.349 43.0431 116.227 43.0292 116.067C43.0145 115.896 43.1405 115.747 43.3103 115.732C43.9156 115.68 44.5308 115.612 45.1391 115.532C45.7631 115.448 46.3895 115.35 47.0013 115.239C47.1718 115.208 47.33 115.32 47.3605 115.487C47.3906 115.656 47.2794 115.817 47.1116 115.847C46.4904 115.96 45.8541 116.06 45.2206 116.144C44.6029 116.227 43.978 116.296 43.3634 116.348C43.3543 116.349 43.3453 116.349 43.3366 116.349ZM39.5874 116.494C39.5864 116.494 39.5854 116.494 39.5846 116.494C38.3261 116.483 37.0562 116.41 35.8097 116.279C35.64 116.261 35.5169 116.109 35.535 115.939C35.5528 115.769 35.706 115.647 35.8742 115.664C37.1011 115.793 38.3515 115.865 39.5901 115.876C39.7607 115.878 39.8977 116.017 39.8961 116.188C39.8946 116.358 39.7565 116.494 39.5874 116.494Z" fill="#2E3130"/>
</svg>
