<svg width="88" height="34" viewBox="0 0 88 34" fill="none" xmlns="http://www.w3.org/2000/svg">
<path d="M0 4C0 1.79086 1.79086 0 4 0H84C86.2091 0 88 1.79086 88 4V30C88 32.2091 86.2091 34 84 34H4C1.79086 34 0 32.2091 0 30V4Z" fill="#F5F8F7"/>
<path fill-rule="evenodd" clip-rule="evenodd" d="M19.1592 8C19.2411 9.04502 18.9026 10.0801 18.2155 10.8854C17.8865 11.2849 17.4689 11.6063 16.9942 11.8254C16.5195 12.0445 16.0001 12.1556 15.4751 12.1504C15.4416 11.6478 15.5098 11.1438 15.676 10.667C15.8421 10.1903 16.1029 9.75014 16.4434 9.37183C17.1398 8.59745 18.1094 8.10764 19.1592 8ZM21.0741 15.6059C20.7252 16.206 20.5375 16.8824 20.5284 17.5724C20.5293 18.3484 20.7641 19.1071 21.2036 19.7538C21.6431 20.4004 22.2679 20.9064 23 21.2087C22.7122 22.1217 22.2783 22.9844 21.7144 23.765C20.9572 24.8709 20.1632 25.9514 18.9031 25.9713C18.3037 25.9848 17.8992 25.8166 17.4776 25.6413C17.0379 25.4584 16.5797 25.2678 15.8627 25.2678C15.1022 25.2678 14.6235 25.4645 14.1618 25.6542C13.7628 25.8182 13.3765 25.9769 12.8321 25.9989C11.632 26.0423 10.7148 24.8186 9.93004 23.723C8.3615 21.4857 7.14014 17.418 8.77755 14.6502C9.15556 13.987 9.70308 13.4308 10.3668 13.0356C11.0305 12.6404 11.7877 12.4198 12.5646 12.3953C13.2453 12.3817 13.8984 12.6378 14.471 12.8623C14.909 13.0341 15.2998 13.1873 15.6198 13.1873C15.9012 13.1873 16.2811 13.0401 16.7239 12.8686C17.4214 12.5983 18.2748 12.2676 19.1444 12.3567C19.811 12.3771 20.4634 12.5489 21.05 12.8585C21.6366 13.1681 22.1412 13.607 22.5236 14.1403C21.9216 14.5016 21.4229 15.0058 21.0741 15.6059Z" fill="#CFD2D1"/>
<path d="M27 21L30.18 12.6H31.32L34.5 21H33.48L32.7 18.9H28.8L28.02 21H27ZM29.16 18H32.34L30.78 13.74H30.72L29.16 18ZM35.22 23.4V14.76H35.94L36.06 15.6H36.12C36.568 14.96 37.248 14.64 38.16 14.64C38.96 14.64 39.608 14.924 40.104 15.492C40.608 16.06 40.86 16.856 40.86 17.88C40.86 18.904 40.608 19.7 40.104 20.268C39.608 20.836 38.96 21.12 38.16 21.12C37.304 21.12 36.644 20.82 36.18 20.22H36.12V23.4H35.22ZM36.636 19.656C36.988 20.072 37.456 20.28 38.04 20.28C38.624 20.28 39.088 20.072 39.432 19.656C39.784 19.24 39.96 18.648 39.96 17.88C39.96 17.112 39.784 16.52 39.432 16.104C39.088 15.688 38.624 15.48 38.04 15.48C37.456 15.48 36.988 15.688 36.636 16.104C36.292 16.52 36.12 17.112 36.12 17.88C36.12 18.648 36.292 19.24 36.636 19.656ZM42.1195 23.4V14.76H42.8395L42.9595 15.6H43.0195C43.4675 14.96 44.1475 14.64 45.0595 14.64C45.8595 14.64 46.5075 14.924 47.0035 15.492C47.5075 16.06 47.7595 16.856 47.7595 17.88C47.7595 18.904 47.5075 19.7 47.0035 20.268C46.5075 20.836 45.8595 21.12 45.0595 21.12C44.2035 21.12 43.5435 20.82 43.0795 20.22H43.0195V23.4H42.1195ZM43.5355 19.656C43.8875 20.072 44.3555 20.28 44.9395 20.28C45.5235 20.28 45.9875 20.072 46.3315 19.656C46.6835 19.24 46.8595 18.648 46.8595 17.88C46.8595 17.112 46.6835 16.52 46.3315 16.104C45.9875 15.688 45.5235 15.48 44.9395 15.48C44.3555 15.48 43.8875 15.688 43.5355 16.104C43.1915 16.52 43.0195 17.112 43.0195 17.88C43.0195 18.648 43.1915 19.24 43.5355 19.656ZM54.2358 21.12C53.4118 21.12 52.7318 20.916 52.1958 20.508C51.6678 20.1 51.3278 19.544 51.1758 18.84H52.1958C52.4998 19.76 53.1798 20.22 54.2358 20.22C54.8998 20.22 55.4038 20.08 55.7478 19.8C56.0998 19.52 56.2758 19.16 56.2758 18.72C56.2758 18.432 56.1838 18.192 55.9998 18C55.8238 17.8 55.5918 17.652 55.3038 17.556C55.0238 17.452 54.7078 17.36 54.3558 17.28C54.0118 17.2 53.6678 17.108 53.3238 17.004C52.9798 16.892 52.6638 16.756 52.3758 16.596C52.0958 16.428 51.8638 16.192 51.6798 15.888C51.5038 15.576 51.4158 15.2 51.4158 14.76C51.4158 14.104 51.6678 13.56 52.1718 13.128C52.6758 12.696 53.3638 12.48 54.2358 12.48C54.9958 12.48 55.6278 12.656 56.1318 13.008C56.6358 13.36 56.9638 13.864 57.1158 14.52H56.0958C55.8158 13.76 55.1958 13.38 54.2358 13.38C53.6598 13.38 53.2158 13.508 52.9038 13.764C52.5918 14.02 52.4358 14.352 52.4358 14.76C52.4358 15.112 52.5558 15.404 52.7958 15.636C53.0358 15.86 53.3358 16.02 53.6958 16.116C54.0558 16.204 54.4438 16.308 54.8598 16.428C55.2838 16.548 55.6758 16.676 56.0358 16.812C56.3958 16.948 56.6958 17.18 56.9358 17.508C57.1758 17.828 57.2958 18.232 57.2958 18.72C57.2958 19.384 57.0198 19.952 56.4678 20.424C55.9238 20.888 55.1798 21.12 54.2358 21.12ZM60.4739 21C60.0259 21 59.6539 20.852 59.3579 20.556C59.0619 20.26 58.9139 19.888 58.9139 19.44V15.6H57.9539V14.76H58.9139L59.0339 13.08H59.8139V14.76H61.4339V15.6H59.8139V19.44C59.8139 19.648 59.8819 19.82 60.0179 19.956C60.1539 20.092 60.3259 20.16 60.5339 20.16H61.4339V21H60.4739ZM67.1903 20.268C66.6623 20.836 65.9663 21.12 65.1023 21.12C64.2383 21.12 63.5423 20.836 63.0143 20.268C62.4863 19.7 62.2223 18.904 62.2223 17.88C62.2223 16.856 62.4863 16.06 63.0143 15.492C63.5423 14.924 64.2383 14.64 65.1023 14.64C65.9663 14.64 66.6623 14.924 67.1903 15.492C67.7183 16.06 67.9823 16.856 67.9823 17.88C67.9823 18.904 67.7183 19.7 67.1903 20.268ZM63.6623 19.656C64.0303 20.072 64.5103 20.28 65.1023 20.28C65.6943 20.28 66.1703 20.072 66.5303 19.656C66.8983 19.232 67.0823 18.64 67.0823 17.88C67.0823 17.12 66.8983 16.532 66.5303 16.116C66.1703 15.692 65.6943 15.48 65.1023 15.48C64.5103 15.48 64.0303 15.692 63.6623 16.116C63.3023 16.532 63.1223 17.12 63.1223 17.88C63.1223 18.64 63.3023 19.232 63.6623 19.656ZM69.2461 21V14.76H69.9661L70.0861 15.6H70.1461C70.4821 15.04 71.0421 14.76 71.8261 14.76H72.4861V15.6H71.8261C71.3461 15.6 70.9461 15.748 70.6261 16.044C70.3061 16.34 70.1461 16.712 70.1461 17.16V21H69.2461ZM75.7373 21.12C74.8733 21.12 74.1773 20.836 73.6493 20.268C73.1213 19.7 72.8573 18.904 72.8573 17.88C72.8573 16.856 73.1173 16.06 73.6373 15.492C74.1653 14.924 74.8453 14.64 75.6773 14.64C76.1333 14.64 76.5453 14.732 76.9133 14.916C77.2893 15.092 77.5893 15.324 77.8133 15.612C78.0373 15.9 78.2053 16.208 78.3173 16.536C78.4373 16.864 78.4973 17.192 78.4973 17.52L78.4373 18.12H73.7573C73.7893 18.816 73.9853 19.352 74.3453 19.728C74.7133 20.096 75.1773 20.28 75.7373 20.28C76.4573 20.28 76.9973 19.98 77.3573 19.38H78.3173C78.1093 19.94 77.7773 20.372 77.3213 20.676C76.8733 20.972 76.3453 21.12 75.7373 21.12ZM73.7573 17.34H77.5973C77.5413 16.756 77.3373 16.3 76.9853 15.972C76.6333 15.644 76.1973 15.48 75.6773 15.48C75.1573 15.48 74.7213 15.644 74.3693 15.972C74.0173 16.3 73.8133 16.756 73.7573 17.34Z" fill="#CFD2D1"/>
</svg>
