<svg width="138" height="39" viewBox="0 0 138 39" fill="none" xmlns="http://www.w3.org/2000/svg">
<path d="M39.6647 27.2891H16.0254V29.5635H39.6647V27.2891Z" fill="white"/>
<path d="M39.6658 22.7402H20.7529V25.0147H39.6658V22.7402Z" fill="white"/>
<path d="M39.6658 18.1934H25.4834V20.4678H39.6658V18.1934Z" fill="white"/>
<path d="M39.6669 13.6426H30.2109V15.917H39.6669V13.6426Z" fill="white"/>
<path d="M39.6621 9.0957H34.9355V11.3702H39.6621V9.0957Z" fill="white"/>
<path d="M0.259766 15.9182C0.391061 15.1527 0.567189 14.3949 0.787308 13.6484H23.9642V15.921L0.259766 15.9182Z" fill="url(#paint0_linear_88_7379)"/>
<path d="M1.60547 27.2891H9.77801V29.5635H2.75868C2.32644 28.8287 1.94131 28.0691 1.60547 27.2891Z" fill="url(#paint1_linear_88_7379)"/>
<path d="M38.8855 31.8379C38.2551 32.6432 37.5648 33.4033 36.82 34.1123H6.37115C5.62697 33.4033 4.93731 32.6431 4.30762 31.8379H38.8855Z" fill="url(#paint2_linear_88_7379)"/>
<path d="M33.9956 36.3848C32.6369 37.3022 31.1724 38.0654 29.6315 38.6592H13.5672C12.0235 38.066 10.5565 37.3028 9.19531 36.3848H33.9956Z" fill="url(#paint3_linear_88_7379)"/>
<path d="M19.2344 18.1952V20.4678H0V18.1934L19.2344 18.1952Z" fill="url(#paint4_linear_88_7379)"/>
<path d="M14.5053 22.7412V25.0138H0.78535C0.565191 24.266 0.388744 23.507 0.256836 22.7402L14.5053 22.7412Z" fill="url(#paint5_linear_88_7379)"/>
<path d="M33.9956 2.27352H9.19531C10.5546 1.35657 12.0193 0.593675 13.5604 0L29.6296 0C31.171 0.593611 32.6361 1.3565 33.9956 2.27352Z" fill="url(#paint6_linear_88_7379)"/>
<path d="M38.8874 6.82515H4.30762C4.9374 6.01967 5.62671 5.25893 6.37018 4.54883H36.8209C37.566 5.25856 38.2567 6.01933 38.8874 6.82515Z" fill="url(#paint7_linear_88_7379)"/>
<path d="M1.60547 11.3702C1.94059 10.5899 2.3254 9.83034 2.75771 9.0957H28.687V11.3683L1.60547 11.3702Z" fill="url(#paint8_linear_88_7379)"/>
<path fill-rule="evenodd" clip-rule="evenodd" d="M109.717 4.58008L104.721 16.6236L99.6954 4.58008H94.7251V24.6164H97.936V8.22406L102.723 19.773H106.686L111.505 8.22032V24.6164H114.712V4.58008H109.717ZM62.2856 14.6965C63.5651 14.6965 63.8993 14.3422 63.8993 12.982V9.21746C63.8993 7.85354 63.5651 7.50391 62.2856 7.50391H53.4019V14.6965H62.2856ZM67.1053 9.21746V12.982H67.0947C67.0947 16.1156 65.5898 17.5927 62.3701 17.6207L66.9684 24.6161H63.1551L58.5986 17.6207H53.4019V24.6161H50.1958V4.58162H62.2856C65.5761 4.58162 67.1063 6.05118 67.1053 9.21746ZM80.7519 7.79745L77.6838 16.3605H83.8424L80.7519 7.79745ZM78.4912 4.58162H82.9806L90.2098 24.6161H86.8191L84.8926 19.2875H76.6346L74.7323 24.6161H71.3465L78.4912 4.58162ZM137.891 9.21406V11.4296L134.685 11.4352V9.21966C134.685 7.85948 134.351 7.50985 133.071 7.50985H125.801C124.518 7.50985 124.188 7.85948 124.188 9.21966C124.188 11.0454 124.447 11.4511 125.91 11.9185L133.18 14.2556C136.713 15.3905 137.891 16.3599 137.891 19.9796C137.891 23.1459 136.357 24.6183 133.071 24.6183H125.801C122.512 24.6183 120.982 23.1459 120.982 19.9796V17.7631H124.188V19.974C124.188 21.3342 124.518 21.6876 125.801 21.6876H133.071C134.351 21.6876 134.685 21.3342 134.685 19.974C134.685 18.1483 134.426 17.7426 132.962 17.2751L125.692 14.9381C122.156 13.8032 120.982 12.8337 120.982 9.21406C120.982 6.05151 122.512 4.58008 125.801 4.58008H133.071C136.357 4.58008 137.891 6.05151 137.891 9.21406ZM50.1758 34.0303V30.5508H52.558V31.0977H50.8219V32.0933H52.4259V32.6411H50.8219V34.0303H50.1758ZM53.9918 30.5462L52.6724 34.0294H53.3467L53.6255 33.2815H55.1605L55.4403 34.0294H56.1126L54.7913 30.5462H53.9918ZM54.9594 32.7356H53.8266L54.3794 31.2398H54.4057L54.9594 32.7356ZM58.1467 34.0832C57.6331 34.0832 57.2244 33.9274 56.9206 33.6158C56.6168 33.3042 56.4653 32.862 56.4659 32.2893C56.4659 31.7153 56.6175 31.2731 56.9206 30.9628C57.2237 30.6524 57.6324 30.4966 58.1467 30.4953C58.4978 30.4802 58.8441 30.5789 59.1299 30.7758C59.3926 30.9761 59.5827 31.2513 59.673 31.562H59.0007C58.9322 31.4004 58.8132 31.2634 58.6602 31.1697C58.5072 31.0761 58.3278 31.0306 58.1467 31.0394C58.0037 31.0336 57.8613 31.0595 57.7304 31.1151C57.5995 31.1707 57.4837 31.2545 57.3918 31.3601C57.2053 31.5745 57.112 31.8823 57.112 32.2837C57.112 32.685 57.2053 32.9929 57.3918 33.2073C57.4837 33.3128 57.5995 33.3966 57.7304 33.4522C57.8613 33.5078 58.0037 33.5337 58.1467 33.528C58.3278 33.5368 58.5072 33.4913 58.6602 33.3976C58.8132 33.304 58.9322 33.1669 59.0007 33.0054H59.673C59.5827 33.316 59.3926 33.5913 59.1299 33.7916C58.8456 33.9924 58.4992 34.0952 58.1467 34.0832ZM60.3865 30.5508V34.0303H61.0337V30.5508H60.3865ZM61.9544 34.0303V30.5508H62.6005V33.4871H64.3337V34.0303H61.9544ZM64.9701 30.5508V34.0303H65.6173V30.5508H64.9701ZM67.362 34.0303V31.0977H66.2554V30.5508H69.1214V31.0977H68.009V34.0303H67.362ZM70.5626 32.7883V34.0288H71.2135V32.7883L72.4765 30.5446H71.8081L70.9036 32.1619H70.8774L69.9719 30.5446H69.2996L70.5626 32.7883ZM74.0565 34.0303V30.5508H75.0134L75.9714 33.1384H75.9976L76.9546 30.5508H77.9144V34.0303H77.2674V31.3716H77.2344L76.2541 34.0303H75.711L74.7288 31.3679H74.7025V34.0303H74.0565ZM79.7367 30.5462L78.4183 34.0294H79.0945L79.3733 33.2815H80.9064L81.1852 34.0294H81.8575L80.5392 30.5462H79.7367ZM80.7043 32.7393H79.5676L80.1253 31.2436H80.1505L80.7043 32.7393ZM82.3643 34.0303V30.5508H83.2173L84.7717 33.1683H84.797V30.5508H85.444V34.0303H84.5901L83.0356 31.4127H83.0094V34.0303H82.3643ZM87.269 30.5462L85.9506 34.0294H86.6229L86.9017 33.2815H88.4377L88.7175 34.0294H89.3898L88.0705 30.5462H87.269ZM88.2366 32.7356H87.1038L87.6566 31.2398H87.6829L88.2366 32.7356ZM91.4195 34.0832C90.9058 34.0832 90.4975 33.9274 90.1944 33.6158C89.8912 33.3042 89.7394 32.862 89.7387 32.2893C89.7387 31.7153 89.8906 31.2731 90.1944 30.9628C90.4981 30.6524 90.9065 30.4966 91.4195 30.4953C91.7706 30.4802 92.1169 30.5789 92.4027 30.7758C92.6654 30.9761 92.8555 31.2513 92.9457 31.562H92.2744C92.2054 31.4012 92.0859 31.2651 91.9326 31.1728C91.7794 31.0804 91.6 31.0364 91.4195 31.0469C91.2765 31.0411 91.1341 31.067 91.0032 31.1226C90.8723 31.1782 90.7565 31.262 90.6646 31.3675C90.478 31.5819 90.3851 31.8898 90.3857 32.2912C90.3864 32.6925 90.4793 33.0004 90.6646 33.2148C90.7565 33.3203 90.8723 33.4041 91.0032 33.4597C91.1341 33.5153 91.2765 33.5412 91.4195 33.5354C91.5427 33.5416 91.6659 33.5232 91.7813 33.4812C91.8967 33.4392 92.0017 33.3745 92.0898 33.2914C92.2517 33.1362 92.3544 32.933 92.3813 32.7146H91.3689V32.1911H93.0205V32.4398C93.0205 32.9384 92.8774 33.3385 92.5911 33.6401C92.3049 33.9418 91.9143 34.0895 91.4195 34.0832ZM93.7917 30.5508V34.0303H96.2225V33.4871H94.4378V32.5411H96.0671V32.0185H94.4378V31.0977H96.171V30.5508H93.7917ZM97.0115 34.0303V30.5508H97.9685L98.9254 33.1384H98.9517L99.9086 30.5508H100.866V34.0303H100.219V31.3716H100.193L99.2101 34.0303H98.667L97.6848 31.3679H97.6585V34.0303H97.0115ZM101.788 30.5508V34.0303H104.219V33.4871H102.434V32.5411H104.064V32.0185H102.434V31.0977H104.168V30.5508H101.788ZM105.008 34.0303V30.5508H105.862L107.417 33.1683H107.443V30.5508H108.089V34.0303H107.236L105.681 31.4127H105.656V34.0303H105.008ZM109.836 31.0977V34.0303H110.482V31.0977H111.595V30.5508H108.724V31.0977H109.836ZM114.547 34.0826C114.2 34.0974 113.858 34.001 113.575 33.8087C113.449 33.7163 113.344 33.6003 113.266 33.4678C113.188 33.3352 113.138 33.1889 113.12 33.0375H113.766C113.804 33.1874 113.899 33.3181 114.033 33.403C114.185 33.4952 114.363 33.5412 114.543 33.5348C114.795 33.5348 114.982 33.4909 115.106 33.403C115.166 33.3617 115.215 33.3067 115.248 33.2429C115.28 33.1791 115.296 33.1085 115.293 33.0375C115.294 32.981 115.281 32.9251 115.254 32.8747C115.227 32.8244 115.188 32.781 115.14 32.7486C115.028 32.6717 114.898 32.6205 114.762 32.599C114.612 32.5728 114.448 32.5364 114.271 32.4896C114.104 32.4463 113.94 32.3939 113.779 32.3326C113.624 32.2708 113.493 32.1648 113.402 32.0288C113.296 31.8696 113.243 31.6831 113.25 31.494C113.243 31.3543 113.272 31.2152 113.333 31.0883C113.395 30.9615 113.486 30.8506 113.601 30.7649C113.836 30.5873 114.15 30.4984 114.543 30.4984C114.936 30.4984 115.244 30.5823 115.469 30.7499C115.697 30.9196 115.848 31.1691 115.887 31.4445H115.24C115.158 31.179 114.925 31.0463 114.543 31.0463C114.371 31.0342 114.2 31.078 114.057 31.1706C114.005 31.2079 113.962 31.2567 113.934 31.313C113.905 31.3693 113.89 31.4314 113.892 31.494C113.891 31.5639 113.91 31.6325 113.947 31.6924C113.985 31.7522 114.039 31.8007 114.104 31.8325C114.265 31.9191 114.44 31.9806 114.621 32.0147C114.824 32.0559 115.028 32.1082 115.232 32.1615C115.429 32.2142 115.608 32.3183 115.748 32.4625C115.895 32.6197 115.972 32.8263 115.961 33.0375C115.963 33.1822 115.929 33.3254 115.862 33.4553C115.796 33.5852 115.699 33.6982 115.578 33.7853C115.328 33.9835 114.984 34.0826 114.547 34.0826ZM116.681 30.5508V34.0303H119.112V33.4871H117.328V32.5411H118.957V32.0185H117.328V31.0977H119.06V30.5508H116.681ZM119.903 34.0298V30.5503H121.403C121.719 30.5374 122.028 30.6445 122.262 30.8485C122.373 30.951 122.46 31.075 122.517 31.2124C122.574 31.3497 122.6 31.4972 122.594 31.645C122.596 31.8015 122.567 31.957 122.508 32.1031C122.46 32.2266 122.382 32.3374 122.281 32.4265C122.197 32.499 122.105 32.5618 122.006 32.6135C121.921 32.6572 121.832 32.6917 121.74 32.7163L122.701 34.0298H121.978L121.047 32.736H120.555V34.0298H119.903ZM120.55 32.1881H121.357C121.514 32.196 121.668 32.1443 121.786 32.0442C121.89 31.9335 121.947 31.79 121.947 31.6413C121.947 31.4925 121.89 31.349 121.786 31.2383C121.667 31.1374 121.511 31.0854 121.352 31.0934H120.55V32.1881ZM122.948 30.5462L124.189 34.0294H125.042L126.284 30.5462H125.585L124.628 33.3329H124.603L123.646 30.5462H122.948ZM126.842 34.0303V30.5508H127.489V34.0303H126.842ZM128.707 33.617C129.009 33.9286 129.418 34.0844 129.933 34.0844V34.0807C130.277 34.1011 130.618 34.0054 130.896 33.81C131.175 33.6146 131.373 33.3317 131.458 33.0103H130.786C130.718 33.1723 130.6 33.3098 130.447 33.4035C130.294 33.4973 130.114 33.5425 129.933 33.5329C129.79 33.5387 129.647 33.5129 129.516 33.4573C129.385 33.4017 129.269 33.3178 129.177 33.2122C128.992 32.9978 128.899 32.69 128.898 32.2886C128.898 31.8873 128.991 31.5794 129.177 31.365C129.269 31.2594 129.385 31.1756 129.516 31.12C129.647 31.0644 129.79 31.0385 129.933 31.0443C130.114 31.0347 130.294 31.08 130.447 31.1737C130.6 31.2674 130.718 31.4049 130.786 31.5669H131.458C131.373 31.2455 131.175 30.9627 130.896 30.7672C130.618 30.5718 130.277 30.4761 129.933 30.4965C129.419 30.4978 129.011 30.6536 128.707 30.964C128.403 31.2743 128.251 31.7165 128.251 32.2905C128.253 32.8632 128.404 33.3054 128.707 33.617ZM132.175 34.0303V30.5508H134.556V31.0977H132.823V32.0185H134.452V32.5411H132.823V33.4871H134.608V34.0303H132.175ZM135.614 33.8087C135.897 34.0011 136.239 34.0975 136.585 34.0826C137.024 34.0826 137.367 33.9835 137.615 33.7853C137.736 33.6984 137.833 33.5853 137.9 33.4554C137.966 33.3255 138 33.1823 137.998 33.0375C138.009 32.8265 137.932 32.62 137.786 32.4625C137.646 32.3185 137.467 32.2144 137.269 32.1615C137.065 32.1082 136.862 32.0559 136.658 32.0147C136.477 31.9806 136.303 31.9191 136.141 31.8325C136.077 31.8007 136.023 31.7522 135.985 31.6924C135.948 31.6325 135.929 31.5639 135.93 31.494C135.928 31.4313 135.942 31.3692 135.971 31.3129C136 31.2566 136.042 31.2078 136.095 31.1706C136.238 31.0778 136.409 31.034 136.581 31.0463C136.964 31.0463 137.197 31.179 137.279 31.4445H137.925C137.886 31.1691 137.735 30.9196 137.506 30.7499C137.279 30.5826 136.973 30.4984 136.581 30.4984C136.188 30.4984 135.873 30.5873 135.639 30.7649C135.524 30.8507 135.433 30.9617 135.372 31.0885C135.31 31.2153 135.282 31.3543 135.287 31.494C135.28 31.6831 135.334 31.8696 135.44 32.0288C135.531 32.1648 135.663 32.2708 135.818 32.3326C135.978 32.394 136.143 32.4465 136.31 32.4896C136.486 32.5364 136.651 32.5728 136.8 32.599C136.936 32.6204 137.066 32.6715 137.178 32.7486C137.226 32.7809 137.265 32.8241 137.292 32.8745C137.319 32.925 137.332 32.9809 137.331 33.0375C137.333 33.1085 137.318 33.1791 137.285 33.2429C137.253 33.3067 137.204 33.3617 137.144 33.403C137.021 33.4909 136.832 33.5348 136.581 33.5348C136.401 33.5411 136.224 33.4952 136.071 33.403C135.937 33.3187 135.842 33.1877 135.805 33.0375H135.158C135.176 33.189 135.226 33.3354 135.304 33.468C135.382 33.6005 135.488 33.7164 135.614 33.8087Z" fill="white"/>
<defs>
<linearGradient id="paint0_linear_88_7379" x1="0.259766" y1="14.7843" x2="23.9642" y2="14.7843" gradientUnits="userSpaceOnUse">
<stop stop-color="white"/>
<stop offset="0.15" stop-color="white" stop-opacity="0.98"/>
<stop offset="0.31" stop-color="white" stop-opacity="0.91"/>
<stop offset="0.46" stop-color="white" stop-opacity="0.79"/>
<stop offset="0.61" stop-color="white" stop-opacity="0.63"/>
<stop offset="0.76" stop-color="white" stop-opacity="0.42"/>
<stop offset="0.91" stop-color="white" stop-opacity="0.17"/>
<stop offset="1" stop-color="white" stop-opacity="0"/>
</linearGradient>
<linearGradient id="paint1_linear_88_7379" x1="1.60547" y1="28.4258" x2="9.77801" y2="28.4258" gradientUnits="userSpaceOnUse">
<stop stop-color="white"/>
<stop offset="0.15" stop-color="white" stop-opacity="0.98"/>
<stop offset="0.31" stop-color="white" stop-opacity="0.91"/>
<stop offset="0.46" stop-color="white" stop-opacity="0.79"/>
<stop offset="0.61" stop-color="white" stop-opacity="0.63"/>
<stop offset="0.76" stop-color="white" stop-opacity="0.42"/>
<stop offset="0.91" stop-color="white" stop-opacity="0.17"/>
<stop offset="1" stop-color="white" stop-opacity="0"/>
</linearGradient>
<linearGradient id="paint2_linear_88_7379" x1="4.30762" y1="32.9746" x2="38.8855" y2="32.9746" gradientUnits="userSpaceOnUse">
<stop stop-color="white"/>
<stop offset="0.15" stop-color="white" stop-opacity="0.98"/>
<stop offset="0.31" stop-color="white" stop-opacity="0.91"/>
<stop offset="0.46" stop-color="white" stop-opacity="0.79"/>
<stop offset="0.61" stop-color="white" stop-opacity="0.63"/>
<stop offset="0.76" stop-color="white" stop-opacity="0.42"/>
<stop offset="0.91" stop-color="white" stop-opacity="0.17"/>
<stop offset="1" stop-color="white" stop-opacity="0"/>
</linearGradient>
<linearGradient id="paint3_linear_88_7379" x1="9.19531" y1="37.5215" x2="33.9956" y2="37.5215" gradientUnits="userSpaceOnUse">
<stop stop-color="white"/>
<stop offset="0.15" stop-color="white" stop-opacity="0.98"/>
<stop offset="0.31" stop-color="white" stop-opacity="0.91"/>
<stop offset="0.46" stop-color="white" stop-opacity="0.79"/>
<stop offset="0.61" stop-color="white" stop-opacity="0.63"/>
<stop offset="0.76" stop-color="white" stop-opacity="0.42"/>
<stop offset="0.91" stop-color="white" stop-opacity="0.17"/>
<stop offset="1" stop-color="white" stop-opacity="0"/>
</linearGradient>
<linearGradient id="paint4_linear_88_7379" x1="0" y1="19.3301" x2="19.2344" y2="19.3301" gradientUnits="userSpaceOnUse">
<stop stop-color="white"/>
<stop offset="0.15" stop-color="white" stop-opacity="0.98"/>
<stop offset="0.31" stop-color="white" stop-opacity="0.91"/>
<stop offset="0.46" stop-color="white" stop-opacity="0.79"/>
<stop offset="0.61" stop-color="white" stop-opacity="0.63"/>
<stop offset="0.76" stop-color="white" stop-opacity="0.42"/>
<stop offset="0.91" stop-color="white" stop-opacity="0.17"/>
<stop offset="1" stop-color="white" stop-opacity="0"/>
</linearGradient>
<linearGradient id="paint5_linear_88_7379" x1="0.256836" y1="23.8765" x2="14.5053" y2="23.8765" gradientUnits="userSpaceOnUse">
<stop stop-color="white"/>
<stop offset="0.15" stop-color="white" stop-opacity="0.98"/>
<stop offset="0.31" stop-color="white" stop-opacity="0.91"/>
<stop offset="0.46" stop-color="white" stop-opacity="0.79"/>
<stop offset="0.61" stop-color="white" stop-opacity="0.63"/>
<stop offset="0.76" stop-color="white" stop-opacity="0.42"/>
<stop offset="0.91" stop-color="white" stop-opacity="0.17"/>
<stop offset="1" stop-color="white" stop-opacity="0"/>
</linearGradient>
<linearGradient id="paint6_linear_88_7379" x1="9.19531" y1="1.13629" x2="33.9956" y2="1.13629" gradientUnits="userSpaceOnUse">
<stop stop-color="white"/>
<stop offset="0.15" stop-color="white" stop-opacity="0.98"/>
<stop offset="0.31" stop-color="white" stop-opacity="0.91"/>
<stop offset="0.46" stop-color="white" stop-opacity="0.79"/>
<stop offset="0.61" stop-color="white" stop-opacity="0.63"/>
<stop offset="0.76" stop-color="white" stop-opacity="0.42"/>
<stop offset="0.91" stop-color="white" stop-opacity="0.17"/>
<stop offset="1" stop-color="white" stop-opacity="0"/>
</linearGradient>
<linearGradient id="paint7_linear_88_7379" x1="4.30762" y1="5.68652" x2="38.8874" y2="5.68652" gradientUnits="userSpaceOnUse">
<stop stop-color="white"/>
<stop offset="0.15" stop-color="white" stop-opacity="0.98"/>
<stop offset="0.31" stop-color="white" stop-opacity="0.91"/>
<stop offset="0.46" stop-color="white" stop-opacity="0.79"/>
<stop offset="0.61" stop-color="white" stop-opacity="0.63"/>
<stop offset="0.76" stop-color="white" stop-opacity="0.42"/>
<stop offset="0.91" stop-color="white" stop-opacity="0.17"/>
<stop offset="1" stop-color="white" stop-opacity="0"/>
</linearGradient>
<linearGradient id="paint8_linear_88_7379" x1="1.60547" y1="10.2325" x2="28.687" y2="10.2325" gradientUnits="userSpaceOnUse">
<stop stop-color="white"/>
<stop offset="0.15" stop-color="white" stop-opacity="0.98"/>
<stop offset="0.31" stop-color="white" stop-opacity="0.91"/>
<stop offset="0.46" stop-color="white" stop-opacity="0.79"/>
<stop offset="0.61" stop-color="white" stop-opacity="0.63"/>
<stop offset="0.76" stop-color="white" stop-opacity="0.42"/>
<stop offset="0.91" stop-color="white" stop-opacity="0.17"/>
<stop offset="1" stop-color="white" stop-opacity="0"/>
</linearGradient>
</defs>
</svg>
