<svg width="101" height="34" viewBox="0 0 101 34" fill="none" xmlns="http://www.w3.org/2000/svg">
<path d="M0 4C0 1.79086 1.79086 0 4 0H97.0001C99.2092 0 101 1.79086 101 4V30C101 32.2091 99.2092 34 97.0001 34H4C1.79086 34 0 32.2091 0 30V4Z" fill="#F5F8F7"/>
<path d="M16.4045 16.54L8.07715 25.5779C8.07793 25.5795 8.07793 25.5819 8.07871 25.5835C8.33447 26.5649 9.21045 27.2871 10.2507 27.2871C10.6668 27.2871 11.0571 27.1719 11.3918 26.9704L11.4184 26.9544L20.7914 21.4237L16.4045 16.54Z" fill="#CFD2D1" stroke="#F5F8F7" stroke-width="0.8"/>
<path d="M24.8284 15.0001L24.8206 14.9945L20.7739 12.5959L16.2148 16.7445L20.7903 21.4219L24.8151 19.0472C25.5206 18.6569 26.0001 17.8963 26.0001 17.0197C26.0001 16.1479 25.5277 15.3913 24.8284 15.0001Z" fill="#CFD2D1" stroke="#F5F8F7" stroke-width="0.8"/>
<path d="M8.07665 8.4225C8.02659 8.61125 8 8.80961 8 9.01436V24.9851C8 25.1899 8.02659 25.3882 8.07743 25.5762L16.6902 16.7694L8.07665 8.4225Z" fill="#CFD2D1" stroke="#F5F8F7" stroke-width="0.8"/>
<path d="M16.4653 17L20.7748 12.5938L11.4127 7.04308C11.0725 6.83433 10.6752 6.71435 10.2505 6.71435C9.21026 6.71435 8.33271 7.43819 8.07695 8.42036C8.07695 8.42116 8.07617 8.42196 8.07617 8.42276L16.4653 17Z" fill="#CFD2D1" stroke="#F5F8F7" stroke-width="0.8"/>
<path d="M34.38 21.12C33.236 21.12 32.32 20.744 31.632 19.992C30.944 19.24 30.6 18.176 30.6 16.8C30.6 15.424 30.944 14.36 31.632 13.608C32.32 12.856 33.236 12.48 34.38 12.48C36.06 12.48 37.2 13.26 37.8 14.82H36.72C36.272 13.86 35.492 13.38 34.38 13.38C33.548 13.38 32.88 13.68 32.376 14.28C31.872 14.872 31.62 15.712 31.62 16.8C31.62 17.888 31.872 18.732 32.376 19.332C32.88 19.924 33.548 20.22 34.38 20.22C35.172 20.22 35.8 19.96 36.264 19.44C36.728 18.92 36.96 18.32 36.96 17.64H34.38V16.74H37.98V17.22C37.98 18.42 37.656 19.372 37.008 20.076C36.368 20.772 35.492 21.12 34.38 21.12ZM43.9661 20.268C43.4381 20.836 42.7421 21.12 41.8781 21.12C41.0141 21.12 40.3181 20.836 39.7901 20.268C39.2621 19.7 38.9981 18.904 38.9981 17.88C38.9981 16.856 39.2621 16.06 39.7901 15.492C40.3181 14.924 41.0141 14.64 41.8781 14.64C42.7421 14.64 43.4381 14.924 43.9661 15.492C44.4941 16.06 44.7581 16.856 44.7581 17.88C44.7581 18.904 44.4941 19.7 43.9661 20.268ZM40.4381 19.656C40.8061 20.072 41.2861 20.28 41.8781 20.28C42.4701 20.28 42.9461 20.072 43.3061 19.656C43.6741 19.232 43.8581 18.64 43.8581 17.88C43.8581 17.12 43.6741 16.532 43.3061 16.116C42.9461 15.692 42.4701 15.48 41.8781 15.48C41.2861 15.48 40.8061 15.692 40.4381 16.116C40.0781 16.532 39.8981 17.12 39.8981 17.88C39.8981 18.64 40.0781 19.232 40.4381 19.656ZM50.6899 20.268C50.1619 20.836 49.4659 21.12 48.6019 21.12C47.7379 21.12 47.0419 20.836 46.5139 20.268C45.9859 19.7 45.7219 18.904 45.7219 17.88C45.7219 16.856 45.9859 16.06 46.5139 15.492C47.0419 14.924 47.7379 14.64 48.6019 14.64C49.4659 14.64 50.1619 14.924 50.6899 15.492C51.2179 16.06 51.4819 16.856 51.4819 17.88C51.4819 18.904 51.2179 19.7 50.6899 20.268ZM47.1619 19.656C47.5299 20.072 48.0099 20.28 48.6019 20.28C49.1939 20.28 49.6699 20.072 50.0299 19.656C50.3979 19.232 50.5819 18.64 50.5819 17.88C50.5819 17.12 50.3979 16.532 50.0299 16.116C49.6699 15.692 49.1939 15.48 48.6019 15.48C48.0099 15.48 47.5299 15.692 47.1619 16.116C46.8019 16.532 46.6219 17.12 46.6219 17.88C46.6219 18.64 46.8019 19.232 47.1619 19.656ZM55.3256 23.4C54.6696 23.4 54.0936 23.24 53.5976 22.92C53.1096 22.608 52.7656 22.148 52.5656 21.54H53.5256C53.8376 22.22 54.4376 22.56 55.3256 22.56C55.8856 22.56 56.3336 22.416 56.6696 22.128C57.0136 21.848 57.1856 21.432 57.1856 20.88V19.8H57.1256C56.6936 20.36 56.0336 20.64 55.1456 20.64C54.3456 20.64 53.6936 20.376 53.1896 19.848C52.6936 19.312 52.4456 18.576 52.4456 17.64C52.4456 16.704 52.6936 15.972 53.1896 15.444C53.6936 14.908 54.3456 14.64 55.1456 14.64C56.0416 14.64 56.7216 14.94 57.1856 15.54H57.2456L57.3656 14.76H58.0856V20.88C58.0856 21.672 57.8336 22.288 57.3296 22.728C56.8256 23.176 56.1576 23.4 55.3256 23.4ZM53.8616 19.236C54.2136 19.612 54.6816 19.8 55.2656 19.8C55.8496 19.8 56.3136 19.612 56.6576 19.236C57.0096 18.852 57.1856 18.32 57.1856 17.64C57.1856 16.96 57.0096 16.432 56.6576 16.056C56.3136 15.672 55.8496 15.48 55.2656 15.48C54.6816 15.48 54.2136 15.672 53.8616 16.056C53.5176 16.432 53.3456 16.96 53.3456 17.64C53.3456 18.32 53.5176 18.852 53.8616 19.236ZM59.7052 21V12.6H60.6052V21H59.7052ZM64.8005 21.12C63.9365 21.12 63.2405 20.836 62.7125 20.268C62.1845 19.7 61.9205 18.904 61.9205 17.88C61.9205 16.856 62.1805 16.06 62.7005 15.492C63.2285 14.924 63.9085 14.64 64.7405 14.64C65.1965 14.64 65.6085 14.732 65.9765 14.916C66.3525 15.092 66.6525 15.324 66.8765 15.612C67.1005 15.9 67.2685 16.208 67.3805 16.536C67.5005 16.864 67.5605 17.192 67.5605 17.52L67.5005 18.12H62.8205C62.8525 18.816 63.0485 19.352 63.4085 19.728C63.7765 20.096 64.2405 20.28 64.8005 20.28C65.5205 20.28 66.0605 19.98 66.4205 19.38H67.3805C67.1725 19.94 66.8405 20.372 66.3845 20.676C65.9365 20.972 65.4085 21.12 64.8005 21.12ZM62.8205 17.34H66.6605C66.6045 16.756 66.4005 16.3 66.0485 15.972C65.6965 15.644 65.2605 15.48 64.7405 15.48C64.2205 15.48 63.7845 15.644 63.4325 15.972C63.0805 16.3 62.8765 16.756 62.8205 17.34ZM71.512 21V12.6H74.692C75.516 12.6 76.172 12.848 76.66 13.344C77.148 13.84 77.392 14.472 77.392 15.24C77.392 16.008 77.148 16.64 76.66 17.136C76.172 17.632 75.516 17.88 74.692 17.88H72.532V21H71.512ZM72.532 16.98H74.632C75.168 16.98 75.592 16.82 75.904 16.5C76.216 16.18 76.372 15.76 76.372 15.24C76.372 14.72 76.216 14.3 75.904 13.98C75.592 13.66 75.168 13.5 74.632 13.5H72.532V16.98ZM78.772 21V12.6H79.672V21H78.772ZM83.0873 20.28C83.6713 20.28 84.1353 20.116 84.4793 19.788C84.8313 19.452 85.0073 19.036 85.0073 18.54V18.12H83.2673C82.7953 18.12 82.4353 18.216 82.1873 18.408C81.9473 18.6 81.8273 18.864 81.8273 19.2C81.8273 19.528 81.9393 19.792 82.1633 19.992C82.3873 20.184 82.6953 20.28 83.0873 20.28ZM83.0873 21.12C82.4393 21.12 81.9153 20.94 81.5153 20.58C81.1233 20.212 80.9273 19.752 80.9273 19.2C80.9273 18.64 81.1353 18.18 81.5513 17.82C81.9673 17.46 82.5393 17.28 83.2673 17.28H85.0073V16.86C85.0073 16.444 84.8673 16.112 84.5873 15.864C84.3153 15.608 83.9553 15.48 83.5073 15.48C82.7473 15.48 82.2673 15.78 82.0673 16.38H81.1073C81.2513 15.82 81.5353 15.392 81.9593 15.096C82.3833 14.792 82.8993 14.64 83.5073 14.64C84.2513 14.64 84.8353 14.844 85.2593 15.252C85.6913 15.652 85.9073 16.188 85.9073 16.86V21H85.1873L85.0673 20.16H85.0073C84.8713 20.4 84.6273 20.62 84.2753 20.82C83.9233 21.02 83.5273 21.12 83.0873 21.12ZM88.1245 23.4L89.0845 21L86.5045 14.76H87.4645L89.5045 19.74H89.5645L91.5445 14.76H92.5045L89.0845 23.4H88.1245Z" fill="#CFD2D1"/>
</svg>
