<svg width="20" height="20" viewBox="0 0 20 20" fill="none" xmlns="http://www.w3.org/2000/svg">
<path d="M7.5565 2.69002C6.42026 2.56302 5.24606 2.56302 4.10981 2.69002C3.37883 2.77171 2.78774 3.34734 2.70154 4.08437C2.56563 5.24639 2.56563 6.42028 2.70154 7.5823C2.78774 8.31933 3.37883 8.89495 4.10981 8.97665C5.24606 9.10364 6.42026 9.10364 7.5565 8.97665C8.28749 8.89495 8.87857 8.31933 8.96477 7.5823C9.10068 6.42028 9.10068 5.24639 8.96477 4.08437C8.87857 3.34734 8.28749 2.77171 7.5565 2.69002Z" fill="#F5F8F7"/>
<path d="M7.5565 11.0233C6.42026 10.8964 5.24606 10.8964 4.10981 11.0233C3.37883 11.105 2.78774 11.6807 2.70154 12.4177C2.56563 13.5797 2.56563 14.7536 2.70154 15.9156C2.78774 16.6527 3.37883 17.2283 4.10981 17.31C5.24606 17.437 6.42026 17.437 7.5565 17.31C8.28749 17.2283 8.87857 16.6527 8.96477 15.9156C9.10068 14.7536 9.10068 13.5797 8.96477 12.4177C8.87857 11.6807 8.28749 11.105 7.5565 11.0233Z" fill="#F5F8F7"/>
<path d="M15.8898 2.69002C14.7536 2.56302 13.5794 2.56302 12.4432 2.69002C11.7122 2.77171 11.1211 3.34734 11.0349 4.08437C10.899 5.24639 10.899 6.42028 11.0349 7.5823C11.1211 8.31933 11.7122 8.89495 12.4432 8.97665C13.5794 9.10364 14.7536 9.10364 15.8898 8.97665C16.6208 8.89495 17.2119 8.31933 17.2981 7.5823C17.434 6.42028 17.434 5.24639 17.2981 4.08437C17.2119 3.34734 16.6208 2.77171 15.8898 2.69002Z" fill="#F5F8F7"/>
<path d="M15.8898 11.0233C14.7536 10.8964 13.5794 10.8964 12.4432 11.0233C11.7122 11.105 11.1211 11.6807 11.0349 12.4177C10.899 13.5797 10.899 14.7536 11.0349 15.9156C11.1211 16.6527 11.7122 17.2283 12.4432 17.31C13.5794 17.437 14.7536 17.437 15.8898 17.31C16.6208 17.2283 17.2119 16.6527 17.2981 15.9156C17.434 14.7536 17.434 13.5797 17.2981 12.4177C17.2119 11.6807 16.6208 11.105 15.8898 11.0233Z" fill="#F5F8F7"/>
</svg>
