<svg width="30" height="28" viewBox="0 0 30 28" fill="none" xmlns="http://www.w3.org/2000/svg">
<path fill-rule="evenodd" clip-rule="evenodd" d="M5.41486 1.02492C5.13589 1.15257 5.01089 1.28284 4.8894 1.57248C4.81371 1.75305 4.799 2.14615 4.79759 4.02395L4.796 6.26033L2.56683 7.77921C1.34079 8.61459 0.266367 9.3721 0.179182 9.46259L0.0207591 9.62704L0.00393183 17.8749C-0.00533195 22.4111 0.00234878 26.2073 0.020935 26.3108C0.0661399 26.5622 0.314269 26.8453 0.604671 26.9767C0.832454 27.0798 1.39526 27.084 15.1585 27.0852C24.1186 27.086 29.5306 27.0657 29.6228 27.0307C29.7039 27 29.8177 26.9026 29.8758 26.8142C29.9762 26.6615 29.9822 26.2279 29.9969 18.1048C30.007 12.4998 29.9922 9.51862 29.9538 9.44723C29.9216 9.38729 29.0044 8.71338 27.9156 7.94956C26.8267 7.18574 25.837 6.48442 25.716 6.39107L25.4962 6.22131V3.89812C25.4962 1.58399 25.4956 1.57417 25.3638 1.37643C25.291 1.26724 25.1139 1.11874 24.9702 1.04648L24.7091 0.915039L15.1792 0.916324C6.05735 0.917551 5.63936 0.922225 5.41486 1.02492ZM24.1333 7.78996L24.1183 13.2628L19.6623 16.6111C17.2115 18.4527 15.1799 19.9495 15.1477 19.9375C15.0908 19.9162 14.036 19.1277 8.75686 15.1603L6.2357 13.2655L6.22075 7.7913L6.2058 2.31708H15.177H24.1482L24.1333 7.78996ZM4.78586 11.0963L4.76991 12.1718L3.34998 11.0855C2.56906 10.488 1.93291 9.97282 1.93631 9.94069C1.93977 9.90856 2.57874 9.44139 3.35625 8.90248L4.76991 7.92274L4.78586 8.97171C4.79466 9.54865 4.79466 10.5047 4.78586 11.0963ZM27.0206 8.93695C27.7784 9.45044 28.4192 9.88864 28.4445 9.91066C28.4857 9.94648 25.7493 12.0446 25.5695 12.1151C25.5116 12.1378 25.4962 11.6977 25.4962 10.0311C25.4962 8.3572 25.5114 7.92718 25.5695 7.96083C25.6098 7.9842 26.2628 8.42345 27.0206 8.93695ZM6.8107 15.4582C9.1263 17.2041 10.9996 18.6519 10.9735 18.6756C10.9312 18.7142 1.95232 24.7554 1.55984 25.0094L1.3986 25.1137V18.2384V11.3631L1.99957 11.8235C2.33014 12.0766 4.49511 13.7123 6.8107 15.4582ZM28.5894 21.5083L28.5743 24.859L26.1553 23.2417C24.8248 22.3522 22.7207 20.945 21.4794 20.1147C20.2381 19.2844 19.2235 18.5877 19.2245 18.5666C19.2256 18.5455 21.3297 16.9237 23.9004 14.9626L28.5743 11.3971L28.5894 14.7773C28.5978 16.6364 28.5978 19.6653 28.5894 21.5083ZM22.6795 22.5591L27.2704 25.6553L21.2237 25.6702C17.898 25.6783 12.4557 25.6783 9.1297 25.6702L3.08232 25.6553L7.63635 22.6006C10.428 20.728 12.2181 19.5624 12.2619 19.5887C12.3012 19.6122 12.8347 20.0119 13.4474 20.4769C14.768 21.4789 14.8574 21.5362 15.0999 21.5365C15.2967 21.5368 15.3606 21.4922 17.1705 20.0953C17.6381 19.7344 18.0359 19.4445 18.0546 19.451C18.0733 19.4576 20.1545 20.8562 22.6795 22.5591Z" fill="#6C6D6D"/>
<path fill-rule="evenodd" clip-rule="evenodd" d="M9.57384 5.70215C9.22132 5.70215 8.93555 5.98792 8.93555 6.34045C8.93555 6.69297 9.22132 6.97874 9.57385 6.97874H12.7653C13.1179 6.97874 13.4036 6.69297 13.4036 6.34045C13.4036 5.98792 13.1179 5.70215 12.7653 5.70215H9.57384ZM8.93555 9.21317C8.93555 8.86065 9.22132 8.57487 9.57384 8.57487H20.7441C21.0966 8.57487 21.3824 8.86065 21.3824 9.21317C21.3824 9.56569 21.0966 9.85147 20.7441 9.85147H9.57384C9.22132 9.85147 8.93555 9.56569 8.93555 9.21317ZM8.93555 12.0851C8.93555 11.7326 9.22132 11.4468 9.57384 11.4468H20.7441C21.0966 11.4468 21.3824 11.7326 21.3824 12.0851C21.3824 12.4376 21.0966 12.7234 20.7441 12.7234H9.57384C9.22132 12.7234 8.93555 12.4376 8.93555 12.0851Z" fill="#BD9B60"/>
</svg>
 