<svg width="100" height="24" viewBox="0 0 100 24" fill="none" xmlns="http://www.w3.org/2000/svg">
<path fill-rule="evenodd" clip-rule="evenodd" d="M38.8156 24L38.3161 23.541C38.0581 23.7276 37.7502 23.8282 37.4351 23.8282H37.3972C37.378 23.8282 37.3578 23.8294 37.3389 23.8294C36.4688 23.8294 35.7625 23.1005 35.7625 22.2022C35.7625 21.3039 36.4675 20.5749 37.3389 20.5749C38.209 20.5749 38.9152 21.3039 38.9152 22.2022V22.2157C38.9165 22.2279 38.9165 22.2402 38.9165 22.2525C38.9165 22.59 38.819 22.9188 38.6383 23.1987L39.1294 23.6502L38.8156 24ZM37.9498 23.2035L37.3221 22.6305L37.6006 22.2942L38.227 22.8501C38.3161 22.6636 38.3636 22.4574 38.3636 22.25V22.223C38.3636 21.5321 37.9808 21.0486 37.3889 21.0486C36.7981 21.0486 36.4116 21.5333 36.4116 22.223C36.4116 22.9139 36.7944 23.3692 37.3889 23.3692C37.3994 23.3692 37.4115 23.3692 37.4221 23.3692C37.6099 23.3704 37.7955 23.3128 37.9498 23.2035ZM46.1624 23.0968H44.7382L44.46 23.7926H43.9047L45.1923 20.6412H45.72L47.0052 23.7926H46.4502L46.1624 23.0968ZM45.996 22.6648L45.4407 21.2671L44.8856 22.6648H45.996ZM54.2595 23.3434V23.7938H51.7631V23.3754L53.5936 21.0977H51.7631V20.6473H54.2322V21.0597L52.4193 23.352L54.2595 23.3434ZM61.295 23.0968H59.8708L59.5926 23.7926H59.0388L60.3299 20.6412H60.8576L62.1415 23.7926H61.5865L61.295 23.0968ZM61.1311 22.6648L60.5757 21.2671L60.0207 22.6648H61.1311ZM69.8416 24L69.3421 23.541C69.0842 23.7276 68.7765 23.8282 68.4614 23.8282H68.4233C68.4018 23.8294 68.3792 23.8294 68.3568 23.8294C67.4864 23.8294 66.7802 23.1005 66.7802 22.2022C66.7802 21.3027 67.4855 20.5749 68.3568 20.5749C69.227 20.5749 69.9332 21.3039 69.9332 22.2022C69.9332 22.2095 69.9319 22.2194 69.9319 22.2255C69.9319 22.2353 69.9332 22.2464 69.9332 22.2574C69.9332 22.5936 69.8357 22.9225 69.6563 23.2035L70.1495 23.6441L69.8416 24ZM68.9761 23.2035L68.3485 22.6305L68.6266 22.2942L69.2509 22.8501C69.34 22.6636 69.3862 22.4574 69.3862 22.25V22.223C69.3862 21.5321 69.0034 21.0486 68.4127 21.0486C67.8204 21.0486 67.4355 21.5358 67.4355 22.2267C67.4355 22.9176 67.8182 23.3729 68.4127 23.3729C68.4233 23.3729 68.4351 23.3729 68.4459 23.3729C68.635 23.3729 68.8203 23.314 68.9761 23.2035ZM76.2612 23.4122C76.63 23.4122 76.9056 23.2403 76.9056 22.925C76.9056 22.6096 76.6287 22.5274 76.1733 22.4181C75.5658 22.2746 75.0297 22.1629 75.0297 21.5014C75.0297 20.9284 75.4457 20.5884 76.1696 20.5884C76.8938 20.5884 77.3443 20.932 77.3967 21.6536H76.8724V21.634C76.8724 21.2879 76.6002 21.0057 76.2649 21.0057C76.2376 21.0057 76.2103 21.0069 76.1839 21.0118C75.8011 21.0118 75.5671 21.1812 75.5671 21.488C75.5671 21.7223 75.7086 21.8402 76.3254 21.9837C76.725 22.0782 77.4489 22.2046 77.4489 22.909C77.4489 23.4625 76.9997 23.8404 76.2578 23.8404C75.4566 23.8404 74.9512 23.3913 74.9264 22.6317H75.4671C75.4671 22.6378 75.4671 22.6439 75.4671 22.6501C75.4671 23.0723 75.799 23.4146 76.2078 23.4146C76.2255 23.4146 76.2435 23.4134 76.2612 23.4122ZM84.7364 21.0977H83.7402V23.7938H83.2125V21.0977H82.2161V20.6473H84.7364V21.0977ZM91.7744 23.0968H90.3514L90.0745 23.7926H89.5191L90.8068 20.6412H91.3332L92.6184 23.7926H92.0634L91.7744 23.0968ZM91.608 22.6648L91.0526 21.2671L90.4976 22.6648H91.608ZM100 20.6486V23.8H99.5232L97.9052 21.5395V23.8H97.3809V20.6486H97.8658L99.4757 22.9237V20.6486H100ZM0 23.8085H25.6289V21.164H0V23.8085ZM10.2513 13.2253H25.6289V10.5808H10.2513V13.2253ZM5.12624 18.5169H25.6289V15.8724H5.12624V18.5169ZM15.3764 7.93496H25.6277V5.29038H15.3764V7.93496ZM20.5026 2.64458H25.6289V0H20.5026V2.64458ZM44.7881 0H35.8768V15.8724H38.4101V10.4004H42.0455L45.3755 15.8724H48.3844L45.0318 10.3991C47.3299 10.3218 48.4009 9.13268 48.4009 6.67465V3.7245C48.4009 1.18546 47.2526 0 44.7881 0ZM45.8687 6.67465C45.8687 7.67969 45.6654 7.91162 44.7894 7.91162H38.4064V2.48871H44.7894C45.6666 2.48871 45.8687 2.72065 45.8687 3.72572V6.67465ZM100 5.56282V3.7245C100 1.18299 98.8514 0 96.3919 0H91.0908C88.6288 0 87.484 1.18546 87.484 3.7245C87.484 6.6059 88.3578 7.39376 90.9849 8.30803L96.2836 10.139C97.3036 10.4912 97.4713 10.7747 97.4713 12.1442C97.4713 13.1529 97.2717 13.3849 96.3941 13.3849H91.0933C90.2194 13.3849 90.0161 13.1529 90.0161 12.1442V10.3144H87.4827V12.1479C87.4827 14.6918 88.631 15.8724 91.0896 15.8724H96.3907C98.8551 15.8724 99.9988 14.6857 99.9988 12.1479C99.9988 9.28364 99.1237 8.48104 96.4965 7.57784L91.1967 5.74812C90.1754 5.39592 90.009 5.11243 90.009 3.74289C90.009 2.7366 90.2123 2.50467 91.0861 2.50467H96.387C97.2645 2.50467 97.4641 2.7366 97.4641 3.74289V5.57878L100 5.56282ZM75.7226 9.24682L72.1266 0H68.3413V15.8724H70.8747V3.48027L74.2046 12.0742H77.2266L80.5733 3.48027V15.8724H83.1067V0H79.2965L75.7226 9.24682ZM59.9434 0H56.5303L51.2577 15.8724H53.936L55.3236 11.7048H61.2071L62.6134 15.8724H65.2883L59.9682 0.0687208L59.9434 0ZM56.1497 9.21613L58.2482 2.91333L60.3653 9.21613H56.1497Z" fill="#024638"/>
</svg>
