<svg width="25" height="24" viewBox="0 0 25 24" fill="none" xmlns="http://www.w3.org/2000/svg">
<g clip-path="url(#clip0_88_3715)">
<path d="M24.5 7.2C24.2656 7.28712 22.5973 8.03602 20.613 8.94581C18.4896 9.91944 16.6055 10.7877 16.4261 10.8754L16.1 11.0347V24H24.5V22.4317H22.9348V17.8838H24.5V16.3155H21.3696V22.4317H17.6645L17.6913 15.4703L21.0826 13.9115C22.9478 13.0542 24.4762 12.3504 24.479 12.3477C24.479 12.3477 24.4863 12.3505 24.5 12.3565V10.6264L21.2021 12.1379C19.386 12.9704 17.8466 13.6654 17.7813 13.6826L17.6626 13.7138L17.6913 12.0163L21.0826 10.4592C22.9478 9.6028 24.4772 8.89989 24.4812 8.89724C24.4812 8.89724 24.4878 8.89971 24.5 8.905V7.2Z" fill="#024638"/>
<path d="M0.5 7.2C0.734375 7.28712 2.40269 8.03602 4.38696 8.94581C6.51045 9.91944 8.39454 10.7877 8.57391 10.8754L8.9 11.0347V24H0.5V22.4317H2.06522V17.8838H0.5V16.3155H3.63043V22.4317H7.33552L7.3087 15.4703L3.91739 13.9115C2.05217 13.0542 0.523794 12.3504 0.521017 12.3477C0.521017 12.3477 0.513706 12.3505 0.5 12.3565V10.6264L3.79786 12.1379C5.61404 12.9704 7.15342 13.6654 7.21869 13.6826L7.33743 13.7138L7.3087 12.0163L3.91739 10.4592C2.05217 9.6028 0.522801 8.89989 0.518775 8.89724C0.518775 8.89724 0.512152 8.89971 0.5 8.905V7.2Z" fill="#024638"/>
<path fill-rule="evenodd" clip-rule="evenodd" d="M1.70003 4.55237C1.7078 4.52899 3.23037 3.49901 5.0835 2.26346L8.45281 0.0170592L8.48075 2.22903H16.3059V0L19.7011 2.26346C21.5685 3.50835 23.0964 4.5425 23.0964 4.56164C23.0964 4.58077 21.5685 5.61493 19.7011 6.85982L16.3059 9.12327V6.89424H8.47873V9.12327L5.08231 6.85906C3.21425 5.61369 1.69221 4.57568 1.70003 4.55237ZM17.861 3.7841H6.92771L6.89774 2.91912L5.70552 3.7146C5.04981 4.15209 4.50693 4.52919 4.4991 4.55258C4.49128 4.57599 5.03358 4.96088 5.70428 5.40792L6.92366 6.22063V5.33917H17.861V6.22063L19.0791 5.40872C19.7491 4.96217 20.2973 4.58097 20.2973 4.56164C20.2973 4.5423 19.7491 4.1611 19.0791 3.71455L17.861 2.90264V3.7841Z" fill="#024638"/>
</g>
<defs>
<clipPath id="clip0_88_3715">
<rect width="24" height="24" fill="white" transform="translate(0.5)"/>
</clipPath>
</defs>
</svg>
