<svg width="24" height="24" viewBox="0 0 24 24" fill="none" xmlns="http://www.w3.org/2000/svg">
<path fill-rule="evenodd" clip-rule="evenodd" d="M12.458 0C11.0401 0 9.89059 1.14944 9.89059 2.56743V4.21873H8.48436V2.81258H0V7.03132H8.48436V5.62498H9.89059V7.2763C9.89059 8.69423 11.0401 9.84374 12.458 9.84374H13.1451C13.3835 9.84374 13.6207 9.81054 13.85 9.7451L22.1374 7.39067L22.1379 7.39052C23.2401 7.07557 24 6.06815 24 4.92187C24 3.77559 23.2401 2.76817 22.1379 2.45321L22.1374 2.45307L13.8504 0.0987618L13.8501 0.0986693C13.6208 0.0332112 13.3836 2.32458e-06 13.1451 0H12.458ZM12.458 1.40625C11.8167 1.40625 11.2968 1.92612 11.2968 2.56743V4.21873H15.5156V5.62498H11.2968V7.2763C11.2968 7.91759 11.8167 8.43749 12.458 8.43749H13.1451C13.253 8.43749 13.3604 8.42245 13.4641 8.39281L13.4646 8.39267L21.7515 6.0384L21.7519 6.03829C22.2502 5.89571 22.5937 5.44017 22.5937 4.92187C22.5937 4.40356 22.2502 3.94802 21.7519 3.80545L21.7515 3.80534L13.4641 1.45092C13.3604 1.42129 13.253 1.40625 13.1451 1.40625H12.458ZM1.40625 5.62507V4.21883H7.07811V5.62507H1.40625Z" fill="#D5AF6E"/>
<path fill-rule="evenodd" clip-rule="evenodd" d="M0 24H24V11.25H0V24ZM1.40625 22.5937V18.3281H11.2968V22.5937H1.40625ZM12.7031 22.5937H22.5937V18.3281H12.7031V22.5937ZM22.5937 16.9219H18.3281V12.6562H22.5937V16.9219ZM5.67188 16.9219H1.40625V12.6562H5.67188V16.9219ZM7.07813 16.9219H16.9219V12.6562H7.07813V16.9219Z" fill="#055E4B"/>
</svg>
