<svg width="24" height="25" viewBox="0 0 24 25" fill="none" xmlns="http://www.w3.org/2000/svg">
<path fill-rule="evenodd" clip-rule="evenodd" d="M4.79946 0.222979C3.77925 0.499311 3.0335 1.26964 2.76331 2.32609C2.59616 2.97964 2.68546 3.70217 3.01001 4.32158C3.20933 4.70203 3.77831 5.27101 4.15876 5.47033C4.78103 5.79638 5.50051 5.88422 6.16222 5.71501C6.69561 5.57858 7.05199 5.37203 7.46157 4.96199C8.33066 4.09186 8.53655 2.87332 8.00392 1.75219C7.68411 1.07904 7.07995 0.535893 6.37669 0.289201C5.89888 0.121582 5.27103 0.0952245 4.79946 0.222979ZM17.4613 0.223213C17.0601 0.33188 16.9074 0.405981 16.5213 0.679311C15.8083 1.18409 15.339 2.11172 15.3364 3.02133C15.3353 3.39193 15.4813 3.9559 15.6729 4.32158C15.8722 4.70203 16.4412 5.27101 16.8216 5.47033C17.4439 5.79638 18.1634 5.88422 18.8251 5.71501C19.3549 5.57947 19.7147 5.37128 20.1209 4.96504C20.5272 4.55879 20.7354 4.19898 20.8709 3.6692C21.2296 2.26658 20.4207 0.773673 19.0396 0.289201C18.5613 0.121394 17.934 0.0951776 17.4613 0.223213ZM5.89761 1.61116C6.21779 1.70622 6.60908 2.06299 6.75704 2.39476C6.84076 2.58245 6.8674 2.72657 6.86777 2.99366C6.86834 3.39325 6.77125 3.66001 6.52203 3.94389C6.13975 4.37926 5.40981 4.51218 4.86648 4.24537C3.95179 3.79621 3.81532 2.60196 4.59816 1.89814C4.97247 1.56159 5.40732 1.46554 5.89761 1.61116ZM18.5605 1.61116C18.8807 1.70622 19.272 2.06299 19.4199 2.39476C19.5684 2.72751 19.5744 3.25105 19.4334 3.55885C19.2908 3.86998 19.0702 4.09782 18.7678 4.24635C18.5481 4.35422 18.4396 4.3772 18.1496 4.3772C17.3345 4.3772 16.7673 3.80906 16.7685 2.99366C16.7691 2.52668 16.9004 2.22892 17.2445 1.9145C17.6307 1.56154 18.0601 1.46253 18.5605 1.61116ZM6.14791 5.95058C3.41944 6.29281 1.39685 8.55285 1.17619 11.5059C1.05486 13.1295 1.51353 14.6283 2.61868 16.2193C3.55245 17.5638 4.97632 18.9787 7.59716 21.1665C8.15174 21.6295 9.07951 22.4079 9.65891 22.8963C10.7584 23.8232 11.041 24.0044 11.5316 24.0975C11.8851 24.1645 12.1747 24.1572 12.5 24.073C13.0937 23.9193 13.0501 23.9518 15.2799 22.0022C18.6642 19.0434 20.2742 17.4123 21.2208 15.9837C22.0864 14.6773 22.4729 13.4544 22.4729 12.0218C22.4729 9.92185 21.6261 8.16007 20.0316 6.9427C19.6532 6.65375 18.8087 6.25154 18.2932 6.11473C15.8934 5.47793 13.6366 6.38441 12.1913 8.56566C12.0152 8.83148 11.8591 9.07419 11.8446 9.105C11.8241 9.14834 11.8122 9.14834 11.7917 9.105C11.7771 9.07419 11.6209 8.83148 11.4445 8.56566C10.5549 7.22475 9.34674 6.3437 7.98145 6.04002C7.49642 5.93215 6.63131 5.88994 6.14791 5.95058ZM7.80834 7.44917C8.79567 7.70167 9.64704 8.37112 10.3432 9.44235C10.4773 9.64871 10.6316 9.90609 10.6863 10.0143L10.7856 10.2111L10.4928 10.3645C10.0615 10.5905 9.53115 11.1365 9.31584 11.5763C9.0048 12.2115 8.9307 12.8686 9.09677 13.5181C9.23231 14.0479 9.44049 14.4077 9.84674 14.8139C10.2478 15.215 10.6147 15.4296 11.1179 15.5574C11.3824 15.6246 11.4303 15.649 11.3429 15.6724C11.2818 15.6888 11.173 15.7025 11.1009 15.7028C10.691 15.7048 9.60117 16.0235 9.04424 16.3042L8.68574 16.4849L7.9421 15.7979C6.78795 14.7316 6.04539 13.8541 5.68089 13.1259C5.51871 12.8019 5.46656 12.6334 5.3645 12.1039C5.34452 12.0001 5.33266 11.9984 4.64849 11.9984H3.95278L3.97281 12.2446C4.07453 13.4958 4.8434 14.742 6.5285 16.387C6.92283 16.772 7.47906 17.2923 7.76459 17.5432C8.05011 17.7941 8.31387 18.0559 8.35078 18.1248C8.38769 18.1938 8.4179 18.351 8.4179 18.4742C8.4179 19.0018 7.85553 19.3106 7.35933 19.0555C6.96054 18.8505 4.84232 16.7811 4.1673 15.937C2.92493 14.3835 2.45232 13.067 2.58505 11.5294C2.80247 9.01022 4.67391 7.22803 6.99032 7.33412C7.23697 7.34538 7.60508 7.39715 7.80834 7.44917ZM17.8213 7.45109C19.8985 7.9494 21.279 10.1106 21.0532 12.5108C20.888 14.2661 19.9161 15.7802 17.4082 18.1891C16.3825 19.1743 16.0578 19.3551 15.6733 19.155C15.3491 18.9864 15.1956 18.5739 15.3333 18.2415C15.3644 18.1666 15.7733 17.7476 16.2421 17.3105C17.0817 16.5276 17.8514 15.7305 18.3298 15.1486C19.1263 14.1798 19.6005 13.1545 19.6627 12.2669L19.6817 11.996L18.9742 12.0089L18.2668 12.0218L18.239 12.2801C18.1682 12.9386 17.8111 13.5914 17.024 14.5012C16.6076 14.9826 15.0994 16.5007 15.0376 16.5007C15.0191 16.5007 14.8095 16.4079 14.5718 16.2944C13.9446 15.995 12.9456 15.7048 12.5353 15.7028C12.4633 15.7025 12.3544 15.6888 12.2933 15.6724C12.2059 15.649 12.2539 15.6246 12.5184 15.5574C13.0215 15.4296 13.3884 15.215 13.7895 14.8139C14.1957 14.4077 14.4039 14.0479 14.5395 13.5181C14.7055 12.8686 14.6314 12.2115 14.3204 11.5763C14.1051 11.1366 13.5747 10.5905 13.1435 10.3645L12.8508 10.2112L12.9628 9.99093C13.2047 9.51542 13.6762 8.86581 14.0428 8.50333C14.6779 7.87544 15.4314 7.48092 16.2267 7.36006C16.6449 7.29646 17.3429 7.33633 17.8213 7.45109ZM12.4483 11.5962C12.9381 11.8359 13.1991 12.2682 13.2007 12.8426C13.2015 13.1344 13.1792 13.24 13.0698 13.4628C12.9116 13.785 12.6421 14.0277 12.3008 14.1554C11.2665 14.5423 10.1983 13.5968 10.4561 12.5223C10.668 11.6391 11.6258 11.1938 12.4483 11.5962ZM12.8499 17.1757C13.1392 17.2394 13.889 17.4943 14.0072 17.5692C14.0483 17.5952 14.0397 17.6699 13.9736 17.8615C13.8514 18.2152 13.8525 18.7883 13.976 19.188C14.0951 19.5735 14.4164 20.0153 14.7242 20.2167C14.8531 20.301 14.9537 20.3848 14.9478 20.403C14.9191 20.4904 12.4742 22.5726 12.3106 22.6488C12.0845 22.7543 11.8705 22.7615 11.6543 22.6712C11.5194 22.6148 10.5978 21.8615 9.08908 20.5742L8.77532 20.3066L9.02464 20.1183C9.32217 19.8937 9.63077 19.4499 9.74262 19.0859C9.84913 18.7392 9.84561 18.1049 9.73549 17.7977C9.69066 17.6728 9.66355 17.561 9.67523 17.5493C9.746 17.4785 10.6866 17.1865 11.0208 17.1315C11.4924 17.054 12.3963 17.0758 12.8499 17.1757Z" fill="#055E4B"/>
<path fill-rule="evenodd" clip-rule="evenodd" d="M4.79927 0.222979C3.77906 0.499311 3.03331 1.26964 2.76312 2.32609C2.59597 2.97964 2.68527 3.70217 3.00981 4.32158C3.20914 4.70203 3.77812 5.27101 4.15857 5.47033C4.78084 5.79638 5.50032 5.88422 6.16203 5.71501C6.69542 5.57858 7.0518 5.37203 7.46138 4.96199C8.33047 4.09186 8.53636 2.87332 8.00373 1.75219C7.68392 1.07904 7.07976 0.535893 6.3765 0.289201C5.89869 0.121582 5.27084 0.0952245 4.79927 0.222979ZM17.4611 0.223213C17.0599 0.33188 16.9072 0.405981 16.5211 0.679311C15.8081 1.18409 15.3388 2.11172 15.3362 3.02133C15.3352 3.39193 15.4811 3.9559 15.6727 4.32158C15.872 4.70203 16.441 5.27101 16.8214 5.47033C17.4437 5.79638 18.1632 5.88422 18.8249 5.71501C19.3547 5.57947 19.7145 5.37128 20.1207 4.96504C20.527 4.55879 20.7352 4.19898 20.8707 3.6692C21.2294 2.26658 20.4205 0.773673 19.0394 0.289201C18.5611 0.121394 17.9338 0.0951776 17.4611 0.223213ZM5.89742 1.61116C6.2176 1.70622 6.60889 2.06299 6.75685 2.39476C6.84057 2.58245 6.86721 2.72657 6.86758 2.99366C6.86815 3.39325 6.77106 3.66001 6.52184 3.94389C6.13956 4.37926 5.40962 4.51218 4.86629 4.24537C3.9516 3.79621 3.81513 2.60196 4.59797 1.89814C4.97228 1.56159 5.40713 1.46554 5.89742 1.61116ZM18.5603 1.61116C18.8805 1.70622 19.2718 2.06299 19.4197 2.39476C19.5682 2.72751 19.5742 3.25105 19.4332 3.55885C19.2906 3.86998 19.07 4.09782 18.7676 4.24635C18.5479 4.35422 18.4394 4.3772 18.1494 4.3772C17.3343 4.3772 16.7671 3.80906 16.7683 2.99366C16.7689 2.52668 16.9002 2.22892 17.2443 1.9145C17.6305 1.56154 18.0599 1.46253 18.5603 1.61116Z" fill="#D5AF6E"/>
</svg>
