<svg width="24" height="24" viewBox="0 0 24 24" fill="none" xmlns="http://www.w3.org/2000/svg">
<path fill-rule="evenodd" clip-rule="evenodd" d="M1.6875 2.8125L0.281109 5.625H2.24991H4.21875V7.35492V9.08484L3.99609 9.21455C3.12623 9.72131 2.35725 10.5675 1.92145 11.4974C1.74286 11.8785 1.5 12.6303 1.5 12.8021C1.5 12.8799 1.46269 12.8906 1.19259 12.8906C0.918281 12.8906 0.395484 12.9482 0.105469 13.0104L0 13.033V16.0704C0 19.2458 0.00759377 19.3855 0.213938 20.0177C0.467766 20.7952 1.15214 21.6548 1.81683 22.0312L2.10661 22.1953L2.10797 23.0977L2.10938 24H2.8125H3.51562V23.2969V22.5938H12H20.4844V23.2969V24H21.1875H21.8906L21.892 23.0977L21.8934 22.1953L22.185 22.0312C22.8435 21.6607 23.5326 20.794 23.7861 20.0177C23.9924 19.3855 24 19.2458 24 16.0704V13.033L23.8945 13.0104C23.6085 12.9491 23.0836 12.8906 22.819 12.8906H22.5232L22.4454 12.5481C22.0181 10.6682 20.5513 9.16706 18.6207 8.63391L18.1641 8.50781H12.0938C8.75508 8.50781 5.93906 8.51836 5.83594 8.53125L5.64844 8.55469V7.10156V5.64844L7.58578 5.6362C8.7075 5.62912 9.51656 5.6062 9.50766 5.58178C9.49912 5.55858 8.96484 4.2937 8.32031 2.77087L7.14844 0.00210938L5.12119 0.00107812L3.09389 0L1.6875 2.8125ZM12.7031 2.8125V5.625H18.3516H24V2.8125V0H18.3516H12.7031V2.8125ZM6.79823 2.80177L7.38553 4.19531L4.99786 4.20745C3.68466 4.21416 2.60189 4.21125 2.59162 4.20103C2.58141 4.19081 2.88516 3.55781 3.26663 2.79436L3.96019 1.40625L5.08556 1.40723L6.21094 1.40822L6.79823 2.80177ZM17.625 2.8125V4.21875H15.8672H14.1094V2.8125V1.40625H15.8672H17.625V2.8125ZM22.5938 2.8125V4.21875H20.8359H19.0781V2.8125V1.40625H20.8359H22.5938V2.8125ZM11.2969 13.7578V17.625H8.11453H4.93214L4.91067 16.7695C4.88723 15.8374 4.83098 15.5677 4.5367 14.9766C4.23047 14.3614 3.57928 13.6724 3.03052 13.3828C2.85595 13.2907 2.85337 13.2854 2.88281 13.0781C2.93077 12.7404 3.16003 12.122 3.36548 11.7762C3.76912 11.0968 4.47206 10.4888 5.20791 10.1828C5.8732 9.90614 5.96541 9.89864 8.75391 9.89447L11.2969 9.89062V13.7578ZM18.084 9.96488C19.2847 10.2117 20.3523 11.0671 20.8434 12.1761C20.9614 12.4425 21.141 13.0706 21.1403 13.2145C21.1401 13.2555 21.061 13.3341 20.9645 13.3892C20.159 13.849 19.5103 14.6638 19.2157 15.5859C19.1278 15.8609 19.1073 16.0527 19.0893 16.7695L19.0679 17.625H15.8855H12.7031V13.7578V9.89062H15.2129C17.3197 9.89062 17.7807 9.90253 18.084 9.96488ZM7.07812 12V12.7031H7.78125H8.48438V12V11.2969H7.78125H7.07812V12ZM15.5156 12V12.7031H16.2188H16.9219V12V11.2969H16.2188H15.5156V12ZM7.07812 14.8125V15.5156H7.78125H8.48438V14.8125V14.1094H7.78125H7.07812V14.8125ZM15.5156 14.8125V15.5156H16.2188H16.9219V14.8125V14.1094H16.2188H15.5156V14.8125ZM2.05275 14.4764C2.52947 14.6575 3.03141 15.119 3.26011 15.5864C3.51038 16.098 3.51445 16.1485 3.51506 18.7447L3.51562 21.1534L3.30605 21.1246C2.97005 21.0786 2.53223 20.8519 2.21864 20.5615C1.88597 20.2535 1.68473 19.96 1.53652 19.5665C1.434 19.2944 1.4317 19.2417 1.41684 16.7986L1.4017 14.3081L1.60659 14.3464C1.71928 14.3675 1.92005 14.4259 2.05275 14.4764ZM22.5827 17.2031C22.5676 19.2238 22.5639 19.2977 22.4631 19.5665C22.1657 20.3591 21.4076 21.0268 20.694 21.1246L20.4844 21.1534L20.4849 18.7447C20.4855 16.144 20.4892 16.0988 20.7428 15.5804C21.0454 14.962 21.7969 14.4146 22.4531 14.3346C22.5691 14.3205 22.5705 14.3243 22.5843 14.7188C22.5921 14.9379 22.5913 16.0559 22.5827 17.2031ZM19.0673 20.1211L19.0547 21.1641H12H4.94531L4.9327 20.1211L4.92009 19.0781H12H19.0799L19.0673 20.1211Z" fill="#055E4B"/>
<path fill-rule="evenodd" clip-rule="evenodd" d="M12.7031 2.8125V5.625H18.3516H24V2.8125V0H18.3516H12.7031V2.8125ZM17.625 2.8125V4.21875H15.8672H14.1094V2.8125V1.40625H15.8672H17.625V2.8125ZM22.5938 2.8125V4.21875H20.8359H19.0781V2.8125V1.40625H20.8359H22.5938V2.8125ZM7.07812 12V12.7031H7.78125H8.48438V12V11.2969H7.78125H7.07812V12ZM15.5156 12V12.7031H16.2188H16.9219V12V11.2969H16.2188H15.5156V12ZM7.07812 14.8125V15.5156H7.78125H8.48438V14.8125V14.1094H7.78125H7.07812V14.8125ZM15.5156 14.8125V15.5156H16.2188H16.9219V14.8125V14.1094H16.2188H15.5156V14.8125Z" fill="#D5AF6E"/>
</svg>
 