<svg width="24" height="24" viewBox="0 0 24 24" fill="none" xmlns="http://www.w3.org/2000/svg">
<g clip-path="url(#clip0_993_16477)">
<path d="M12 8.4375V14.0625" stroke="#055E4B" stroke-width="1.40625" stroke-miterlimit="10"/>
<path d="M12 5.625C13.165 5.625 14.1094 4.6806 14.1094 3.51562C14.1094 2.35065 13.165 1.40625 12 1.40625C10.835 1.40625 9.89062 2.35065 9.89062 3.51562C9.89062 4.6806 10.835 5.625 12 5.625Z" stroke="#D5AF6E" stroke-width="1.40625" stroke-miterlimit="10"/>
<path d="M19.5312 8.4375V14.0625" stroke="#055E4B" stroke-width="1.40625" stroke-miterlimit="10"/>
<path d="M19.5312 5.625C20.6962 5.625 21.6406 4.6806 21.6406 3.51562C21.6406 2.35065 20.6962 1.40625 19.5312 1.40625C18.3663 1.40625 17.4219 2.35065 17.4219 3.51562C17.4219 4.6806 18.3663 5.625 19.5312 5.625Z" stroke="#D5AF6E" stroke-width="1.40625" stroke-miterlimit="10"/>
<path d="M4.46875 8.4375V14.0625" stroke="#055E4B" stroke-width="1.40625" stroke-miterlimit="10"/>
<path d="M4.46875 5.625C5.63373 5.625 6.57812 4.6806 6.57812 3.51562C6.57812 2.35065 5.63373 1.40625 4.46875 1.40625C3.30377 1.40625 2.35938 2.35065 2.35938 3.51562C2.35938 4.6806 3.30377 5.625 4.46875 5.625Z" stroke="#D5AF6E" stroke-width="1.40625" stroke-miterlimit="10"/>
<path d="M8.23438 14.4141L9.64062 15.8203L10.1172 22.5938H13.8828L14.3593 15.8203L15.7656 14.4141V8.4375" stroke="#055E4B" stroke-width="1.40625" stroke-miterlimit="10"/>
<path d="M15.7656 14.4141L17.1719 15.8203L17.6484 22.5938H21.414L21.8906 15.8203L23.2969 14.4141V8.4375H0.703125V14.4141L2.10938 15.8203L2.58595 22.5938H6.35156L6.82814 15.8203L8.23439 14.4141V8.4375" stroke="#055E4B" stroke-width="1.40625" stroke-miterlimit="10"/>
</g>
<defs>
<clipPath id="clip0_993_16477">
<rect width="24" height="24" fill="white"/>
</clipPath>
</defs>
</svg>
 