<svg width="24" height="24" viewBox="0 0 24 24" fill="none" xmlns="http://www.w3.org/2000/svg">
<g clip-path="url(#clip0_1004_17444)">
<path d="M6.00087 12.0006C9.30987 12.0006 12.0009 9.30963 12.0009 6.00063C12.0009 2.69163 9.30987 0.000631681 6.00087 0.000631681C2.69187 0.000631681 0.000870845 2.69163 0.000870845 6.00063C0.000870845 9.30963 2.69187 12.0006 6.00087 12.0006ZM6.00087 2.00063C8.20687 2.00063 10.0009 3.79463 10.0009 6.00063C10.0009 7.12763 9.52887 8.14363 8.77587 8.87063C8.32987 7.77563 7.25987 7.00063 6.00587 7.00063H5.99587C4.74087 7.00063 3.66987 7.77463 3.22387 8.86963C2.47287 8.14163 2.00087 7.12763 2.00087 6.00063C2.00087 3.79463 3.79487 2.00063 6.00087 2.00063ZM4.50087 4.50063C4.50087 3.67263 5.17287 3.00063 6.00087 3.00063C6.82887 3.00063 7.50087 3.67263 7.50087 4.50063C7.50087 5.32863 6.82887 6.00063 6.00087 6.00063C5.17287 6.00063 4.50087 5.32863 4.50087 4.50063ZM23.3639 6.87963C23.2449 6.92663 23.1219 6.94763 23.0009 6.94763C22.6009 6.94763 22.2229 6.70663 22.0689 6.31063L20.9549 3.45563C17.2979 11.2076 10.6809 16.4216 1.26087 18.9666C1.17387 18.9896 1.08587 19.0006 0.999871 19.0006C0.558871 19.0006 0.154871 18.7076 0.0348708 18.2616C-0.109129 17.7286 0.205871 17.1796 0.739871 17.0346C9.59887 14.6416 15.7969 9.75563 19.1899 2.50263L16.1179 3.70063C15.6009 3.90263 15.0229 3.64563 14.8229 3.13263C14.6219 2.61763 14.8769 2.03863 15.3909 1.83763L19.7919 0.120632C20.7489 -0.255368 21.8399 0.222632 22.2159 1.18263L23.9329 5.58363C24.1339 6.09863 23.8789 6.67763 23.3649 6.87863L23.3639 6.87963ZM23.0009 9.00063V23.0006C23.0009 23.5536 22.5529 24.0006 22.0009 24.0006C21.4489 24.0006 21.0009 23.5536 21.0009 23.0006V9.00063C21.0009 8.44763 21.4489 8.00063 22.0009 8.00063C22.5529 8.00063 23.0009 8.44763 23.0009 9.00063ZM18.0009 14.0006V23.0006C18.0009 23.5536 17.5529 24.0006 17.0009 24.0006C16.4489 24.0006 16.0009 23.5536 16.0009 23.0006V14.0006C16.0009 13.4476 16.4489 13.0006 17.0009 13.0006C17.5529 13.0006 18.0009 13.4476 18.0009 14.0006ZM13.0009 18.0006V23.0006C13.0009 23.5536 12.5529 24.0006 12.0009 24.0006C11.4489 24.0006 11.0009 23.5536 11.0009 23.0006V18.0006C11.0009 17.4476 11.4489 17.0006 12.0009 17.0006C12.5529 17.0006 13.0009 17.4476 13.0009 18.0006ZM8.00087 20.0006V23.0006C8.00087 23.5536 7.55287 24.0006 7.00087 24.0006C6.44887 24.0006 6.00087 23.5536 6.00087 23.0006V20.0006C6.00087 19.4476 6.44887 19.0006 7.00087 19.0006C7.55287 19.0006 8.00087 19.4476 8.00087 20.0006ZM3.00087 22.0006V23.0006C3.00087 23.5536 2.55287 24.0006 2.00087 24.0006C1.44887 24.0006 1.00087 23.5536 1.00087 23.0006V22.0006C1.00087 21.4476 1.44887 21.0006 2.00087 21.0006C2.55287 21.0006 3.00087 21.4476 3.00087 22.0006Z" fill="#055E4B"/>
<path d="M6 12C9.309 12 12 9.309 12 6C12 2.691 9.309 0 6 0C2.691 0 0 2.691 0 6C0 9.309 2.691 12 6 12ZM6 2C8.206 2 10 3.794 10 6C10 7.127 9.528 8.143 8.775 8.87C8.329 7.775 7.259 7 6.005 7H5.995C4.74 7 3.669 7.774 3.223 8.869C2.472 8.141 2 7.127 2 6C2 3.794 3.794 2 6 2ZM4.5 4.5C4.5 3.672 5.172 3 6 3C6.828 3 7.5 3.672 7.5 4.5C7.5 5.328 6.828 6 6 6C5.172 6 4.5 5.328 4.5 4.5Z" fill="#D5AF6E"/>
</g>
<defs>
<clipPath id="clip0_1004_17444">
<rect width="24" height="24" fill="white"/>
</clipPath>
</defs>
</svg>
