<svg width="32" height="33" viewBox="0 0 32 33" fill="none" xmlns="http://www.w3.org/2000/svg">
<rect y="0.5" width="32" height="32" rx="16" fill="#F5F8F7"/>
<path d="M17.4663 10.416C16.6486 10.416 15.8643 10.7409 15.2861 11.3191C14.7079 11.8973 14.383 12.6816 14.383 13.4993V15.216H12.733C12.6502 15.216 12.583 15.2832 12.583 15.366V17.6327C12.583 17.7155 12.6502 17.7827 12.733 17.7827H14.383V22.4327C14.383 22.5155 14.4502 22.5827 14.533 22.5827H16.7997C16.8825 22.5827 16.9497 22.5155 16.9497 22.4327V17.7827H18.6143C18.6831 17.7827 18.7431 17.7358 18.7598 17.6691L19.3265 15.4024C19.3501 15.3077 19.2785 15.216 19.181 15.216H16.9497V13.4993C16.9497 13.3623 17.0041 13.2309 17.101 13.134C17.1979 13.0371 17.3293 12.9827 17.4663 12.9827H19.1997C19.2825 12.9827 19.3497 12.9155 19.3497 12.8327V10.566C19.3497 10.4832 19.2825 10.416 19.1997 10.416H17.4663Z" fill="#055E4B"/>
</svg>
