<svg width="32" height="33" viewBox="0 0 32 33" fill="none" xmlns="http://www.w3.org/2000/svg">
<rect y="0.5" width="32" height="32" rx="16" fill="#F5F8F7"/>
<path fill-rule="evenodd" clip-rule="evenodd" d="M10.6654 16.5007C10.6654 13.5551 13.0532 11.1673 15.9987 11.1673C18.9442 11.1673 21.332 13.5551 21.332 16.5007C21.332 19.2204 19.2962 21.4647 16.6654 21.7927V17.834H17.9987C18.3669 17.834 18.6654 17.5355 18.6654 17.1673C18.6654 16.7991 18.3669 16.5007 17.9987 16.5007H16.6654V15.1673C16.6654 14.7991 16.9638 14.5007 17.332 14.5007H17.6654C18.0336 14.5007 18.332 14.2022 18.332 13.834C18.332 13.4658 18.0336 13.1673 17.6654 13.1673H17.332C16.2274 13.1673 15.332 14.0628 15.332 15.1673V16.5007H13.9987C13.6305 16.5007 13.332 16.7991 13.332 17.1673C13.332 17.5355 13.6305 17.834 13.9987 17.834H15.332V21.7927C12.7012 21.4647 10.6654 19.2204 10.6654 16.5007ZM15.9987 23.1673C19.6806 23.1673 22.6654 20.1825 22.6654 16.5007C22.6654 12.8188 19.6806 9.83398 15.9987 9.83398C12.3168 9.83398 9.33203 12.8188 9.33203 16.5007C9.33203 20.1825 12.3168 23.1673 15.9987 23.1673Z" fill="#055E4B"/>
</svg>
