<svg width="25" height="24" viewBox="0 0 25 24" fill="none" xmlns="http://www.w3.org/2000/svg">
<path d="M14.866 2.875C13.6394 2.875 12.463 3.36228 11.5956 4.22963C10.7283 5.09699 10.241 6.27337 10.241 7.5V10.075H7.76602C7.64175 10.075 7.54102 10.1757 7.54102 10.3V13.7C7.54102 13.8243 7.64175 13.925 7.76602 13.925H10.241V20.9C10.241 21.0243 10.3418 21.125 10.466 21.125H13.866C13.9903 21.125 14.091 21.0243 14.091 20.9V13.925H16.5879C16.6912 13.925 16.7812 13.8547 16.8062 13.7546L17.6562 10.3546C17.6917 10.2126 17.5843 10.075 17.4379 10.075H14.091V7.5C14.091 7.29446 14.1727 7.09733 14.318 6.95199C14.4633 6.80665 14.6605 6.725 14.866 6.725H17.466C17.5903 6.725 17.691 6.62426 17.691 6.5V3.1C17.691 2.97574 17.5903 2.875 17.466 2.875H14.866Z" fill="#6C6D6D"/>
</svg>
