<svg width="32" height="33" viewBox="0 0 32 33" fill="none" xmlns="http://www.w3.org/2000/svg">
<rect y="0.5" width="32" height="32" rx="16" fill="#F5F8F7"/>
<path fill-rule="evenodd" clip-rule="evenodd" d="M18.6667 10.5C20.5076 10.5 22 11.9924 22 13.8333V19.1667C22 21.0076 20.5076 22.5 18.6667 22.5H13.3333C11.4924 22.5 10 21.0076 10 19.1667V13.8333C10 11.9924 11.4924 10.5 13.3333 10.5H18.6667ZM18.6667 11.8333H13.3333C12.2288 11.8333 11.3333 12.7288 11.3333 13.8333V19.1667C11.3333 20.2713 12.2288 21.1667 13.3333 21.1667H18.6667C19.7713 21.1667 20.6667 20.2713 20.6667 19.1667V13.8333C20.6667 12.7288 19.7713 11.8333 18.6667 11.8333ZM16 13.8333C17.4727 13.8333 18.6667 15.0272 18.6667 16.5C18.6667 17.9727 17.4727 19.1667 16 19.1667C14.5272 19.1667 13.3333 17.9727 13.3333 16.5C13.3333 15.0272 14.5272 13.8333 16 13.8333ZM16 15.1667C15.2636 15.1667 14.6667 15.7636 14.6667 16.5C14.6667 17.2364 15.2636 17.8333 16 17.8333C16.7364 17.8333 17.3333 17.2364 17.3333 16.5C17.3333 15.7636 16.7364 15.1667 16 15.1667ZM19 12.8333C19.3682 12.8333 19.6667 13.1318 19.6667 13.5C19.6667 13.8682 19.3682 14.1667 19 14.1667C18.6318 14.1667 18.3333 13.8682 18.3333 13.5C18.3333 13.1318 18.6318 12.8333 19 12.8333Z" fill="#055E4B"/>
</svg>
