<svg width="32" height="33" viewBox="0 0 32 33" fill="none" xmlns="http://www.w3.org/2000/svg">
<rect y="0.5" width="32" height="32" rx="16" fill="#F5F8F7"/>
<path d="M15.9991 14.333C14.8025 14.333 13.8325 15.3031 13.8325 16.4997C13.8325 17.6963 14.8025 18.6664 15.9991 18.6664C17.1958 18.6664 18.1658 17.6963 18.1658 16.4997C18.1658 15.3031 17.1958 14.333 15.9991 14.333Z" fill="#055E4B"/>
<path fill-rule="evenodd" clip-rule="evenodd" d="M12.5122 10.554C14.8109 10.2971 17.1874 10.2971 19.4861 10.554C20.7517 10.6955 21.7725 11.6927 21.9211 12.9627C22.1959 15.3127 22.1959 17.6867 21.9211 20.0367C21.7725 21.3068 20.7517 22.3039 19.4861 22.4454C17.1874 22.7023 14.8109 22.7023 12.5122 22.4454C11.2466 22.3039 10.2258 21.3068 10.0772 20.0367C9.80238 17.6867 9.80238 15.3127 10.0772 12.9627C10.2258 11.6927 11.2466 10.6955 12.5122 10.554ZM19.3325 12.4997C18.9643 12.4997 18.6658 12.7982 18.6658 13.1664C18.6658 13.5346 18.9643 13.833 19.3325 13.833C19.7007 13.833 19.9991 13.5346 19.9991 13.1664C19.9991 12.7982 19.7007 12.4997 19.3325 12.4997ZM12.8325 16.4997C12.8325 14.7508 14.2502 13.333 15.9991 13.333C17.748 13.333 19.1658 14.7508 19.1658 16.4997C19.1658 18.2486 17.748 19.6664 15.9991 19.6664C14.2502 19.6664 12.8325 18.2486 12.8325 16.4997Z" fill="#055E4B"/>
</svg>
