<svg width="25" height="24" viewBox="0 0 25 24" fill="none" xmlns="http://www.w3.org/2000/svg">
<path d="M12.6667 8.75005C10.8718 8.75005 9.41669 10.2051 9.41669 12C9.41669 13.795 10.8718 15.25 12.6667 15.25C14.4616 15.25 15.9167 13.795 15.9167 12C15.9167 10.2051 14.4616 8.75005 12.6667 8.75005Z" fill="#6C6D6D"/>
<path fill-rule="evenodd" clip-rule="evenodd" d="M7.43622 3.08151C10.8843 2.69614 14.4491 2.69614 17.8972 3.08151C19.7956 3.29369 21.3268 4.78947 21.5496 6.69452C21.9619 10.2195 21.9619 13.7806 21.5496 17.3056C21.3268 19.2106 19.7956 20.7064 17.8972 20.9186C14.4491 21.304 10.8843 21.304 7.43623 20.9186C5.53783 20.7064 4.00663 19.2106 3.78382 17.3056C3.37154 13.7806 3.37154 10.2195 3.78382 6.69452C4.00663 4.78947 5.53783 3.29369 7.43622 3.08151ZM17.6667 6.00005C17.1144 6.00005 16.6667 6.44776 16.6667 7.00005C16.6667 7.55233 17.1144 8.00005 17.6667 8.00005C18.219 8.00005 18.6667 7.55233 18.6667 7.00005C18.6667 6.44776 18.219 6.00005 17.6667 6.00005ZM7.91669 12C7.91669 9.37669 10.0433 7.25005 12.6667 7.25005C15.29 7.25005 17.4167 9.37669 17.4167 12C17.4167 14.6234 15.29 16.75 12.6667 16.75C10.0433 16.75 7.91669 14.6234 7.91669 12Z" fill="#6C6D6D"/>
</svg>
