<svg width="32" height="33" viewBox="0 0 32 33" fill="none" xmlns="http://www.w3.org/2000/svg">
<rect y="0.5" width="32" height="32" rx="16" fill="#F5F8F7"/>
<path d="M14.765 13.3706L14.7653 13.3713C14.8539 13.5688 14.9995 13.9234 15.1144 14.2033L15.1177 14.2113C15.1635 14.3226 15.2045 14.4225 15.2364 14.4992C15.2524 14.5376 15.2655 14.5689 15.2755 14.5922C15.2846 14.6133 15.2882 14.6212 15.2882 14.6212C15.2881 14.6212 15.2877 14.6203 15.2869 14.6187L14.84 14.843M14.765 13.3706L15.3026 15.3609C15.4547 15.0493 15.3656 14.7753 15.2868 14.6186L14.84 14.843M14.765 13.3706C14.6764 13.174 14.5527 12.9989 14.3644 12.8898C14.1861 12.7865 14.0114 12.7825 13.9451 12.7809C13.9426 12.7809 13.9402 12.7808 13.938 12.7808M14.765 13.3706L13.938 12.7808M14.84 14.843C14.8829 14.9284 14.9093 15.0268 14.8532 15.1417L14.3091 13.576C14.3944 13.7661 14.5381 14.1161 14.6552 14.4012L14.6552 14.4012C14.7463 14.6231 14.8213 14.8057 14.84 14.843ZM17.6037 17.3967L17.1895 17.1166C17.1184 17.2217 16.9294 17.4482 16.7932 17.6085C16.7885 17.6065 16.784 17.6046 16.7795 17.6027L16.7721 17.5995L16.7426 17.6678C16.7426 17.6678 16.7426 17.6678 16.7426 17.6678L16.7721 17.5995L16.771 17.599C16.5465 17.5021 16.1268 17.321 15.6375 16.8854L15.6367 16.8847C15.2864 16.5743 15.0187 16.1996 14.8744 15.9751C14.907 15.9375 14.9378 15.9003 14.9636 15.8691L14.9712 15.8599C15.0044 15.8198 15.0326 15.7858 15.0587 15.7557L15.0589 15.7556C15.1788 15.6179 15.235 15.5011 15.2814 15.4047L15.2848 15.3977L15.2848 15.3977L15.3026 15.361L19.3864 17.4218L19.3863 17.4218C19.2983 17.378 19.0424 17.2523 18.7885 17.13C18.5489 17.0147 18.2709 16.8827 18.1644 16.843L18.1643 16.8429C18.162 16.8421 18.1596 16.8412 18.1571 16.8402C18.0842 16.8129 17.9129 16.7487 17.7208 16.7714C17.4682 16.8011 17.2956 16.9551 17.1858 17.1222L17.6037 17.3967ZM17.6037 17.3967C17.7158 17.2261 17.8312 17.2523 17.9895 17.3114L16.931 17.6711M17.6037 17.3967C17.4882 17.5674 17.1585 17.9515 17.0595 18.0664C16.9606 18.1812 16.8583 18.1944 16.6868 18.1091M16.6868 18.1091L16.8135 17.8545L16.8135 17.8545L16.9072 17.6663C16.9188 17.6678 16.9269 17.6699 16.931 17.6711M16.6868 18.1091L16.8135 17.8545L16.8135 17.8545L16.9071 17.6663M16.6868 18.1091C16.6589 18.0952 16.621 18.0788 16.5741 18.0585C16.3325 17.9543 15.8546 17.7481 15.3051 17.2589C14.7939 16.8059 14.4476 16.2446 14.3486 16.0739L16.9071 17.6663M16.931 17.6711C16.9331 17.6719 16.9341 17.6722 16.9341 17.6722C16.9341 17.6721 16.933 17.6717 16.931 17.6711ZM16.9071 17.6663C16.8913 17.6642 16.8691 17.663 16.842 17.6662C16.7982 17.6714 16.7585 17.686 16.7268 17.7046L16.9071 17.6663ZM13.938 12.7808C13.8312 12.7773 13.7097 12.7773 13.5985 12.7773H13.5934C13.3636 12.7773 13.0369 12.8611 12.7684 13.1506L13.938 12.7808ZM18.2335 19.6977L18.2805 20.1955C18.2803 20.1955 18.2801 20.1956 18.28 20.1956C18.2578 20.1977 18.2347 20.2004 18.2031 20.2043C18.0357 20.2245 17.8176 20.2497 17.4583 20.1894C17.1174 20.1322 16.6609 20.0007 15.9894 19.7363C14.2274 19.0434 13.0893 17.3605 12.8636 17.0268L12.8582 17.0188L12.8582 17.0188L12.8383 16.9895L12.8344 16.9838L12.8331 16.9821L12.8331 16.9821L12.833 16.982C12.7784 16.909 12.5833 16.6479 12.4013 16.2881C12.2226 15.935 12.0348 15.4452 12.0348 14.9186C12.0348 13.9299 12.5357 13.3967 12.7407 13.1801L12.7407 13.1801L12.7684 13.1506L19.9233 17.8145L19.4933 18.0697M18.2335 19.6977C18.5501 19.6682 19.2493 19.2841 19.3944 18.8837C19.5362 18.4832 19.5362 18.1419 19.4933 18.0697M18.2335 19.6977C18.2036 19.7006 18.1738 19.7042 18.1431 19.7079L18.143 19.7079C17.8529 19.743 17.4846 19.7875 16.1724 19.271L18.2335 19.6977ZM19.4933 18.0697C19.4589 18.0117 19.3778 17.9728 19.2585 17.9156L19.4933 18.0697ZM13.0896 21.8085C12.9781 21.7481 12.8478 21.7323 12.7251 21.7644L10.0449 22.4645L10.7578 19.8764C10.7934 19.7472 10.7757 19.6091 10.7085 19.4931C10.171 18.565 9.88829 17.5127 9.88867 16.4417V16.4416C9.88867 13.0765 12.6438 10.334 16.0273 10.334C17.6727 10.334 19.2113 10.971 20.3707 12.125C21.5296 13.2784 22.1659 14.8118 22.1659 16.4448C22.1659 19.8098 19.4109 22.5523 16.0273 22.5523H16.024C14.9961 22.5523 13.9863 22.2943 13.0896 21.8085ZM19.4845 17.4694C19.4812 17.4678 19.4779 17.4662 19.4747 17.4647L19.9233 17.8144C19.8444 17.6815 19.7336 17.6055 19.6684 17.5656C19.6066 17.5279 19.5358 17.494 19.4845 17.4694Z" fill="#055E4B" stroke="#055E4B" stroke-linejoin="round"/>
</svg>
