<svg width="32" height="33" viewBox="0 0 32 33" fill="none" xmlns="http://www.w3.org/2000/svg">
<rect y="0.5" width="32" height="32" rx="16" fill="#F5F8F7"/>
<path d="M15.9987 9.83398C19.6806 9.83398 22.6654 12.8188 22.6654 16.5007C22.6654 20.1825 19.6806 23.1673 15.9987 23.1673C14.8229 23.1673 13.7168 22.8624 12.7566 22.3271L12.5532 22.2089L10.5319 22.8035C10.0449 22.9467 9.59084 22.5226 9.67861 22.0402L9.6959 21.9675L10.2904 19.9462C9.68206 18.9403 9.33203 17.7604 9.33203 16.5007C9.33203 12.8188 12.3168 9.83398 15.9987 9.83398ZM15.9987 11.1673C13.0532 11.1673 10.6654 13.5551 10.6654 16.5007C10.6654 17.5519 10.9688 18.5302 11.4927 19.3552C11.6249 19.5635 11.6812 19.8194 11.6364 20.0732L11.6109 20.1818L11.3165 21.1829L12.3175 20.8884C12.6059 20.8036 12.9061 20.8555 13.1441 21.0067C13.9691 21.5305 14.9474 21.834 15.9987 21.834C18.9442 21.834 21.332 19.4462 21.332 16.5007C21.332 13.5551 18.9442 11.1673 15.9987 11.1673ZM14.0664 13.29C14.2103 13.2284 14.3846 13.2397 14.5224 13.3402C14.8587 13.5855 15.1257 13.9145 15.355 14.2363L15.5729 14.5523C15.6075 14.6034 15.6413 14.6535 15.6746 14.7022C15.7962 14.8801 15.7822 15.1166 15.6444 15.278L15.5938 15.3288L14.9782 15.786C14.9172 15.8313 14.8969 15.9137 14.9335 15.9803C15.0728 16.2339 15.321 16.6111 15.6049 16.8951C15.8892 17.1793 16.2843 17.4435 16.5552 17.5985C16.6138 17.632 16.6849 17.6214 16.7327 17.5778L16.7583 17.5477L17.1588 16.9377C17.3124 16.7333 17.5992 16.6887 17.8076 16.8329L18.1695 17.0852C18.5292 17.3419 18.8754 17.6178 19.149 17.9683C19.2568 18.1063 19.2728 18.2868 19.2086 18.4368C18.9446 19.0528 18.2764 19.5775 17.5814 19.5519L17.4757 19.5458L17.3477 19.5332C17.3246 19.5304 17.3007 19.5273 17.2759 19.5237L17.1174 19.4975C16.5016 19.3812 15.5138 19.032 14.4909 18.0091C13.468 16.9862 13.1188 15.9984 13.0025 15.3826L12.9762 15.2241L12.9595 15.0856L12.9504 14.9686C12.9494 14.951 12.9486 14.9343 12.9481 14.9186C12.9224 14.2226 13.45 13.5543 14.0664 13.29Z" fill="#055E4B"/>
</svg>
