 <svg xmlns="http://www.w3.org/2000/svg" width='24' height='24' viewBox="0 0 24 24" fill="none">
            <path
                fillRule="evenodd"
                clipRule="evenodd"
                d="M11.9975 2H12.0025C17.5162 2 22 6.48625 22 12C22 17.5138 17.5162 22 12.0025 22C9.96875 22 8.0825 21.395 6.50125 20.3475L2.6575 21.5763L3.90375 17.8612C2.705 16.215 2 14.1875 2 12C2 6.485 6.48375 2 11.9975 2ZM15.859 17.5323C16.6228 17.3673 17.5803 16.8023 17.8215 16.1211C18.0628 15.4386 18.0628 14.8573 17.9928 14.7336C17.9362 14.6354 17.8026 14.571 17.6031 14.475C17.5511 14.45 17.4947 14.4228 17.434 14.3923C17.1403 14.2461 15.7115 13.5398 15.4415 13.4461C15.1765 13.3461 14.924 13.3811 14.724 13.6636C14.686 13.7168 14.648 13.7702 14.6103 13.8233C14.369 14.1626 14.1363 14.4899 13.9428 14.6986C13.7665 14.8861 13.479 14.9098 13.2378 14.8098C13.2115 14.7989 13.1813 14.7867 13.1476 14.773C12.7656 14.6188 11.9183 14.2766 10.8928 13.3636C10.0278 12.5936 9.44027 11.6348 9.27027 11.3473C9.10336 11.0589 9.24733 10.8898 9.38039 10.7335C9.38285 10.7306 9.38531 10.7277 9.38777 10.7248C9.47356 10.6187 9.55681 10.5303 9.64047 10.4415C9.70066 10.3776 9.76106 10.3134 9.82277 10.2423C9.83193 10.2318 9.84085 10.2215 9.84953 10.2115C9.98056 10.0609 10.0586 9.97114 10.1465 9.78357C10.2465 9.58982 10.1753 9.38982 10.104 9.24232C10.055 9.13902 9.75217 8.40428 9.49221 7.77354C9.38096 7.50363 9.27757 7.25276 9.20527 7.07857C9.01152 6.61482 8.86402 6.59732 8.57027 6.58482C8.56127 6.58437 8.55218 6.58391 8.543 6.58344C8.45015 6.57874 8.34788 6.57357 8.23527 6.57357C7.85277 6.57357 7.45402 6.68607 7.21277 6.93232C7.20434 6.94093 7.19555 6.94987 7.18643 6.95914C6.87779 7.27303 6.19027 7.97225 6.19027 9.36607C6.19027 10.7626 7.18115 12.1141 7.36449 12.3642C7.36954 12.3711 7.37398 12.3771 7.37777 12.3823C7.3888 12.3968 7.40959 12.4269 7.43985 12.4707C7.8142 13.0129 9.63756 15.6534 12.3565 16.7798C14.654 17.7323 15.3365 17.6436 15.859 17.5323Z"
                fill="#6C6D6D"
            />
        </svg>