<svg width="25" height="24" viewBox="0 0 25 24" fill="none" xmlns="http://www.w3.org/2000/svg">
<path fill-rule="evenodd" clip-rule="evenodd" d="M7.65404 4.89055C10.9897 4.62958 14.3407 4.62958 17.6763 4.89055L19.917 5.06585C21.1651 5.16349 22.1861 6.09889 22.3924 7.33366C22.9087 10.4232 22.9087 13.5769 22.3924 16.6664C22.1861 17.9012 21.1651 18.8366 19.917 18.9342L17.6763 19.1095C14.3407 19.3705 10.9897 19.3705 7.65404 19.1095L5.41334 18.9342C4.16527 18.8366 3.14425 17.9012 2.93794 16.6664C2.42173 13.5769 2.42173 10.4232 2.93794 7.33366C3.14425 6.09889 4.16527 5.16349 5.41334 5.06585L7.65404 4.89055ZM10.6652 14.4702V9.52989C10.6652 9.2967 10.9196 9.15267 11.1195 9.27264L15.2364 11.7428C15.4306 11.8593 15.4306 12.1408 15.2364 12.2573L11.1195 14.7274C10.9196 14.8474 10.6652 14.7034 10.6652 14.4702Z" fill="#6C6D6D"/>
</svg>
