<svg width="32" height="33" viewBox="0 0 32 33" fill="none" xmlns="http://www.w3.org/2000/svg">
<rect y="0.5" width="32" height="32" rx="16" fill="#F5F8F7"/>
<path fill-rule="evenodd" clip-rule="evenodd" d="M12.659 11.7594C14.8828 11.5854 17.1168 11.5854 19.3405 11.7594L20.8343 11.8763C21.6664 11.9414 22.3471 12.5649 22.4846 13.3881C22.8287 15.4478 22.8287 17.5503 22.4846 19.61C22.3471 20.4331 21.6664 21.0567 20.8343 21.1218L19.3405 21.2387C17.1168 21.4127 14.8828 21.4127 12.659 21.2387L11.1652 21.1218C10.3332 21.0567 9.65248 20.4331 9.51494 19.61C9.1708 17.5503 9.1708 15.4478 9.51494 13.3881C9.65248 12.5649 10.3332 11.9414 11.1652 11.8763L12.659 11.7594ZM14.6664 18.1458V14.8523C14.6664 14.6968 14.836 14.6008 14.9693 14.6808L17.7139 16.3275C17.8434 16.4052 17.8434 16.5929 17.7139 16.6705L14.9693 18.3173C14.836 18.3973 14.6664 18.3013 14.6664 18.1458Z" fill="#055E4B"/>
</svg>
