<svg width="32" height="33" viewBox="0 0 32 33" fill="none" xmlns="http://www.w3.org/2000/svg">
<rect y="0.5" width="32" height="32" rx="16" fill="#F5F8F7"/>
<path d="M15.9987 11.166C16.569 11.166 17.1531 11.181 17.7198 11.2045L18.3895 11.2365L19.0303 11.2744L19.6304 11.3157L20.1777 11.3579C21.403 11.4574 22.3878 12.4056 22.5076 13.6401L22.5341 13.9231L22.5841 14.5297C22.6308 15.1586 22.6654 15.8442 22.6654 16.4993C22.6654 17.1545 22.6308 17.8401 22.5841 18.469L22.5341 19.0756C22.5253 19.1725 22.5165 19.2669 22.5076 19.3586C22.3878 20.5931 21.403 21.5413 20.1777 21.6407L19.6304 21.683L19.0303 21.7243L18.3895 21.7621L17.7198 21.7942C17.1531 21.8177 16.569 21.8327 15.9987 21.8327C15.4284 21.8327 14.8443 21.8177 14.2776 21.7942L13.6079 21.7621L12.9671 21.7243L12.367 21.683L11.8197 21.6407C10.5944 21.5413 9.60963 20.5931 9.48982 19.3586L9.46331 19.0756L9.41331 18.469C9.36656 17.8401 9.33203 17.1545 9.33203 16.4993C9.33203 15.8442 9.36656 15.1586 9.41331 14.5297L9.46331 13.9231C9.47205 13.8262 9.48092 13.7318 9.48982 13.6401C9.60963 12.4056 10.5944 11.4574 11.8197 11.3579L12.367 11.3157L12.9671 11.2744L13.6079 11.2365L14.2776 11.2045C14.8443 11.181 15.4284 11.166 15.9987 11.166ZM15.9987 12.4993C15.4485 12.4993 14.8827 12.5138 14.3318 12.5368L13.6799 12.5679L13.0541 12.6049L12.4661 12.6453L11.9275 12.6869C11.3347 12.735 10.8733 13.1877 10.8169 13.7689C10.7387 14.5746 10.6654 15.5781 10.6654 16.4993C10.6654 17.4206 10.7387 18.4241 10.8169 19.2298C10.8733 19.811 11.3347 20.2637 11.9275 20.3118L12.4661 20.3534L13.0541 20.3938L13.6799 20.4308L14.3318 20.462C14.8827 20.4849 15.4485 20.4993 15.9987 20.4993C16.5489 20.4993 17.1147 20.4849 17.6656 20.462L18.3175 20.4308L18.9433 20.3938L19.5313 20.3534L20.0698 20.3118C20.6627 20.2637 21.1241 19.811 21.1805 19.2298C21.2587 18.4241 21.332 17.4206 21.332 16.4993C21.332 15.5781 21.2587 14.5746 21.1805 13.7689C21.1241 13.1877 20.6627 12.735 20.0698 12.6869L19.5313 12.6453L18.9433 12.6049L18.3175 12.5679L17.6656 12.5368C17.1147 12.5138 16.5489 12.4993 15.9987 12.4993ZM14.6654 14.8828C14.6654 14.5954 14.9557 14.4086 15.2113 14.5101L15.2654 14.5364L18.0654 16.1529C18.3115 16.295 18.3305 16.634 18.1222 16.8063L18.0654 16.8457L15.2654 18.4623C15.0165 18.606 14.7095 18.448 14.6697 18.1759L14.6654 18.1159V14.8828Z" fill="#055E4B"/>
</svg>
