<svg xmlns="http://www.w3.org/2000/svg" width="203" height="119" viewBox="0 0 203 119" fill="none">
<g opacity="0.1">
<path d="M0 116.452V86.89L53.8547 43.89C59.2402 39.59 61.9329 35.1108 61.9329 30.4525C61.9329 26.6303 60.7361 23.5844 58.3426 21.315C55.9491 19.0455 52.3587 17.9108 47.5717 17.9108C39.0746 17.9108 34.2875 22.0914 33.2104 30.4525H0C0.957417 18.8664 5.38547 9.13164 13.2842 1.24831C21.1829 -6.75447 32.612 -10.7559 47.5717 -10.7559C63.2494 -10.7559 75.2171 -7.05308 83.4748 0.352479C91.8522 7.75803 96.0409 16.8955 96.0409 27.765C96.0409 40.4261 89.7578 51.7733 77.1917 61.8066L44.8789 87.7858H97.8361V116.452H0Z" fill="#024638"/>
<path d="M139.81 85.0983C143.281 88.0844 147.589 89.5775 152.736 89.5775C157.882 89.5775 162.13 88.0844 165.481 85.0983C168.952 81.9928 170.687 77.8122 170.687 72.5566C170.687 67.3011 168.952 63.1803 165.481 60.1941C162.13 57.0886 157.882 55.5358 152.736 55.5358C147.589 55.5358 143.281 57.0886 139.81 60.1941C136.46 63.1803 134.784 67.3011 134.784 72.5566C134.784 77.8122 136.46 81.9928 139.81 85.0983ZM189.357 105.344C180.261 113.944 168.054 118.244 152.736 118.244C137.417 118.244 125.21 113.944 116.114 105.344C107.019 96.7441 102.471 85.815 102.471 72.5566C102.471 65.5094 103.548 59.1789 105.702 53.565C107.976 47.8316 111.387 41.3219 115.935 34.0358L142.862 -8.96419H178.765L153.633 30.4525C168.593 30.4525 180.561 34.3941 189.536 42.2775C198.512 50.1608 203 60.2539 203 72.5566C203 85.815 198.452 96.7441 189.357 105.344Z" fill="#024638"/>
</g>
</svg>