<svg xmlns="http://www.w3.org/2000/svg" width="166" height="120" viewBox="0 0 166 120" fill="none">
<path fill-rule="evenodd" clip-rule="evenodd" d="M115.291 119.244C130.885 119.244 143.208 114.176 152.259 104.039C158.054 97.6258 162.016 89.361 164.145 79.2441H133.398C132.588 81.2118 131.624 82.9757 130.504 84.5358C126.578 90.0451 121.507 92.7997 115.291 92.7997C109.075 92.7997 103.949 90.0451 99.9144 84.5358C95.9885 78.9164 94.0256 70.6525 94.0256 59.7441C94.0256 48.8358 95.9885 40.627 99.9144 35.1178C103.949 29.4983 109.075 26.6886 115.291 26.6886C121.507 26.6886 126.578 29.4983 130.504 35.1178C132.97 38.4849 134.682 42.8603 135.641 48.2441H165.406C163.897 34.4098 159.514 23.4783 152.259 15.4497C143.208 5.31266 130.885 0.244141 115.291 0.244141C99.6963 0.244141 87.3188 5.31266 78.1585 15.4497C69.1071 25.5867 64.5815 40.3515 64.5815 59.7441C64.5815 79.1367 69.1071 93.9016 78.1585 104.039C87.3188 114.176 99.6963 119.244 115.291 119.244ZM23.7188 40.7372V117.591H53.1629V1.89692H23.7188V7.68164C23.7188 12.0891 21.5378 14.2928 17.1757 14.2928H0V40.7372H23.7188Z" fill="#BD9B60"/>
</svg>