<svg xmlns="http://www.w3.org/2000/svg" width="35" height="36" viewBox="0 0 35 36" fill="none">
<path fill-rule="evenodd" clip-rule="evenodd" d="M19.9266 9.49414C19.9266 10.0982 20.4163 10.5879 21.0204 10.5879L24.6555 10.5879V14.223C24.6555 14.8271 25.1452 15.3167 25.7492 15.3167C26.3533 15.3167 26.843 14.8271 26.843 14.223V9.49414C26.843 8.89008 26.3533 8.40039 25.7492 8.40039L21.0204 8.40039C20.4163 8.40039 19.9266 8.89008 19.9266 9.49414Z" fill="#024638"/>
<path fill-rule="evenodd" clip-rule="evenodd" d="M25.7492 20.1707C25.1451 20.1707 24.6554 20.6604 24.6554 21.2645L24.6554 24.8996L21.0203 24.8996C20.4163 24.8996 19.9266 25.3893 19.9266 25.9933C19.9266 26.5974 20.4163 27.0871 21.0203 27.0871H25.7492C26.3532 27.0871 26.8429 26.5974 26.8429 25.9933L26.8429 21.2645C26.8429 20.6604 26.3532 20.1707 25.7492 20.1707Z" fill="#024638"/>
<path fill-rule="evenodd" clip-rule="evenodd" d="M9.25004 20.1707C9.8541 20.1707 10.3438 20.6604 10.3438 21.2645L10.3438 24.8996H13.9789C14.583 24.8996 15.0726 25.3893 15.0726 25.9933C15.0726 26.5974 14.583 27.0871 13.9789 27.0871L9.25004 27.0871C8.64598 27.0871 8.15629 26.5974 8.15629 25.9933L8.15629 21.2645C8.15629 20.6604 8.64598 20.1707 9.25004 20.1707Z" fill="#024638"/>
<path fill-rule="evenodd" clip-rule="evenodd" d="M15.0726 9.49414C15.0726 10.0982 14.5829 10.5879 13.9789 10.5879L10.3438 10.5879L10.3438 14.223C10.3438 14.8271 9.85406 15.3167 9.25 15.3167C8.64594 15.3167 8.15625 14.8271 8.15625 14.223L8.15625 9.49414C8.15625 8.89008 8.64594 8.40039 9.25 8.40039L13.9789 8.40039C14.5829 8.40039 15.0726 8.89008 15.0726 9.49414Z" fill="#024638"/>
</svg>