<svg xmlns="http://www.w3.org/2000/svg" width="136" height="122" viewBox="0 0 136 122" fill="none">
<circle opacity="0.05" cx="115" cy="115.244" r="115" fill="#F5F8F7"/>
<circle cx="33" cy="33.2441" r="8" fill="#F5F8F7"/>
<path d="M34 94.2441C32.8954 94.2441 31.9966 93.3484 32.0323 92.2444C32.273 84.7845 33.859 77.4235 36.7195 70.5178C39.8353 62.9956 44.4022 56.1607 50.1594 50.4035C55.9166 44.6463 62.7514 40.0794 70.2736 36.9636C77.1794 34.1031 84.5404 32.5171 92.0003 32.2764C93.1043 32.2408 94 33.1396 94 34.2441L94 43.7438C94 44.8483 93.1042 45.7395 92.0005 45.785C86.3139 46.0196 80.7075 47.2536 75.4397 49.4356C69.5554 51.873 64.2087 55.4455 59.7051 59.9492C55.2014 64.4529 51.6289 69.7995 49.1915 75.6838C47.0095 80.9517 45.7755 86.5581 45.5409 92.2447C45.4953 93.3483 44.6042 94.2441 43.4996 94.2441H34Z" fill="#F5F8F7"/>
</svg>