<svg xmlns="http://www.w3.org/2000/svg" width="134" height="172" viewBox="0 0 134 172" fill="none">
<path d="M49.2503 131.838C53.5422 135.329 59.4235 137.074 66.8945 137.074C74.3655 137.074 80.1674 135.329 84.3002 131.838C88.592 128.189 90.738 123.587 90.738 118.034C90.738 112.004 88.6715 107.323 84.5387 103.991C80.4058 100.659 74.5244 98.9927 66.8945 98.9927C59.2646 98.9927 53.3832 100.659 49.2503 103.991C45.1175 107.323 43.051 112.004 43.051 118.034C43.051 123.587 45.1175 128.189 49.2503 131.838ZM116.489 157.543C105.203 166.905 88.6715 171.586 66.8945 171.586C45.1175 171.586 28.5065 166.905 17.0617 157.543C5.77576 148.181 0.132812 135.805 0.132812 120.414C0.132812 111.845 2.59664 104.388 7.52428 98.0407C12.4519 91.5351 18.7307 86.6956 26.3606 83.5221C20.1613 80.0313 14.8363 75.1918 10.3855 69.0035C5.93472 62.8153 3.70933 55.7543 3.70933 47.8207C3.70933 33.2227 9.6702 21.6396 21.5919 13.0713C33.5137 4.50292 48.6145 0.21875 66.8945 0.21875C85.1745 0.21875 100.275 4.50292 112.197 13.0713C124.119 21.6396 130.08 33.2227 130.08 47.8207C130.08 55.7543 127.854 62.8153 123.404 69.0035C118.953 75.1918 113.628 80.0313 107.428 83.5221C115.058 86.6956 121.337 91.5351 126.265 98.0407C131.192 104.388 133.656 111.845 133.656 120.414C133.656 135.805 127.934 148.181 116.489 157.543ZM52.1116 63.7673C55.9265 66.6234 60.8542 68.0515 66.8945 68.0515C72.9348 68.0515 77.783 66.6234 81.439 63.7673C85.254 60.7525 87.1614 56.627 87.1614 51.3908C87.1614 46.1546 85.254 42.1084 81.439 39.2523C77.783 36.2375 72.9348 34.7302 66.8945 34.7302C60.8542 34.7302 55.9265 36.2375 52.1116 39.2523C48.4556 42.1084 46.6276 46.1546 46.6276 51.3908C46.6276 56.627 48.4556 60.7525 52.1116 63.7673Z" fill="#024638"/>
</svg>