<svg xmlns="http://www.w3.org/2000/svg" width="24" height="25" viewBox="0 0 24 25" fill="none">
<path d="M4 15.2441L20 15.2441" stroke="#024638" stroke-width="2" stroke-linecap="round" stroke-linejoin="round"/>
<path d="M4 9.24414L20 9.24414" stroke="#024638" stroke-width="2" stroke-linecap="round" stroke-linejoin="round"/>
<circle cx="12" cy="12.2441" r="9" stroke="#024638" stroke-width="2" stroke-linecap="round" stroke-linejoin="round"/>
<path d="M11.9984 21.0621L11.2842 21.762C11.4723 21.954 11.7297 22.0621 11.9984 22.0621C12.2672 22.0621 12.5246 21.954 12.7127 21.762L11.9984 21.0621ZM11.9984 3.42578L12.7127 2.72588C12.5246 2.53394 12.2672 2.42578 11.9984 2.42578C11.7297 2.42578 11.4723 2.53394 11.2842 2.72588L11.9984 3.42578ZM14.5984 12.244C14.5984 15.405 13.3354 18.269 11.2842 20.3622L12.7127 21.762C15.1154 19.3101 16.5984 15.9492 16.5984 12.244H14.5984ZM11.2842 4.12568C13.3354 6.21891 14.5984 9.08293 14.5984 12.244H16.5984C16.5984 8.53867 15.1154 5.17779 12.7127 2.72588L11.2842 4.12568ZM9.39844 12.244C9.39844 9.08293 10.6615 6.21891 12.7127 4.12568L11.2842 2.72588C8.88152 5.17779 7.39844 8.53867 7.39844 12.244H9.39844ZM12.7127 20.3622C10.6615 18.269 9.39844 15.405 9.39844 12.244H7.39844C7.39844 15.9492 8.88152 19.3101 11.2842 21.762L12.7127 20.3622Z" fill="#024638"/>
</svg>