<svg xmlns="http://www.w3.org/2000/svg" width="32" height="33" viewBox="0 0 32 33" fill="none">
<path fill-rule="evenodd" clip-rule="evenodd" d="M3.75 2.58789V4.93164H1.875H0V7.77539V10.6191H1.875H3.75V17.18V23.7408L2.82812 23.7581L1.90625 23.7754L1.89006 27.0723L1.87388 30.3691H0.936938H0V31.3066V32.2441H16H32V31.3066V30.3691H30.5938H29.1875V25.838V21.3069L25.8906 19.6582L22.5938 18.0095L19.2969 19.6582L16 21.3069V25.838V30.3691H13.6568H11.3136L11.2974 27.0723L11.2812 23.7754L10.3594 23.7581L9.4375 23.7408V17.18V10.6191H15.5323H21.6271L21.6104 12.1951L21.5938 13.7711L17.6959 15.5044C15.5521 16.4577 13.7861 17.2497 13.7714 17.2644C13.7436 17.2922 14.4224 18.8711 14.4916 18.9395C14.5134 18.9611 16.3438 18.172 18.5591 17.1859L22.5871 15.3931L26.4341 17.1046C28.5501 18.0459 30.3698 18.8535 30.4781 18.8993L30.6749 18.9825L31.0562 18.1341C31.2659 17.6676 31.4261 17.2744 31.4121 17.2604C31.3981 17.2463 29.6191 16.4501 27.4589 15.4908L23.5312 13.7467L23.5146 12.183L23.4979 10.6191H26.3114C27.8589 10.6191 29.125 10.6006 29.125 10.5779C29.125 10.5553 28.1794 9.27558 27.0238 7.73414L24.9226 4.93164H17.18H9.4375V2.58789V0.244141H6.59375H3.75V2.58789ZM7.5 3.52539V4.93164H6.5625H5.625V3.52539V2.11914H6.5625H7.5V3.52539ZM24.6806 7.73495C25.0626 8.24558 25.375 8.68158 25.375 8.70389C25.375 8.7262 20.0945 8.73739 13.6406 8.7287L1.90625 8.71289L1.889 7.75977L1.87175 6.80664H12.929H23.9863L24.6806 7.73495ZM7.5 17.1816V23.7441H6.5625H5.625V17.1816V10.6191H6.5625H7.5V17.1816ZM27.3125 26.4318V30.3691H26.375H25.4375V28.0254V25.6816H22.5938H19.75V28.0254V30.3691H18.8121H17.8741L17.8902 26.4235L17.9062 22.4779L20.2496 21.306L22.593 20.1341L24.9527 21.3143L27.3125 22.4945V26.4318ZM9.4375 28.0254V30.3691H6.59375H3.75V28.0254V25.6816H6.59375H9.4375V28.0254ZM23.5 28.9629V30.3691H22.5625H21.625V28.9629V27.5566H22.5625H23.5V28.9629Z" fill="#BD9B60"/>
</svg>