<svg xmlns="http://www.w3.org/2000/svg" width="30" height="31" viewBox="0 0 30 31" fill="none">
<path d="M17.2469 5.4141C16.0189 4.14582 13.9848 4.14582 12.7568 5.41409L6.75871 11.6088C6.41423 11.9645 6.18275 12.4143 6.09343 12.9014C5.36498 16.8738 5.31121 20.9407 5.93438 24.931L6.15501 26.3438C6.22469 26.79 6.60902 27.1189 7.06065 27.1189H11.2519C11.597 27.1189 11.8769 26.8391 11.8769 26.4939V17.7439H18.1269V26.4939C18.1269 26.8391 18.4067 27.1189 18.7519 27.1189H22.943C23.3946 27.1189 23.779 26.79 23.8486 26.3438L24.0693 24.931C24.6924 20.9407 24.6387 16.8738 23.9102 12.9014C23.8209 12.4143 23.5894 11.9645 23.2449 11.6088L17.2469 5.4141Z" fill="#024638"/>
</svg>